{
.appVersion = "3150";
copyright = "Copyright 2016 The Rokkit Project Authors (https://github.com/googlefonts/RokkittFont)";
customParameters = (
{
name = fsType;
value = (
);
},
{
name = "Use Typo Metrics";
value = 1;
},
{
name = "Disable Last Change";
value = 1;
},
{
name = "Use Line Breaks";
value = 1;
},
{
name = glyphOrder;
value = (
A,
AE,
B,
C,
D,
E,
Eth,
F,
G,
H,
I,
J,
I_J.loclNLD,
K,
L,
Lslash,
M,
N,
Eng,
O,
Oslash,
OE,
P,
Thorn,
Q,
R,
S,
Germandbls,
Schwa,
T,
U,
Uhorn,
V,
W,
X,
Y,
Z,
a,
ae,
b,
c,
d,
eth,
e,
f,
g,
h,
i,
idotless,
i_j.loclNLD,
j,
jdotless,
k,
l,
lslash,
m,
n,
eng,
o,
oslash,
oe,
p,
thorn,
q,
r,
s,
germandbls,
schwa,
t,
u,
uhorn,
v,
w,
x,
y,
z
);
},
{
name = vendorID;
value = NEWT;
},
{
name = trademark;
value = "Rokkitt is a trademark of Vernon Adams and may be registered in certain jurisdictions.";
},
{
name = license;
value = "This Font Software is licensed under the SIL Open Font License, Version 1.1. This license is available with a FAQ at: http://scripts.sil.org/OFL";
},
{
name = licenseURL;
value = "http://scripts.sil.org/OFL";
},
{
name = Axes;
value = (
{
Name = Weight;
Tag = wght;
}
);
},
{
name = note;
value = "Interpolation passes:\012kgreenlandic\012f_f\012peseta\012s";
}
);
date = "2016-12-06 21:35:03 +0000";
designer = "Vernon Adams";
designerURL = "http://www.sansoxygen.com";
disablesNiceNames = 1;
familyName = Rokkitt;
featurePrefixes = (
{
automatic = 1;
code = "languagesystem DFLT dflt;

languagesystem latn dflt;
languagesystem latn AZE;
languagesystem latn CRT;
languagesystem latn KAZ;
languagesystem latn TAT;
languagesystem latn TRK;
languagesystem latn ROM;
languagesystem latn MOL;
languagesystem latn NLD;
languagesystem latn CAT;
";
name = Languagesystems;
}
);
features = (
{
automatic = 1;
code = "feature locl;
feature sups;
feature frac;
feature ordn;
";
name = aalt;
},
{
automatic = 1;
code = "lookup ccmp_Other_1 {

glyphs = (
{
color = 3;
glyphname = A;
layers = (
{
anchors = (
{
name = bottom;
position = "{303, 0}";
},
{
name = ogonek;
position = "{554, 0}";
},
{
name = top;
position = "{303, 583}";
}
);
background = {
anchors = (
{
name = bottom;
position = "{293, 0}";
},
{
name = ogonek;
position = "{512, 0}";
},
{
name = top;
position = "{293, 563}";
}
);
paths = (
{
closed = 1;
nodes = (
"876 0 LINE",
"876 22 LINE",
"803 22 LINE",
"882 235 LINE",
"1103 235 LINE",
"1181 22 LINE",
"1109 22 LINE",
"1109 0 LINE",
"1288 0 LINE",
"1288 22 LINE",
"1213 22 LINE",
"1020 541 LINE",
"1093 541 LINE",
"1093 563 LINE",
"895 563 LINE",
"895 541 LINE",
"966 541 LINE",
"773 22 LINE",
"697 22 LINE",
"697 0 LINE"
);
},
{
closed = 1;
nodes = (
"991 538 LINE",
"993 538 LINE",
"1096 256 LINE",
"888 256 LINE"
);
},
{
closed = 1;
nodes = (
"498 23 LINE",
"424 23 LINE",
"424 0 LINE",
"609 0 LINE",
"609 23 LINE",
"531 23 LINE",
"331 560 LINE",
"407 560 LINE",
"407 583 LINE",
"202 583 LINE",
"202 560 LINE",
"276 560 LINE",
"76 23 LINE",
"-3 23 LINE",
"-3 0 LINE",
"182 0 LINE",
"182 23 LINE",
"107 23 LINE",
"301 557 LINE",
"304 557 LINE"
);
}
);
};
layerId = "98C086B7-81AA-4491-8494-0C6A76849168";
paths = (
{
closed = 1;
nodes = (
"187 0 LINE",
"187 22 LINE",
"107 22 LINE",
"189 249 LINE",
"183 243 LINE",
"431 243 LINE",
"416 249 LINE",
"498 22 LINE",
"418 22 LINE",
"418 0 LINE",
"604 0 LINE",
"604 22 LINE",
"529 22 LINE",
"331 561 LINE",
"411 561 LINE",
"411 583 LINE",
"195 583 LINE",
"195 561 LINE",
"275 561 LINE",
"77 22 LINE",
"2 22 LINE",
"2 0 LINE"
);
},
{
closed = 1;
nodes = (
"301 558 LINE",
"304 558 LINE",
"414 256 LINE",
"416 264 LINE",
"186 264 LINE",
"191 256 LINE"
);
}
);
width = 606;
},
{
anchors = (
{
name = bottom;
position = "{361, 0}";
},
{
name = ogonek;
position = "{654, 0}";
},
{
name = top;
position = "{362, 583}";
}
);
background = {
anchors = (
{
name = bottom;
position = "{343, 0}";
},
{
name = ogonek;
position = "{610, 0}";
},
{
name = top;
position = "{360, 583}";
}
);
paths = (
{
closed = 1;
nodes = (
"1288 0 LINE",
"1288 120 LINE",
"1238 120 LINE",
"1264 200 LINE",
"1434 200 LINE",
"1458 120 LINE",
"1398 120 LINE",
"1398 0 LINE",
"1715 0 LINE",
"1715 120 LINE",
"1661 120 LINE",
"1526 463 LINE",
"1580 463 LINE",
"1580 583 LINE",
"1139 583 LINE",
"1139 463 LINE",
"1193 463 LINE",
"1059 120 LINE",
"1005 120 LINE",
"1005 0 LINE"
);
},
{
closed = 1;
nodes = (
"1349 463 LINE",
"1354 463 LINE",
"1400 310 LINE",
"1299 310 LINE"
);
},
{
closed = 1;
nodes = (
"303 0 LINE",
"303 120 LINE",
"248 120 LINE",
"274 200 LINE",
"448 200 LINE",
"474 120 LINE",
"419 120 LINE",
"419 0 LINE",
"717 0 LINE",
"717 120 LINE",
"667 120 LINE",
"543 463 LINE",
"598 463 LINE",
"598 583 LINE",
"128 583 LINE",
"128 463 LINE",
"183 463 LINE",
"59 120 LINE",
"9 120 LINE",
"9 0 LINE"
);
},
{
closed = 1;
nodes = (
"359 463 LINE",
"364 463 LINE",
"413 310 LINE",
"309 310 LINE"
);
}
);
};
layerId = "EFCDB4D9-E20B-4A8D-9DB5-150AD166B0AE";
paths = (
{
closed = 1;
nodes = (
"303 0 LINE",
"303 120 LINE",
"248 120 LINE",
"288 243 LINE",
"229 195 LINE",
"493 195 LINE",
"434 243 LINE",
"474 120 LINE",
"419 120 LINE",
"419 0 LINE",
"723 0 LINE",
"723 120 LINE",
"673 120 LINE",
"549 463 LINE",
"604 463 LINE",
"604 583 LINE",
"121 583 LINE",
"121 463 LINE",
"176 463 LINE",
"52 120 LINE",
"2 120 LINE",
"2 0 LINE"
);
},
{
closed = 1;
nodes = (
"359 463 LINE",
"364 463 LINE",
"427 267 LINE",
"458 315 LINE",
"264 315 LINE",
"295 267 LINE"
);
}
);
width = 725;
},
{
anchors = (
{
name = bottom;
position = "{334, 0}";
},
{
name = ogonek;
position = "{561, 0}";
},
{
name = top;
position = "{338, 563}";
}
);
associatedMasterId = "98C086B7-81AA-4491-8494-0C6A76849168";
layerId = "013A18C8-E3C2-4454-B8CD-883DFB5D2BE8";
name = "Original Regular";
paths = (
{
closed = 1;
nodes = (
"250 0 LINE",
"250 53 LINE",
"175 53 LINE",
"231 217 LINE",
"435 217 LINE",
"492 53 LINE",
"417 53 LINE",
"417 0 LINE",
"646 0 LINE",
"646 53 LINE",
"578 53 LINE",
"410 510 LINE",
"475 510 LINE",
"475 563 LINE",
"200 563 LINE",
"200 510 LINE",
"263 510 LINE",
"100 53 LINE",
"28 53 LINE",
"28 0 LINE"
);
},
{
closed = 1;
nodes = (
"331 509 LINE",
"337 509 LINE",
"419 270 LINE",
"247 270 LINE"
);
}
);
width = 675;
},
{
anchors = (
{
name = bottom;
position = "{332, 0}";
},
{
name = ogonek;
position = "{604, 0}";
},
{
name = top;
position = "{333, 583}";
}
);
background = {
anchors = (
{
name = bottom;
position = "{332, 0}";
},
{
name = ogonek;
position = "{604, 0}";
},
{
name = top;
position = "{333, 583}";
}
);
paths = (
{
closed = 1;
nodes = (
"245 0 LINE",
"245 71 LINE",
"178 71 LINE",
"239 246 LINE",
"206 219 LINE",
"462 219 LINE",
"425 246 LINE",
"486 71 LINE",
"419 71 LINE",
"419 0 LINE",
"664 0 LINE",
"664 71 LINE",
"601 71 LINE",
"440 512 LINE",
"508 512 LINE",
"508 583 LINE",
"158 583 LINE",
"158 512 LINE",
"226 512 LINE",
"65 71 LINE",
"2 71 LINE",
"2 0 LINE"
);
},
{
closed = 1;
nodes = (
"330 511 LINE",
"334 511 LINE",
"421 262 LINE",
"437 290 LINE",
"225 290 LINE",
"243 262 LINE"
);
}
);
};
guideLines = (
{
angle = 69.9285;
position = "{254, 291}";
},
{
angle = -69.9285;
position = "{410, 291}";
}
);
layerId = "086393EE-48A8-42B6-AE05-10B6A30445E6";
paths = (
{
closed = 1;
nodes = (
"245 0 LINE",
"245 83 LINE",
"178 83 LINE",
"237 245 LINE",
"206 213 LINE",
"462 213 LINE",
"426 245 LINE",
"486 83 LINE",
"419 83 LINE",
"419 0 LINE",
"664 0 LINE",
"664 83 LINE",
"601 83 LINE",
"440 500 LINE",
"508 500 LINE",
"508 583 LINE",
"158 583 LINE",
"158 500 LINE",
"226 500 LINE",
"65 83 LINE",
"2 83 LINE",
"2 0 LINE"
);
},
{
closed = 1;
nodes = (
"330 499 LINE",
"334 499 LINE",
"421 263 LINE",
"437 291 LINE",
"225 291 LINE",
"243 263 LINE"
);
}
);
width = 665.5;
}
);
leftKerningGroup = A;
rightKerningGroup = A;
rightMetricsKey = "=|";
unicode = 0041;
userData = {
com.typemytype.robofont.layerData = {
b = {
anchors = (
);
components = (
);
contours = (
);
lib = {
};
name = A;
unicodes = (
);
width = 1383;
};
};
org.robofab.postScriptHintData = {
};
};
},
{
color = 3;
glyphname = AE;
layers = (
{
anchors = (
{
name = bottom;
position = "{436, 0}";
},
{
name = top;
position = "{522, 583}";
}
);
background = {
anchors = (
{
name = bottom;
position = "{436, 0}";
},
{
name = top;
position = "{506, 563}";
}
);
paths = (
{
closed = 1;
nodes = (
"1366 0 LINE",
"1366 22 LINE",
"1294 22 LINE",
"1400 212 LINE",
"1634 212 LINE",
"1663 22 LINE",
"1584 22 LINE",
"1584 0 LINE",
"2080 0 LINE",
"2051 191 LINE",
"2026 191 LINE",
"2051 22 LINE",
"1694 22 LINE",
"1658 266 LINE",
"1872 266 LINE",
"1889 171 LINE",
"1910 171 LINE",
"1876 372 LINE",
"1855 372 LINE",
"1868 288 LINE",
"1655 288 LINE",
"1618 541 LINE",
"1949 541 LINE",
"1974 371 LINE",
"1999 371 LINE",
"1972 563 LINE",
"1486 563 LINE",
"1486 541 LINE",
"1554 541 LINE",
"1259 22 LINE",
"1173 22 LINE",
"1173 0 LINE"
);
},
{
closed = 1;
nodes = (
"1582 541 LINE",
"1587 541 LINE",
"1632 233 LINE",
"1412 233 LINE"
);
},
{
closed = 1;
nodes = (
"863 0 LINE",
"840 165 LINE",
"814 165 LINE",
"834 22 LINE",
"494 22 LINE",
"457 286 LINE",
"673 286 LINE",
"685 196 LINE",
"710 196 LINE",
"683 393 LINE",
"657 393 LINE",
"669 308 LINE",
"454 308 LINE",
"418 561 LINE",
"743 561 LINE",
"763 423 LINE",
"789 423 LINE",
"766 583 LINE",
"300 583 LINE",
"303 561 LINE",
"388 561 LINE",
"464 22 LINE",
"379 22 LINE",
"382 0 LINE"
);
}
);
};
layerId = "98C086B7-81AA-4491-8494-0C6A76849168";
paths = (
{
closed = 1;
nodes = (
"176 0 LINE",
"176 22 LINE",
"96 22 LINE",
"219 249 LINE",
"211 243 LINE",
"445 243 LINE",
"432 249 LINE",
"464 22 LINE",
"379 22 LINE",
"379 0 LINE",
"861 0 LINE",
"838 165 LINE",
"812 165 LINE",
"832 22 LINE",
"492 22 LINE",
"455 286 LINE",
"671 286 LINE",
"683 196 LINE",
"708 196 LINE",
"681 393 LINE",
"655 393 LINE",
"667 308 LINE",
"452 308 LINE",
"416 561 LINE",
"741 561 LINE",
"761 423 LINE",
"787 423 LINE",
"764 583 LINE",
"279 583 LINE",
"279 561 LINE",
"359 561 LINE",
"65 22 LINE",
"-10 22 LINE",
"-10 0 LINE"
);
},
{
closed = 1;
nodes = (
"385 558 LINE",
"388 558 LINE",
"431 256 LINE",
"435 264 LINE",
"218 264 LINE",
"222 256 LINE"
);
}
);
width = 901;
},
{
anchors = (
{
name = bottom;
position = "{490, 0}";
},
{
name = top;
position = "{544, 583}";
}
);
background = {
anchors = (
{
name = bottom;
position = "{490, 0}";
},
{
name = top;
position = "{553, 583}";
}
);
paths = (
{
closed = 1;
nodes = (
"1612 0 LINE",
"1612 120 LINE",
"1562 120 LINE",
"1599 200 LINE",
"1742 200 LINE",
"1747 120 LINE",
"1697 120 LINE",
"1697 0 LINE",
"2277 0 LINE",
"2262 224 LINE",
"2141 224 LINE",
"2149 121 LINE",
"1947 121 LINE",
"1940 242 LINE",
"2006 242 LINE",
"2011 187 LINE",
"2110 187 LINE",
"2092 407 LINE",
"1992 407 LINE",
"1997 352 LINE",
"1933 352 LINE",
"1927 463 LINE",
"2122 463 LINE",
"2131 372 LINE",
"2252 372 LINE",
"2236 583 LINE",
"1512 583 LINE",
"1512 463 LINE",
"1566 463 LINE",
"1383 120 LINE",
"1329 120 LINE",
"1329 0 LINE"
);
},
{
closed = 1;
nodes = (
"1722 463 LINE",
"1727 463 LINE",
"1736 310 LINE",
"1651 310 LINE"
);
},
{
closed = 1;
nodes = (
"1815 0 LINE",
"1785 215 LINE",
"1660 215 LINE",
"1673 120 LINE",
"1475 120 LINE",
"1459 235 LINE",
"1507 235 LINE",
"1514 185 LINE",
"1614 185 LINE",
"1584 400 LINE",
"1484 400 LINE",
"1490 355 LINE",
"1442 355 LINE",
"1427 463 LINE",
"1605 463 LINE",
"1618 373 LINE",
"1743 373 LINE",
"1713 583 LINE",
"1160 583 LINE",
"1177 463 LINE",
"1227 463 LINE",
"1275 120 LINE",
"1225 120 LINE",
"1242 0 LINE"
);
},
{
closed = 1;
nodes = (
"285 0 LINE",
"306 120 LINE",
"251 120 LINE",
"312 243 LINE",
"245 195 LINE",
"509 195 LINE",
"458 243 LINE",
"477 120 LINE",
"422 120 LINE",
"401 0 LINE",
"705 0 LINE",
"726 120 LINE",
"676 120 LINE",
"612 463 LINE",
"667 463 LINE",
"688 583 LINE",
"205 583 LINE",
"184 463 LINE",
"239 463 LINE",
"55 120 LINE",
"5 120 LINE",
"-16 0 LINE"
);
},
{
closed = 1;
nodes = (
"422 463 LINE",
"427 463 LINE",
"456 267 LINE",
"495 315 LINE",
"301 315 LINE",
"324 267 LINE"
);
}
);
};
layerId = "EFCDB4D9-E20B-4A8D-9DB5-150AD166B0AE";
paths = (
{
closed = 1;
nodes = (
"306 0 LINE",
"306 120 LINE",
"251 120 LINE",
"312 243 LINE",
"245 195 LINE",
"509 195 LINE",
"460 223 LINE",
"475 120 LINE",
"425 120 LINE",
"425 0 LINE",
"1010 0 LINE",
"980 215 LINE",
"855 215 LINE",
"868 120 LINE",
"670 120 LINE",
"654 235 LINE",
"702 235 LINE",
"709 185 LINE",
"809 185 LINE",
"779 400 LINE",
"679 400 LINE",
"685 355 LINE",
"637 355 LINE",
"622 463 LINE",
"800 463 LINE",
"813 373 LINE",
"938 373 LINE",
"908 583 LINE",
"179 583 LINE",
"179 463 LINE",
"234 463 LINE",
"50 120 LINE",
"0 120 LINE",
"0 0 LINE"
);
},
{
closed = 1;
nodes = (
"422 463 LINE",
"427 463 LINE",
"452 287 LINE",
"495 315 LINE",
"301 315 LINE",
"324 267 LINE"
);
}
);
width = 1020;
},
{
anchors = (
{
name = bottom;
position = "{485, 0}";
},
{
name = top;
position = "{580, 563}";
}
);
associatedMasterId = "98C086B7-81AA-4491-8494-0C6A76849168";
layerId = "3A8E2C18-C6E7-4F84-8776-CCAD202F53FB";
name = "Original Regular";
paths = (
{
closed = 1;
nodes = (
"252 0 LINE",
"252 53 LINE",
"184 53 LINE",
"271 205 LINE",
"476 205 LINE",
"485 53 LINE",
"409 53 LINE",
"409 0 LINE",
"912 0 LINE",
"902 179 LINE",
"840 179 LINE",
"848 53 LINE",
"566 53 LINE",
"554 259 LINE",
"732 259 LINE",
"738 191 LINE",
"779 191 LINE",
"767 381 LINE",
"727 381 LINE",
"731 315 LINE",
"553 315 LINE",
"541 510 LINE",
"813 510 LINE",
"822 385 LINE",
"884 385 LINE",
"875 563 LINE",
"317 563 LINE",
"317 510 LINE",
"378 510 LINE",
"98 53 LINE",
"22 53 LINE",
"22 0 LINE"
);
},
{
closed = 1;
nodes = (
"451 510 LINE",
"460 510 LINE",
"475 255 LINE",
"297 255 LINE"
);
}
);
width = 970;
},
{
anchors = (
{
name = bottom;
position = "{463, 0}";
},
{
name = top;
position = "{533, 583}";
}
);
background = {
paths = (
{
closed = 1;
nodes = (
"241 0 LINE",
"241 83 LINE",
"174 83 LINE",
"266 245 LINE",
"228 213 LINE",
"477 213 LINE",
"446 233 LINE",
"470 83 LINE",
"402 83 LINE",
"402 0 LINE",
"936 0 LINE",
"909 196 LINE",
"834 196 LINE",
"850 83 LINE",
"581 83 LINE",
"555 254 LINE",
"683 254 LINE",
"692 189 LINE",
"762 189 LINE",
"733 397 LINE",
"663 397 LINE",
"672 337 LINE",
"545 337 LINE",
"519 500 LINE",
"771 500 LINE",
"787 392 LINE",
"863 392 LINE",
"836 583 LINE",
"229 583 LINE",
"229 500 LINE",
"297 500 LINE",
"58 83 LINE",
"-5 83 LINE",
"-5 0 LINE"
);
},
{
closed = 1;
nodes = (
"404 499 LINE",
"408 499 LINE",
"442 275 LINE",
"465 291 LINE",
"260 291 LINE",
"273 263 LINE"
);
}
);
};
layerId = "086393EE-48A8-42B6-AE05-10B6A30445E6";
paths = (
{
closed = 1;
nodes = (
"241 0 LINE",
"241 83 LINE",
"174 83 LINE",
"266 245 LINE",
"228 213 LINE",
"477 213 LINE",
"446 233 LINE",
"470 83 LINE",
"402 83 LINE",
"402 0 LINE",
"936 0 LINE",
"909 196 LINE",
"833 196 LINE",
"849 83 LINE",
"581 83 LINE",
"555 254 LINE",
"683 254 LINE",
"692 189 LINE",
"762 189 LINE",
"733 397 LINE",
"663 397 LINE",
"672 337 LINE",
"545 337 LINE",
"519 500 LINE",
"771 500 LINE",
"787 392 LINE",
"863 392 LINE",
"836 583 LINE",
"229 583 LINE",
"229 500 LINE",
"297 500 LINE",
"58 83 LINE",
"-5 83 LINE",
"-5 0 LINE"
);
},
{
closed = 1;
nodes = (
"404 499 LINE",
"408 499 LINE",
"442 275 LINE",
"465 291 LINE",
"260 291 LINE",
"273 263 LINE"
);
}
);
width = 960.5;
}
);
leftKerningGroup = AE;
rightKerningGroup = AE;
unicode = 00C6;
userData = {
com.typemytype.robofont.layerData = {
b = {
anchors = (
);
components = (
);
contours = (
);
lib = {
};
name = AE;
unicodes = (
);
width = 2243;
};
};
org.robofab.postScriptHintData = {
};
};
},
{
color = 3;
glyphname = B;
layers = (
{
anchors = (
{
name = top;
position = "{289, 583}";
}
);
background = {
anchors = (
{
name = top;
position = "{265, 563}";
}
);
paths = (
{
closed = 1;
nodes = (
"1204 0 LINE SMOOTH",
"1300 0 OFFCURVE",
"1357 64 OFFCURVE",
"1357 154 CURVE SMOOTH",
"1357 217 OFFCURVE",
"1330 282 OFFCURVE",
"1238 298 CURVE",
"1291 308 OFFCURVE",
"1323 358 OFFCURVE",
"1323 426 CURVE SMOOTH",
"1323 517 OFFCURVE",
"1265 563 OFFCURVE",
"1158 563 CURVE SMOOTH",
"840 563 LINE",
"840 541 LINE",
"925 541 LINE",
"925 22 LINE",
"840 22 LINE",
"840 0 LINE"
);
},
{
closed = 1;
nodes = (
"955 285 LINE",
"1188 285 LINE SMOOTH",
"1285 285 OFFCURVE",
"1328 228 OFFCURVE",
"1328 155 CURVE SMOOTH",
"1328 75 OFFCURVE",
"1280 22 OFFCURVE",
"1202 22 CURVE SMOOTH",
"955 22 LINE"
);
},
{
closed = 1;
nodes = (
"955 541 LINE",
"1155 541 LINE",
"1246 541 OFFCURVE",
"1295 506 OFFCURVE",
"1295 425 CURVE SMOOTH",
"1295 357 OFFCURVE",
"1264 307 OFFCURVE",
"1186 307 CURVE SMOOTH",
"955 307 LINE"
);
},
{
closed = 1;
nodes = (
"240 0 LINE",
"240 22 LINE",
"155 22 LINE",
"155 286 LINE",
"535 286 LINE",
"535 22 LINE",
"450 22 LINE",
"450 0 LINE",
"650 0 LINE",
"650 22 LINE",
"565 22 LINE",
"565 561 LINE",
"650 561 LINE",
"650 583 LINE",
"450 583 LINE",
"450 561 LINE",
"535 561 LINE",
"535 308 LINE",
"155 308 LINE",
"155 561 LINE",
"240 561 LINE",
"240 583 LINE",
"40 583 LINE",
"40 561 LINE",
"125 561 LINE",
"125 22 LINE",
"40 22 LINE",
"40 0 LINE"
);
}
);
};
layerId = "98C086B7-81AA-4491-8494-0C6A76849168";
paths = (
{
closed = 1;
nodes = (
"401 0 LINE SMOOTH",
"510 0 OFFCURVE",
"570 58 OFFCURVE",
"570 159 CURVE SMOOTH",
"570 234 OFFCURVE",
"522 310 OFFCURVE",
"417 312 CURVE",
"423 306 LINE",
"479 309 OFFCURVE",
"537 359 OFFCURVE",
"537 441 CURVE SMOOTH",
"537 542 OFFCURVE",
"475 583 OFFCURVE",
"368 583 CURVE SMOOTH",
"40 583 LINE",
"40 561 LINE",
"125 561 LINE",
"125 22 LINE",
"40 22 LINE",
"40 0 LINE"
);
},
{
closed = 1;
nodes = (
"155 296 LINE",
"393 296 LINE SMOOTH",
"497 296 OFFCURVE",
"538 235 OFFCURVE",
"538 159 CURVE SMOOTH",
"538 76 OFFCURVE",
"497 22 OFFCURVE",
"393 22 CURVE SMOOTH",
"155 22 LINE"
);
},
{
closed = 1;
nodes = (
"155 561 LINE",
"363 561 LINE SMOOTH",
"463 561 OFFCURVE",
"505 524 OFFCURVE",
"505 440 CURVE SMOOTH",
"505 369 OFFCURVE",
"463 318 OFFCURVE",
"384 318 CURVE SMOOTH",
"155 318 LINE"
);
}
);
width = 630;
},
{
anchors = (
{
name = top;
position = "{328, 583}";
}
);
background = {
anchors = (
{
name = top;
position = "{328, 583}";
}
);
paths = (
{
closed = 1;
nodes = (
"1184 0 LINE SMOOTH",
"1347 0 OFFCURVE",
"1434 51 OFFCURVE",
"1434 166 CURVE SMOOTH",
"1434 244 OFFCURVE",
"1395 304 OFFCURVE",
"1283 321 CURVE",
"1368 337 OFFCURVE",
"1403 372 OFFCURVE",
"1403 442 CURVE SMOOTH",
"1403 523 OFFCURVE",
"1340 583 OFFCURVE",
"1184 583 CURVE SMOOTH",
"830 583 LINE",
"830 463 LINE",
"880 463 LINE",
"880 120 LINE",
"830 120 LINE",
"830 0 LINE"
);
},
{
closed = 1;
nodes = (
"1080 254 LINE",
"1143 254 LINE SMOOTH",
"1202 254 OFFCURVE",
"1226 231 OFFCURVE",
"1226 188 CURVE SMOOTH",
"1226 146 OFFCURVE",
"1202 121 OFFCURVE",
"1143 121 CURVE SMOOTH",
"1080 121 LINE"
);
},
{
closed = 1;
nodes = (
"1080 463 LINE",
"1137 463 LINE SMOOTH",
"1181 463 OFFCURVE",
"1200 445 OFFCURVE",
"1200 414 CURVE SMOOTH",
"1200 382 OFFCURVE",
"1180 364 OFFCURVE",
"1137 364 CURVE SMOOTH",
"1080 364 LINE"
);
},
{
closed = 1;
nodes = (
"330 0 LINE",
"330 120 LINE",
"280 120 LINE",
"280 233 LINE",
"446 233 LINE",
"446 120 LINE",
"396 120 LINE",
"396 0 LINE",
"696 0 LINE",
"696 120 LINE",
"646 120 LINE",
"646 463 LINE",
"696 463 LINE",
"696 583 LINE",
"396 583 LINE",
"396 463 LINE",
"446 463 LINE",
"446 357 LINE",
"280 357 LINE",
"280 463 LINE",
"330 463 LINE",
"330 583 LINE",
"30 583 LINE",
"30 463 LINE",
"80 463 LINE",
"80 120 LINE",
"30 120 LINE",
"30 0 LINE"
);
}
);
};
layerId = "EFCDB4D9-E20B-4A8D-9DB5-150AD166B0AE";
paths = (
{
closed = 1;
nodes = (
"429 0 LINE SMOOTH",
"577 0 OFFCURVE",
"649 52 OFFCURVE",
"649 160 CURVE SMOOTH",
"649 252 OFFCURVE",
"593 307 OFFCURVE",
"493 313 CURVE",
"497 305 LINE",
"572 317 OFFCURVE",
"621 360 OFFCURVE",
"621 437 CURVE SMOOTH",
"621 531 OFFCURVE",
"553 583 OFFCURVE",
"432 583 CURVE SMOOTH",
"30 583 LINE",
"30 463 LINE",
"80 463 LINE",
"80 120 LINE",
"30 120 LINE",
"30 0 LINE"
);
},
{
closed = 1;
nodes = (
"280 245 LINE",
"371 245 LINE SMOOTH",
"419 245 OFFCURVE",
"443 224 OFFCURVE",
"443 182 CURVE SMOOTH",
"443 140 OFFCURVE",
"419 120 OFFCURVE",
"371 120 CURVE SMOOTH",
"280 120 LINE"
);
},
{
closed = 1;
nodes = (
"280 463 LINE",
"357 463 LINE SMOOTH",
"397 463 OFFCURVE",
"415 447 OFFCURVE",
"415 414 CURVE SMOOTH",
"415 381 OFFCURVE",
"397 363 OFFCURVE",
"357 363 CURVE SMOOTH",
"280 363 LINE"
);
}
);
width = 671;
},
{
anchors = (
{
name = top;
position = "{255, 563}";
}
);
associatedMasterId = "98C086B7-81AA-4491-8494-0C6A76849168";
layerId = "A91DDE39-DEF5-433B-A81E-BDB407DA09A6";
name = "Original Regular";
paths = (
{
closed = 1;
nodes = (
"339 0 LINE SMOOTH",
"489 0 OFFCURVE",
"541 79 OFFCURVE",
"541 159 CURVE SMOOTH",
"541 227 OFFCURVE",
"502 281 OFFCURVE",
"426 300 CURVE",
"477 317 OFFCURVE",
"511 361 OFFCURVE",
"511 423 CURVE SMOOTH",
"511 515 OFFCURVE",
"443 563 OFFCURVE",
"318 563 CURVE SMOOTH",
"39 563 LINE",
"39 510 LINE",
"117 510 LINE",
"117 53 LINE",
"39 53 LINE",
"39 0 LINE"
);
},
{
closed = 1;
nodes = (
"199 268 LINE",
"322 268 LINE SMOOTH",
"415 268 OFFCURVE",
"458 225 OFFCURVE",
"458 162 CURVE SMOOTH",
"458 94 OFFCURVE",
"419 53 OFFCURVE",
"325 53 CURVE SMOOTH",
"199 53 LINE"
);
},
{
closed = 1;
nodes = (
"199 510 LINE",
"295 510 LINE",
"390 510 OFFCURVE",
"430 486 OFFCURVE",
"430 420 CURVE SMOOTH",
"430 360 OFFCURVE",
"396 323 OFFCURVE",
"313 323 CURVE SMOOTH",
"199 323 LINE"
);
}
);
width = 580;
},
{
anchors = (
{
name = top;
position = "{308, 583}";
}
);
background = {
anchors = (
{
name = top;
position = "{308, 583}";
}
);
paths = (
{
closed = 1;
nodes = (
"414 0 LINE SMOOTH",
"543 0 OFFCURVE",
"609 55 OFFCURVE",
"609 160 CURVE SMOOTH",
"609 243 OFFCURVE",
"557 309 OFFCURVE",
"454 313 CURVE",
"459 306 LINE",
"525 313 OFFCURVE",
"578 360 OFFCURVE",
"578 439 CURVE SMOOTH",
"578 537 OFFCURVE",
"513 583 OFFCURVE",
"399 583 CURVE SMOOTH",
"34 583 LINE",
"34 512 LINE",
"102 512 LINE",
"102 71 LINE",
"34 71 LINE",
"34 0 LINE"
);
},
{
closed = 1;
nodes = (
"217 271 LINE",
"381 271 LINE SMOOTH",
"457 271 OFFCURVE",
"490 230 OFFCURVE",
"490 171 CURVE SMOOTH",
"490 108 OFFCURVE",
"457 71 OFFCURVE",
"381 71 CURVE SMOOTH",
"217 71 LINE"
);
},
{
closed = 1;
nodes = (
"217 512 LINE",
"359 512 LINE SMOOTH",
"429 512 OFFCURVE",
"459 486 OFFCURVE",
"459 427 CURVE SMOOTH",
"459 375 OFFCURVE",
"429 341 OFFCURVE",
"370 341 CURVE SMOOTH",
"217 341 LINE"
);
}
);
};
layerId = "086393EE-48A8-42B6-AE05-10B6A30445E6";
paths = (
{
closed = 1;
nodes = (
"414 0 LINE SMOOTH",
"543 0 OFFCURVE",
"609 54 OFFCURVE",
"609 160 CURVE SMOOTH",
"609 245 OFFCURVE",
"557 308 OFFCURVE",
"454 313 CURVE",
"459 305 LINE",
"525 314 OFFCURVE",
"578 360 OFFCURVE",
"578 439 CURVE SMOOTH",
"578 535 OFFCURVE",
"513 583 OFFCURVE",
"399 583 CURVE SMOOTH",
"35 583 LINE",
"35 500 LINE",
"102 500 LINE",
"102 83 LINE",
"35 83 LINE",
"35 0 LINE"
);
},
{
closed = 1;
nodes = (
"217 262 LINE",
"381 262 LINE SMOOTH",
"457 262 OFFCURVE",
"490 228 OFFCURVE",
"490 173 CURVE SMOOTH",
"490 116 OFFCURVE",
"457 83 OFFCURVE",
"381 83 CURVE SMOOTH",
"217 83 LINE"
);
},
{
closed = 1;
nodes = (
"217 500 LINE",
"359 500 LINE SMOOTH",
"429 500 OFFCURVE",
"459 476 OFFCURVE",
"459 424 CURVE SMOOTH",
"459 377 OFFCURVE",
"429 347 OFFCURVE",
"370 347 CURVE SMOOTH",
"217 347 LINE"
);
}
);
width = 650;
}
);
leftKerningGroup = H;
leftMetricsKey = H;
rightKerningGroup = B;
unicode = 0042;
userData = {
com.typemytype.robofont.layerData = {
b = {
anchors = (
);
components = (
);
contours = (
{
points = (
{
segmentType = line;
smooth = 0;
x = 353;
y = 1095;
},
{
segmentType = line;
smooth = 1;
x = 740;
y = 1095;
},
{
smooth = 0;
x = 917;
y = 1095;
},
{
smooth = 0;
x = 1004;
y = 983;
},
{
segmentType = curve;
smooth = 1;
x = 1004;
y = 868;
},
{
smooth = 0;
x = 1004;
y = 751;
},
{
smooth = 0;
x = 928;
y = 634;
},
{
segmentType = curve;
smooth = 1;
x = 784;
y = 634;
},
{
segmentType = line;
smooth = 0;
x = 353;
y = 634;
}
);
},
{
points = (
{
segmentType = line;
smooth = 0;
x = 353;
y = 573;
},
{
segmentType = line;
smooth = 1;
x = 793;
y = 573;
},
{
smooth = 0;
x = 979;
y = 573;
},
{
smooth = 0;
x = 1072;
y = 439;
},
{
segmentType = curve;
smooth = 1;
x = 1072;
y = 320;
},
{
smooth = 0;
x = 1072;
y = 187;
},
{
smooth = 0;
x = 985;
y = 58;
},
{
segmentType = curve;
smooth = 1;
x = 807;
y = 58;
},
{
segmentType = line;
smooth = 0;
x = 353;
y = 58;
}
);
},
{
points = (
{
segmentType = line;
smooth = 1;
x = 807;
y = 0;
},
{
smooth = 0;
x = 1031;
y = 0;
},
{
smooth = 0;
x = 1146;
y = 158;
},
{
segmentType = curve;
smooth = 1;
x = 1146;
y = 316;
},
{
smooth = 0;
x = 1146;
y = 439;
},
{
smooth = 0;
x = 1074;
y = 568;
},
{
segmentType = curve;
smooth = 0;
x = 919;
y = 611;
},
{
smooth = 0;
x = 1029;
y = 669;
},
{
smooth = 0;
x = 1079;
y = 769;
},
{
segmentType = curve;
smooth = 1;
x = 1079;
y = 870;
},
{
smooth = 0;
x = 1079;
y = 1012;
},
{
smooth = 0;
x = 964;
y = 1154;
},
{
segmentType = curve;
smooth = 1;
x = 740;
y = 1154;
},
{
segmentType = line;
smooth = 0;
x = 122;
y = 1154;
},
{
segmentType = line;
smooth = 0;
x = 122;
y = 1095;
},
{
segmentType = line;
smooth = 0;
x = 278;
y = 1095;
},
{
segmentType = line;
smooth = 0;
x = 278;
y = 58;
},
{
segmentType = line;
smooth = 0;
x = 135;
y = 58;
},
{
segmentType = line;
smooth = 0;
x = 135;
y = 0;
}
);
}
);
lib = {
};
name = B;
unicodes = (
);
width = 1354;
};
};
org.robofab.postScriptHintData = {
};
};
},
{
color = 3;
glyphname = C;
layers = (
{
anchors = (
{
name = bottom;
position = "{360, 0}";
},
{
name = top;
position = "{353, 583}";
}
);
background = {
anchors = (
{
name = bottom;
position = "{340, 0}";
},
{
name = top;
position = "{342, 563}";
}
);
paths = (
{
closed = 1;
nodes = (
"534 -10 OFFCURVE",
"656 112 OFFCURVE",
"656 291 CURVE SMOOTH",
"656 468 OFFCURVE",
"534 594 OFFCURVE",
"353 594 CURVE SMOOTH",
"172 594 OFFCURVE",
"50 468 OFFCURVE",
"50 291 CURVE SMOOTH",
"50 112 OFFCURVE",
"172 -10 OFFCURVE",
"353 -10 CURVE SMOOTH"
);
},
{
closed = 1;
nodes = (
"190 15 OFFCURVE",
"82 124 OFFCURVE",
"82 290 CURVE SMOOTH",
"82 454 OFFCURVE",
"190 569 OFFCURVE",
"353 569 CURVE SMOOTH",
"516 569 OFFCURVE",
"624 454 OFFCURVE",
"624 290 CURVE SMOOTH",
"624 124 OFFCURVE",
"516 15 OFFCURVE",
"353 15 CURVE SMOOTH"
);
}
);
};
layerId = "98C086B7-81AA-4491-8494-0C6A76849168";
paths = (
{
closed = 1;
nodes = (
"475 -10 OFFCURVE",
"552 32 OFFCURVE",
"607 126 CURVE",
"583 140 LINE",
"534 53 OFFCURVE",
"467 15 OFFCURVE",
"360 15 CURVE SMOOTH",
"189 15 OFFCURVE",
"82 124 OFFCURVE",
"82 290 CURVE SMOOTH",
"82 454 OFFCURVE",
"191 569 OFFCURVE",
"353 569 CURVE SMOOTH",
"457 569 OFFCURVE",
"540 525 OFFCURVE",
"584 423 CURVE",
"607 423 LINE",
"607 583 LINE",
"581 583 LINE",
"581 445 LINE",
"593 445 LINE",
"556 537 OFFCURVE",
"472 594 OFFCURVE",
"353 594 CURVE SMOOTH",
"173 594 OFFCURVE",
"50 468 OFFCURVE",
"50 291 CURVE SMOOTH",
"50 112 OFFCURVE",
"171 -10 OFFCURVE",
"360 -10 CURVE SMOOTH"
);
}
);
width = 669;
},
{
anchors = (
{
name = bottom;
position = "{365, 0}";
},
{
name = top;
position = "{340, 583}";
}
);
background = {
anchors = (
{
name = bottom;
position = "{367, 0}";
},
{
name = top;
position = "{370, 583}";
}
);
paths = (
{
closed = 1;
nodes = (
"1451 -10 OFFCURVE",
"1558 84 OFFCURVE",
"1580 206 CURVE",
"1421 258 LINE",
"1405 173 OFFCURVE",
"1362 126 OFFCURVE",
"1281 126 CURVE SMOOTH",
"1193 126 OFFCURVE",
"1137 192 OFFCURVE",
"1137 293 CURVE SMOOTH",
"1137 394 OFFCURVE",
"1197 457 OFFCURVE",
"1299 457 CURVE SMOOTH",
"1373 457 OFFCURVE",
"1421 424 OFFCURVE",
"1453 365 CURVE",
"1563 365 LINE",
"1563 583 LINE",
"1433 583 LINE",
"1433 478 LINE",
"1479 438 LINE",
"1459 531 OFFCURVE",
"1375 593 OFFCURVE",
"1243 593 CURVE SMOOTH",
"1065 593 OFFCURVE",
"929 480 OFFCURVE",
"929 290 CURVE SMOOTH",
"929 100 OFFCURVE",
"1076 -10 OFFCURVE",
"1269 -10 CURVE SMOOTH"
);
},
{
closed = 1;
nodes = (
"569 -10 OFFCURVE",
"701 110 OFFCURVE",
"701 292 CURVE SMOOTH",
"701 474 OFFCURVE",
"569 594 OFFCURVE",
"365 594 CURVE SMOOTH",
"161 594 OFFCURVE",
"29 474 OFFCURVE",
"29 292 CURVE SMOOTH",
"29 110 OFFCURVE",
"161 -10 OFFCURVE",
"365 -10 CURVE SMOOTH"
);
},
{
closed = 1;
nodes = (
"284 130 OFFCURVE",
"235 189 OFFCURVE",
"235 292 CURVE SMOOTH",
"235 395 OFFCURVE",
"284 454 OFFCURVE",
"365 454 CURVE SMOOTH",
"446 454 OFFCURVE",
"495 395 OFFCURVE",
"495 292 CURVE SMOOTH",
"495 189 OFFCURVE",
"446 130 OFFCURVE",
"365 130 CURVE SMOOTH"
);
}
);
};
layerId = "EFCDB4D9-E20B-4A8D-9DB5-150AD166B0AE";
paths = (
{
closed = 1;
nodes = (
"516 -10 OFFCURVE",
"623 66 OFFCURVE",
"657 196 CURVE",
"511 256 LINE",
"485 169 OFFCURVE",
"440 130 OFFCURVE",
"369 130 CURVE SMOOTH",
"282 130 OFFCURVE",
"235 189 OFFCURVE",
"235 292 CURVE SMOOTH",
"235 392 OFFCURVE",
"291 454 OFFCURVE",
"379 454 CURVE SMOOTH",
"443 454 OFFCURVE",
"489 424 OFFCURVE",
"516 363 CURVE",
"641 363 LINE",
"641 583 LINE",
"511 583 LINE",
"511 478 LINE",
"557 448 LINE",
"522 546 OFFCURVE",
"446 594 OFFCURVE",
"332 594 CURVE SMOOTH",
"159 594 OFFCURVE",
"29 474 OFFCURVE",
"29 290 CURVE SMOOTH",
"29 110 OFFCURVE",
"153 -10 OFFCURVE",
"361 -10 CURVE SMOOTH"
);
}
);
width = 676;
},
{
anchors = (
{
name = bottom;
position = "{337, 0}";
},
{
name = top;
position = "{349, 563}";
}
);
associatedMasterId = "98C086B7-81AA-4491-8494-0C6A76849168";
layerId = "5C613798-B8F6-477B-9A35-0C47D92F54C7";
name = "Original Regular";
paths = (
{
closed = 1;
nodes = (
"458 -10 OFFCURVE",
"560 30 OFFCURVE",
"608 152 CURVE",
"548 182 LINE",
"514 85 OFFCURVE",
"433 49 OFFCURVE",
"349 49 CURVE SMOOTH",
"224 49 OFFCURVE",
"131 141 OFFCURVE",
"131 283 CURVE SMOOTH",
"131 412 OFFCURVE",
"215 513 OFFCURVE",
"349 513 CURVE SMOOTH",
"438 513 OFFCURVE",
"500 477 OFFCURVE",
"542 391 CURVE",
"596 393 LINE",
"596 563 LINE",
"536 563 LINE",
"536 441 LINE",
"558 441 LINE",
"532 519 OFFCURVE",
"453 573 OFFCURVE",
"345 573 CURVE SMOOTH",
"165 573 OFFCURVE",
"49 450 OFFCURVE",
"49 282 CURVE SMOOTH",
"49 109 OFFCURVE",
"168 -10 OFFCURVE",
"344 -11 CURVE SMOOTH"
);
}
);
width = 665;
},
{
anchors = (
{
name = bottom;
position = "{363, 0}";
},
{
name = top;
position = "{347, 583}";
}
);
background = {
anchors = (
{
name = bottom;
position = "{363, 0}";
},
{
name = top;
position = "{347, 583}";
}
);
paths = (
{
closed = 1;
nodes = (
"1396 -10 OFFCURVE",
"1488 49 OFFCURVE",
"1532 161 CURVE",
"1447 198 LINE",
"1410 111 OFFCURVE",
"1354 72 OFFCURVE",
"1265 72 CURVE SMOOTH",
"1136 72 OFFCURVE",
"1059 157 OFFCURVE",
"1059 291 CURVE SMOOTH",
"1059 423 OFFCURVE",
"1141 512 OFFCURVE",
"1266 512 CURVE SMOOTH",
"1350 512 OFFCURVE",
"1415 475 OFFCURVE",
"1450 393 CURVE",
"1524 393 LINE",
"1524 583 LINE",
"1446 583 LINE",
"1446 462 LINE",
"1475 447 LINE",
"1439 542 OFFCURVE",
"1359 594 OFFCURVE",
"1243 594 CURVE SMOOTH",
"1066 594 OFFCURVE",
"940 471 OFFCURVE",
"940 291 CURVE SMOOTH",
"940 111 OFFCURVE",
"1062 -10 OFFCURVE",
"1261 -10 CURVE SMOOTH"
);
},
{
closed = 1;
nodes = (
"552 -10 OFFCURVE",
"679 117 OFFCURVE",
"679 292 CURVE SMOOTH",
"679 467 OFFCURVE",
"552 594 OFFCURVE",
"359 594 CURVE SMOOTH",
"166 594 OFFCURVE",
"40 467 OFFCURVE",
"40 292 CURVE SMOOTH",
"40 117 OFFCURVE",
"166 -10 OFFCURVE",
"359 -10 CURVE SMOOTH"
);
},
{
closed = 1;
nodes = (
"237 89 OFFCURVE",
"159 168 OFFCURVE",
"159 291 CURVE SMOOTH",
"159 414 OFFCURVE",
"237 495 OFFCURVE",
"359 495 CURVE SMOOTH",
"481 495 OFFCURVE",
"560 414 OFFCURVE",
"560 291 CURVE SMOOTH",
"560 168 OFFCURVE",
"481 89 OFFCURVE",
"359 89 CURVE SMOOTH"
);
}
);
};
layerId = "086393EE-48A8-42B6-AE05-10B6A30445E6";
paths = (
{
closed = 1;
nodes = (
"496 -10 OFFCURVE",
"588 53 OFFCURVE",
"632 169 CURVE",
"543 214 LINE",
"506 125 OFFCURVE",
"444 87 OFFCURVE",
"359 87 CURVE SMOOTH",
"237 87 OFFCURVE",
"159 168 OFFCURVE",
"159 291 CURVE SMOOTH",
"159 414 OFFCURVE",
"237 497 OFFCURVE",
"365 497 CURVE SMOOTH",
"443 497 OFFCURVE",
"515 462 OFFCURVE",
"550 386 CURVE",
"624 386 LINE",
"624 583 LINE",
"546 583 LINE",
"546 466 LINE",
"575 447 LINE",
"543 547 OFFCURVE",
"459 594 OFFCURVE",
"343 594 CURVE SMOOTH",
"166 594 OFFCURVE",
"40 467 OFFCURVE",
"40 290 CURVE SMOOTH",
"40 117 OFFCURVE",
"166 -10 OFFCURVE",
"358 -10 CURVE SMOOTH"
);
}
);
width = 672.5;
}
);
leftKerningGroup = O;
leftMetricsKey = O;
rightKerningGroup = C;
unicode = 0043;
userData = {
com.typemytype.robofont.layerData = {
b = {
anchors = (
);
components = (
);
contours = (
);
lib = {
};
name = C;
unicodes = (
);
width = 1411;
};
};
org.robofab.postScriptHintData = {
};
};
},
{
color = 3;
glyphname = D;
layers = (
{
anchors = (
{
name = bottom;
position = "{346, 0}";
},
{
name = top;
position = "{346, 583}";
}
);
background = {
anchors = (
{
name = bottom;
position = "{355, 0}";
},
{
name = top;
position = "{356, 563}";
}
);
paths = (
{
closed = 1;
nodes = (
"1278 0 LINE SMOOTH",
"1438 0 OFFCURVE",
"1517 152 OFFCURVE",
"1517 280 CURVE SMOOTH",
"1517 405 OFFCURVE",
"1442 563 OFFCURVE",
"1275 563 CURVE SMOOTH",
"940 563 LINE",
"940 541 LINE",
"1025 541 LINE",
"1025 22 LINE",
"940 22 LINE",
"940 0 LINE"
);
},
{
closed = 1;
nodes = (
"1055 541 LINE",
"1276 541 LINE SMOOTH",
"1417 541 OFFCURVE",
"1488 401 OFFCURVE",
"1488 279 CURVE SMOOTH",
"1488 156 OFFCURVE",
"1417 22 OFFCURVE",
"1273 22 CURVE SMOOTH",
"1055 22 LINE"
);
},
{
closed = 1;
nodes = (
"240 0 LINE",
"240 22 LINE",
"155 22 LINE",
"155 286 LINE",
"535 286 LINE",
"535 22 LINE",
"450 22 LINE",
"450 0 LINE",
"650 0 LINE",
"650 22 LINE",
"565 22 LINE",
"565 561 LINE",
"650 561 LINE",
"650 583 LINE",
"450 583 LINE",
"450 561 LINE",
"535 561 LINE",
"535 308 LINE",
"155 308 LINE",
"155 561 LINE",
"240 561 LINE",
"240 583 LINE",
"40 583 LINE",
"40 561 LINE",
"125 561 LINE",
"125 22 LINE",
"40 22 LINE",
"40 0 LINE"
);
}
);
};
layerId = "98C086B7-81AA-4491-8494-0C6A76849168";
paths = (
{
closed = 1;
nodes = (
"328 0 LINE SMOOTH",
"558 0 OFFCURVE",
"637 126 OFFCURVE",
"637 290 CURVE SMOOTH",
"637 456 OFFCURVE",
"557 583 OFFCURVE",
"325 583 CURVE SMOOTH",
"40 583 LINE",
"40 561 LINE",
"125 561 LINE",
"125 22 LINE",
"40 22 LINE",
"40 0 LINE"
);
},
{
closed = 1;
nodes = (
"155 561 LINE",
"323 561 LINE SMOOTH",
"538 561 OFFCURVE",
"605 443 OFFCURVE",
"605 289 CURVE SMOOTH",
"605 136 OFFCURVE",
"542 22 OFFCURVE",
"323 22 CURVE SMOOTH",
"155 22 LINE"
);
}
);
width = 687;
},
{
anchors = (
{
name = bottom;
position = "{355, 0}";
},
{
name = top;
position = "{363, 583}";
}
);
background = {
anchors = (
{
name = bottom;
position = "{365, 0}";
},
{
name = top;
position = "{373, 583}";
}
);
paths = (
{
closed = 1;
nodes = (
"1396 0 LINE SMOOTH",
"1604 0 OFFCURVE",
"1707 117 OFFCURVE",
"1707 293 CURVE SMOOTH",
"1707 459 OFFCURVE",
"1603 583 OFFCURVE",
"1396 583 CURVE SMOOTH",
"1040 583 LINE",
"1040 463 LINE",
"1090 463 LINE",
"1090 120 LINE",
"1040 120 LINE",
"1040 0 LINE"
);
},
{
closed = 1;
nodes = (
"1290 463 LINE",
"1358 463 LINE SMOOTH",
"1459 463 OFFCURVE",
"1499 404 OFFCURVE",
"1499 293 CURVE SMOOTH",
"1499 180 OFFCURVE",
"1458 120 OFFCURVE",
"1358 120 CURVE SMOOTH",
"1290 120 LINE"
);
},
{
closed = 1;
nodes = (
"330 0 LINE",
"330 120 LINE",
"280 120 LINE",
"280 233 LINE",
"446 233 LINE",
"446 120 LINE",
"396 120 LINE",
"396 0 LINE",
"696 0 LINE",
"696 120 LINE",
"646 120 LINE",
"646 463 LINE",
"696 463 LINE",
"696 583 LINE",
"396 583 LINE",
"396 463 LINE",
"446 463 LINE",
"446 357 LINE",
"280 357 LINE",
"280 463 LINE",
"330 463 LINE",
"330 583 LINE",
"30 583 LINE",
"30 463 LINE",
"80 463 LINE",
"80 120 LINE",
"30 120 LINE",
"30 0 LINE"
);
}
);
};
layerId = "EFCDB4D9-E20B-4A8D-9DB5-150AD166B0AE";
paths = (
{
closed = 1;
nodes = (
"373 0 LINE SMOOTH",
"590 0 OFFCURVE",
"704 107 OFFCURVE",
"704 293 CURVE SMOOTH",
"704 473 OFFCURVE",
"586 583 OFFCURVE",
"373 583 CURVE SMOOTH",
"30 583 LINE",
"30 463 LINE",
"80 463 LINE",
"80 120 LINE",
"30 120 LINE",
"30 0 LINE"
);
},
{
closed = 1;
nodes = (
"280 463 LINE",
"355 463 LINE SMOOTH",
"452 463 OFFCURVE",
"498 409 OFFCURVE",
"498 293 CURVE SMOOTH",
"498 176 OFFCURVE",
"452 120 OFFCURVE",
"355 120 CURVE SMOOTH",
"280 120 LINE"
);
}
);
width = 733;
},
{
anchors = (
{
name = bottom;
position = "{375, 0}";
},
{
name = top;
position = "{372, 563}";
}
);
associatedMasterId = "98C086B7-81AA-4491-8494-0C6A76849168";
layerId = "91E72B50-D496-45BA-B127-A610C2A394E1";
name = "Original Regular";
paths = (
{
closed = 1;
nodes = (
"347 0 LINE SMOOTH",
"539 0 OFFCURVE",
"635 121 OFFCURVE",
"635 287 CURVE SMOOTH",
"635 424 OFFCURVE",
"542 563 OFFCURVE",
"346 563 CURVE SMOOTH",
"40 563 LINE",
"40 510 LINE",
"118 510 LINE",
"118 53 LINE",
"40 53 LINE",
"40 0 LINE"
);
},
{
closed = 1;
nodes = (
"200 510 LINE",
"342 510 LINE SMOOTH",
"487 510 OFFCURVE",
"551 399 OFFCURVE",
"551 285 CURVE SMOOTH",
"551 156 OFFCURVE",
"489 53 OFFCURVE",
"339 53 CURVE SMOOTH",
"200 53 LINE"
);
}
);
width = 684;
},
{
anchors = (
{
name = bottom;
position = "{350, 0}";
},
{
name = top;
position = "{354, 583}";
}
);
background = {
anchors = (
{
name = bottom;
position = "{350, 0}";
},
{
name = top;
position = "{354, 583}";
}
);
paths = (
{
closed = 1;
nodes = (
"350 0 LINE SMOOTH",
"573 0 OFFCURVE",
"670 117 OFFCURVE",
"670 292 CURVE SMOOTH",
"670 465 OFFCURVE",
"571 583 OFFCURVE",
"348 583 CURVE SMOOTH",
"34 583 LINE",
"34 512 LINE",
"102 512 LINE",
"102 71 LINE",
"34 71 LINE",
"34 0 LINE"
);
},
{
closed = 1;
nodes = (
"217 512 LINE",
"338 512 LINE SMOOTH",
"494 512 OFFCURVE",
"551 426 OFFCURVE",
"551 291 CURVE SMOOTH",
"551 156 OFFCURVE",
"496 71 OFFCURVE",
"338 71 CURVE SMOOTH",
"217 71 LINE"
);
}
);
};
layerId = "086393EE-48A8-42B6-AE05-10B6A30445E6";
paths = (
{
closed = 1;
nodes = (
"350 0 LINE SMOOTH",
"573 0 OFFCURVE",
"670 114 OFFCURVE",
"670 292 CURVE SMOOTH",
"670 467 OFFCURVE",
"571 583 OFFCURVE",
"348 583 CURVE SMOOTH",
"35 583 LINE",
"35 500 LINE",
"102 500 LINE",
"102 83 LINE",
"35 83 LINE",
"35 0 LINE"
);
},
{
closed = 1;
nodes = (
"217 500 LINE",
"338 500 LINE SMOOTH",
"494 500 OFFCURVE",
"551 422 OFFCURVE",
"551 292 CURVE SMOOTH",
"551 161 OFFCURVE",
"496 83 OFFCURVE",
"338 83 CURVE SMOOTH",
"217 83 LINE"
);
}
);
width = 710;
}
);
leftKerningGroup = H;
leftMetricsKey = H;
rightKerningGroup = O;
rightMetricsKey = O;
unicode = 0044;
userData = {
com.typemytype.robofont.layerData = {
b = {
anchors = (
);
components = (
);
contours = (
);
lib = {
};
name = D;
unicodes = (
);
width = 1434;
};
};
org.robofab.postScriptHintData = {
};
};
},
{
color = 3;
glyphname = E;
layers = (
{
anchors = (
{
name = bottom;
position = "{311, 0}";
},
{
name = ogonek;
position = "{471, 0}";
},
{
name = top;
position = "{303, 583}";
}
);
background = {
anchors = (
{
name = bottom;
position = "{318, 0}";
},
{
name = ogonek;
position = "{471, 0}";
},
{
name = top;
position = "{307, 563}";
}
);
paths = (
{
closed = 1;
nodes = (
"1311 0 LINE",
"1311 163 LINE",
"1285 163 LINE",
"1285 22 LINE",
"955 22 LINE",
"955 276 LINE",
"1161 276 LINE",
"1161 187 LINE",
"1183 187 LINE",
"1183 381 LINE",
"1160 381 LINE",
"1160 298 LINE",
"955 298 LINE",
"955 541 LINE",
"1273 541 LINE",
"1273 402 LINE",
"1299 402 LINE",
"1299 563 LINE",
"840 563 LINE",
"840 541 LINE",
"925 541 LINE",
"925 22 LINE",
"840 22 LINE",
"840 0 LINE"
);
},
{
closed = 1;
nodes = (
"240 0 LINE",
"240 22 LINE",
"155 22 LINE",
"155 286 LINE",
"535 286 LINE",
"535 22 LINE",
"450 22 LINE",
"450 0 LINE",
"650 0 LINE",
"650 22 LINE",
"565 22 LINE",
"565 561 LINE",
"650 561 LINE",
"650 583 LINE",
"450 583 LINE",
"450 561 LINE",
"535 561 LINE",
"535 308 LINE",
"155 308 LINE",
"155 561 LINE",
"240 561 LINE",
"240 583 LINE",
"40 583 LINE",
"40 561 LINE",
"125 561 LINE",
"125 22 LINE",
"40 22 LINE",
"40 0 LINE"
);
}
);
};
layerId = "98C086B7-81AA-4491-8494-0C6A76849168";
paths = (
{
closed = 1;
nodes = (
"521 0 LINE",
"521 165 LINE",
"495 165 LINE",
"495 22 LINE",
"155 22 LINE",
"155 286 LINE",
"371 286 LINE",
"371 196 LINE",
"396 196 LINE",
"396 393 LINE",
"370 393 LINE",
"370 308 LINE",
"155 308 LINE",
"155 561 LINE",
"480 561 LINE",
"480 423 LINE",
"506 423 LINE",
"506 583 LINE",
"40 583 LINE",
"40 561 LINE",
"125 561 LINE",
"125 22 LINE",
"40 22 LINE",
"40 0 LINE"
);
}
);
width = 578;
},
{
anchors = (
{
name = bottom;
position = "{317, 0}";
},
{
name = ogonek;
position = "{534, 0}";
},
{
name = top;
position = "{337, 583}";
}
);
background = {
anchors = (
{
name = bottom;
position = "{316, 0}";
},
{
name = ogonek;
position = "{532, 0}";
},
{
name = top;
position = "{336, 583}";
}
);
paths = (
{
closed = 1;
nodes = (
"1501 0 LINE",
"1501 224 LINE",
"1381 224 LINE",
"1381 121 LINE",
"1181 121 LINE",
"1181 242 LINE",
"1241 242 LINE",
"1241 187 LINE",
"1340 187 LINE",
"1340 407 LINE",
"1240 407 LINE",
"1240 352 LINE",
"1181 352 LINE",
"1181 463 LINE",
"1377 463 LINE",
"1377 372 LINE",
"1497 372 LINE",
"1497 583 LINE",
"930 583 LINE",
"930 463 LINE",
"980 463 LINE",
"980 120 LINE",
"930 120 LINE",
"930 0 LINE"
);
},
{
closed = 1;
nodes = (
"330 0 LINE",
"330 120 LINE",
"280 120 LINE",
"280 233 LINE",
"446 233 LINE",
"446 120 LINE",
"396 120 LINE",
"396 0 LINE",
"696 0 LINE",
"696 120 LINE",
"646 120 LINE",
"646 463 LINE",
"696 463 LINE",
"696 583 LINE",
"396 583 LINE",
"396 463 LINE",
"446 463 LINE",
"446 357 LINE",
"280 357 LINE",
"280 463 LINE",
"330 463 LINE",
"330 583 LINE",
"30 583 LINE",
"30 463 LINE",
"80 463 LINE",
"80 120 LINE",
"30 120 LINE",
"30 0 LINE"
);
}
);
};
layerId = "EFCDB4D9-E20B-4A8D-9DB5-150AD166B0AE";
paths = (
{
closed = 1;
nodes = (
"603 0 LINE",
"603 215 LINE",
"478 215 LINE",
"478 120 LINE",
"280 120 LINE",
"280 235 LINE",
"328 235 LINE",
"328 185 LINE",
"428 185 LINE",
"428 400 LINE",
"328 400 LINE",
"328 355 LINE",
"280 355 LINE",
"280 463 LINE",
"458 463 LINE",
"458 373 LINE",
"583 373 LINE",
"583 583 LINE",
"30 583 LINE",
"30 463 LINE",
"80 463 LINE",
"80 120 LINE",
"30 120 LINE",
"30 0 LINE"
);
}
);
width = 619;
},
{
anchors = (
{
name = bottom;
position = "{327, 0}";
},
{
name = ogonek;
position = "{474, 0}";
},
{
name = top;
position = "{310, 563}";
}
);
associatedMasterId = "98C086B7-81AA-4491-8494-0C6A76849168";
layerId = "9EEB2C1A-797D-4FB3-8155-69A4852E2A17";
name = "Original Regular";
paths = (
{
closed = 1;
nodes = (
"534 0 LINE",
"534 170 LINE",
"471 170 LINE",
"471 53 LINE",
"199 53 LINE",
"199 264 LINE",
"374 264 LINE",
"374 197 LINE",
"415 197 LINE",
"415 385 LINE",
"374 385 LINE",
"374 319 LINE",
"199 319 LINE",
"199 510 LINE",
"466 510 LINE",
"466 396 LINE",
"529 396 LINE",
"529 563 LINE",
"39 563 LINE",
"39 510 LINE",
"117 510 LINE",
"117 53 LINE",
"39 53 LINE",
"39 0 LINE"
);
}
);
width = 582;
},
{
anchors = (
{
name = bottom;
position = "{313, 0}";
},
{
name = ogonek;
position = "{502, 0}";
},
{
name = top;
position = "{319, 583}";
}
);
background = {
anchors = (
{
name = bottom;
position = "{313, 0}";
},
{
name = ogonek;
position = "{502, 0}";
},
{
name = top;
position = "{319, 583}";
}
);
paths = (
{
closed = 1;
nodes = (
"561 0 LINE",
"561 190 LINE",
"486 190 LINE",
"486 71 LINE",
"217 71 LINE",
"217 261 LINE",
"349 261 LINE",
"349 191 LINE",
"411 191 LINE",
"411 397 LINE",
"348 397 LINE",
"348 332 LINE",
"217 332 LINE",
"217 512 LINE",
"468 512 LINE",
"468 398 LINE",
"544 398 LINE",
"544 583 LINE",
"34 583 LINE",
"34 512 LINE",
"102 512 LINE",
"102 71 LINE",
"34 71 LINE",
"34 0 LINE"
);
}
);
};
layerId = "086393EE-48A8-42B6-AE05-10B6A30445E6";
paths = (
{
closed = 1;
nodes = (
"561 0 LINE",
"561 196 LINE",
"485 196 LINE",
"485 83 LINE",
"217 83 LINE",
"217 254 LINE",
"344 254 LINE",
"344 189 LINE",
"414 189 LINE",
"414 397 LINE",
"344 397 LINE",
"344 337 LINE",
"217 337 LINE",
"217 500 LINE",
"468 500 LINE",
"468 392 LINE",
"544 392 LINE",
"544 583 LINE",
"35 583 LINE",
"35 500 LINE",
"102 500 LINE",
"102 83 LINE",
"35 83 LINE",
"35 0 LINE"
);
}
);
width = 598;
}
);
leftKerningGroup = H;
leftMetricsKey = H;
rightKerningGroup = E;
unicode = 0045;
userData = {
com.typemytype.robofont.layerData = {
b = {
anchors = (
);
components = (
);
contours = (
);
lib = {
};
name = E;
unicodes = (
);
width = 1227;
};
};
org.robofab.postScriptHintData = {
};
};
},
{
color = 3;
glyphname = Eth;
layers = (
{
background = {
components = (
{
name = D;
},
{
name = hyphen;
transform = "{1, 0, 0, 1, -29, 34}";
}
);
};
layerId = "98C086B7-81AA-4491-8494-0C6A76849168";
paths = (
{
closed = 1;
nodes = (
"125 286 LINE",
"125 22 LINE",
"40 22 LINE",
"40 0 LINE",
"328 0 LINE SMOOTH",
"558 0 OFFCURVE",
"637 126 OFFCURVE",
"637 290 CURVE SMOOTH",
"637 456 OFFCURVE",
"557 583 OFFCURVE",
"325 583 CURVE SMOOTH",
"40 583 LINE",
"40 561 LINE",
"125 561 LINE",
"125 308 LINE",
"40 308 LINE",
"40 286 LINE"
);
},
{
closed = 1;
nodes = (
"155 286 LINE",
"295 286 LINE",
"295 308 LINE",
"155 308 LINE",
"155 561 LINE",
"323 561 LINE SMOOTH",
"538 561 OFFCURVE",
"605 443 OFFCURVE",
"605 289 CURVE SMOOTH",
"605 136 OFFCURVE",
"542 22 OFFCURVE",
"323 22 CURVE SMOOTH",
"155 22 LINE"
);
}
);
width = 687;
},
{
background = {
components = (
{
alignment = -1;
name = D;
},
{
alignment = -1;
name = hyphen;
transform = "{1, 0, 0, 1, 0, 56}";
}
);
};
layerId = "EFCDB4D9-E20B-4A8D-9DB5-150AD166B0AE";
paths = (
{
closed = 1;
nodes = (
"80 240 LINE",
"80 120 LINE",
"30 120 LINE",
"30 0 LINE",
"373 0 LINE SMOOTH",
"590 0 OFFCURVE",
"704 107 OFFCURVE",
"704 293 CURVE SMOOTH",
"704 473 OFFCURVE",
"586 583 OFFCURVE",
"373 583 CURVE SMOOTH",
"30 583 LINE",
"30 463 LINE",
"80 463 LINE",
"80 350 LINE",
"30 350 LINE",
"30 240 LINE"
);
},
{
closed = 1;
nodes = (
"280 240 LINE",
"410 240 LINE",
"410 350 LINE",
"280 350 LINE",
"280 463 LINE",
"355 463 LINE SMOOTH",
"452 463 OFFCURVE",
"498 409 OFFCURVE",
"498 293 CURVE SMOOTH",
"498 176 OFFCURVE",
"452 120 OFFCURVE",
"355 120 CURVE SMOOTH",
"280 120 LINE"
);
}
);
width = 733;
},
{
associatedMasterId = "98C086B7-81AA-4491-8494-0C6A76849168";
components = (
{
name = D;
},
{
name = hyphen;
transform = "{1, 0, 0, 1, -14, 55}";
}
);
layerId = "FE6F75BE-BA8E-4612-82C9-B5719FDC318C";
name = "Original Regular";
width = 687;
},
{
background = {
paths = (
{
closed = 1;
nodes = (
"102 263 LINE",
"102 71 LINE",
"34 71 LINE",
"34 0 LINE",
"350 0 LINE SMOOTH",
"573 0 OFFCURVE",
"670 117 OFFCURVE",
"670 292 CURVE SMOOTH",
"670 465 OFFCURVE",
"571 583 OFFCURVE",
"348 583 CURVE SMOOTH",
"34 583 LINE",
"34 512 LINE",
"102 512 LINE",
"102 329 LINE",
"34 329 LINE",
"34 263 LINE"
);
},
{
closed = 1;
nodes = (
"217 263 LINE",
"352 263 LINE",
"352 329 LINE",
"217 329 LINE",
"217 512 LINE",
"338 512 LINE SMOOTH",
"494 512 OFFCURVE",
"551 426 OFFCURVE",
"551 291 CURVE SMOOTH",
"551 156 OFFCURVE",
"496 71 OFFCURVE",
"338 71 CURVE SMOOTH",
"217 71 LINE"
);
}
);
};
layerId = "086393EE-48A8-42B6-AE05-10B6A30445E6";
paths = (
{
closed = 1;
nodes = (
"102 257 LINE",
"102 83 LINE",
"35 83 LINE",
"35 0 LINE",
"350 0 LINE SMOOTH",
"573 0 OFFCURVE",
"670 114 OFFCURVE",
"670 292 CURVE SMOOTH",
"670 467 OFFCURVE",
"571 583 OFFCURVE",
"348 583 CURVE SMOOTH",
"35 583 LINE",
"35 500 LINE",
"102 500 LINE",
"102 334 LINE",
"35 334 LINE",
"35 257 LINE"
);
},
{
closed = 1;
nodes = (
"217 257 LINE",
"352 257 LINE",
"352 334 LINE",
"217 334 LINE",
"217 500 LINE",
"338 500 LINE SMOOTH",
"494 500 OFFCURVE",
"551 422 OFFCURVE",
"551 292 CURVE SMOOTH",
"551 161 OFFCURVE",
"496 83 OFFCURVE",
"338 83 CURVE SMOOTH",
"217 83 LINE"
);
}
);
width = 710;
}
);
leftKerningGroup = H;
leftMetricsKey = H;
rightKerningGroup = O;
rightMetricsKey = O;
unicode = 00D0;
userData = {
com.typemytype.robofont.layerData = {
b = {
anchors = (
);
components = (
);
contours = (
);
lib = {
};
name = Eth;
unicodes = (
);
width = 1434;
};
};
org.robofab.postScriptHintData = {
};
};
},
{
color = 3;
glyphname = F;
layers = (
{
anchors = (
{
name = top;
position = "{299, 583}";
}
);
background = {
anchors = (
{
name = top;
position = "{294, 563}";
}
);
paths = (
{
closed = 1;
nodes = (
"1040 0 LINE",
"1040 22 LINE",
"955 22 LINE",
"955 278 LINE",
"1161 278 LINE",
"1161 191 LINE",
"1182 191 LINE",
"1182 377 LINE",
"1161 377 LINE",
"1161 301 LINE",
"955 301 LINE",
"955 541 LINE",
"1280 541 LINE",
"1280 389 LINE",
"1304 389 LINE",
"1304 563 LINE",
"840 563 LINE",
"840 541 LINE",
"925 541 LINE",
"925 22 LINE",
"840 22 LINE",
"840 0 LINE"
);
},
{
closed = 1;
nodes = (
"521 0 LINE",
"521 165 LINE",
"495 165 LINE",
"495 22 LINE",
"155 22 LINE",
"155 286 LINE",
"371 286 LINE",
"371 196 LINE",
"396 196 LINE",
"396 393 LINE",
"370 393 LINE",
"370 308 LINE",
"155 308 LINE",
"155 561 LINE",
"480 561 LINE",
"480 423 LINE",
"506 423 LINE",
"506 583 LINE",
"40 583 LINE",
"40 561 LINE",
"125 561 LINE",
"125 22 LINE",
"40 22 LINE",
"40 0 LINE"
);
}
);
};
layerId = "98C086B7-81AA-4491-8494-0C6A76849168";
paths = (
{
closed = 1;
nodes = (
"260 0 LINE",
"260 22 LINE",
"155 22 LINE",
"155 291 LINE",
"370 291 LINE",
"370 201 LINE",
"396 201 LINE",
"396 399 LINE",
"370 399 LINE",
"370 314 LINE",
"155 314 LINE",
"155 561 LINE",
"480 561 LINE",
"480 423 LINE",
"506 423 LINE",
"506 583 LINE",
"40 583 LINE",
"40 561 LINE",
"125 561 LINE",
"125 22 LINE",
"40 22 LINE",
"40 0 LINE"
);
}
);
width = 551;
},
{
anchors = (
{
name = top;
position = "{323, 583}";
}
);
background = {
anchors = (
{
name = top;
position = "{323, 583}";
}
);
paths = (
{
closed = 1;
nodes = (
"1250 0 LINE",
"1250 120 LINE",
"1190 120 LINE",
"1190 242 LINE",
"1250 242 LINE",
"1250 187 LINE",
"1349 187 LINE",
"1349 407 LINE",
"1249 407 LINE",
"1249 352 LINE",
"1190 352 LINE",
"1190 463 LINE",
"1386 463 LINE",
"1386 368 LINE",
"1506 368 LINE",
"1506 583 LINE",
"940 583 LINE",
"940 463 LINE",
"990 463 LINE",
"990 120 LINE",
"940 120 LINE",
"940 0 LINE"
);
},
{
closed = 1;
nodes = (
"603 0 LINE",
"603 215 LINE",
"478 215 LINE",
"478 121 LINE",
"280 121 LINE",
"280 235 LINE",
"328 235 LINE",
"328 185 LINE",
"428 185 LINE",
"428 400 LINE",
"328 400 LINE",
"328 355 LINE",
"280 355 LINE",
"280 463 LINE",
"458 463 LINE",
"458 373 LINE",
"583 373 LINE",
"583 583 LINE",
"30 583 LINE",
"30 463 LINE",
"80 463 LINE",
"80 120 LINE",
"30 120 LINE",
"30 0 LINE"
);
}
);
};
layerId = "EFCDB4D9-E20B-4A8D-9DB5-150AD166B0AE";
paths = (
{
closed = 1;
nodes = (
"360 0 LINE",
"360 120 LINE",
"280 120 LINE",
"280 245 LINE",
"328 245 LINE",
"328 195 LINE",
"428 195 LINE",
"428 410 LINE",
"328 410 LINE",
"328 365 LINE",
"280 365 LINE",
"280 463 LINE",
"458 463 LINE",
"458 373 LINE",
"583 373 LINE",
"583 583 LINE",
"30 583 LINE",
"30 463 LINE",
"80 463 LINE",
"80 120 LINE",
"30 120 LINE",
"30 0 LINE"
);
}
);
width = 593;
},
{
anchors = (
{
name = top;
position = "{299, 563}";
}
);
associatedMasterId = "98C086B7-81AA-4491-8494-0C6A76849168";
layerId = "7270DE1B-929D-4EC3-B937-79F80D1AA7E3";
name = "Original Regular";
paths = (
{
closed = 1;
nodes = (
"277 0 LINE",
"277 53 LINE",
"199 53 LINE",
"199 264 LINE",
"369 264 LINE",
"369 199 LINE",
"411 199 LINE",
"411 382 LINE",
"369 382 LINE",
"369 321 LINE",
"199 321 LINE",
"199 510 LINE",
"457 510 LINE",
"457 392 LINE",
"520 392 LINE",
"520 563 LINE",
"39 563 LINE",
"39 510 LINE",
"117 510 LINE",
"117 53 LINE",
"39 53 LINE",
"39 0 LINE"
);
}
);
width = 542;
},
{
anchors = (
{
name = top;
position = "{310, 583}";
}
);
background = {
anchors = (
{
name = top;
position = "{310, 583}";
}
);
paths = (
{
closed = 1;
nodes = (
"309 0 LINE",
"309 71 LINE",
"217 71 LINE",
"217 268 LINE",
"348 268 LINE",
"348 198 LINE",
"411 198 LINE",
"411 405 LINE",
"348 405 LINE",
"348 340 LINE",
"217 340 LINE",
"217 512 LINE",
"468 512 LINE",
"468 398 LINE",
"544 398 LINE",
"544 583 LINE",
"34 583 LINE",
"34 512 LINE",
"102 512 LINE",
"102 71 LINE",
"34 71 LINE",
"34 0 LINE"
);
}
);
};
layerId = "086393EE-48A8-42B6-AE05-10B6A30445E6";
paths = (
{
closed = 1;
nodes = (
"309 0 LINE",
"309 83 LINE",
"217 83 LINE",
"217 262 LINE",
"344 262 LINE",
"344 197 LINE",
"414 197 LINE",
"414 406 LINE",
"344 406 LINE",
"344 346 LINE",
"217 346 LINE",
"217 500 LINE",
"468 500 LINE",
"468 392 LINE",
"544 392 LINE",
"544 583 LINE",
"35 583 LINE",
"35 500 LINE",
"102 500 LINE",
"102 83 LINE",
"35 83 LINE",
"35 0 LINE"
);
}
);
width = 571;
}
);
leftKerningGroup = H;
leftMetricsKey = H;
rightKerningGroup = F;
unicode = 0046;
userData = {
com.typemytype.robofont.layerData = {
b = {
anchors = (
);
components = (
);
contours = (
{
points = (
{
segmentType = line;
smooth = 0;
x = 990;
y = 1086;
},
{
segmentType = line;
smooth = 0;
x = 990;
y = 802;
},
{
segmentType = line;
smooth = 0;
x = 1062;
y = 802;
},
{
segmentType = line;
smooth = 0;
x = 1062;
y = 1152;
},
{
segmentType = line;
smooth = 0;
x = 122;
y = 1152;
},
{
segmentType = line;
smooth = 0;
x = 122;
y = 1086;
},
{
segmentType = line;
smooth = 0;
x = 286;
y = 1086;
},
{
segmentType = line;
smooth = 0;
x = 286;
y = 1039;
},
{
segmentType = line;
smooth = 0;
x = 363;
y = 1039;
},
{
segmentType = line;
smooth = 0;
x = 363;
y = 1086;
}
);
},
{
points = (
{
segmentType = line;
smooth = 0;
x = 286;
y = 1039;
},
{
segmentType = line;
smooth = 0;
x = 286;
y = 677;
},
{
segmentType = line;
smooth = 0;
x = 363;
y = 677;
},
{
segmentType = line;
smooth = 0;
x = 363;
y = 1039;
}
);
},
{
points = (
{
segmentType = line;
smooth = 0;
x = 286;
y = 677;
},
{
segmentType = line;
smooth = 0;
x = 286;
y = 65;
},
{
segmentType = line;
smooth = 0;
x = 122;
y = 65;
},
{
segmentType = line;
smooth = 0;
x = 122;
y = 0;
},
{
segmentType = line;
smooth = 0;
x = 552;
y = 0;
},
{
segmentType = line;
smooth = 0;
x = 552;
y = 65;
},
{
segmentType = line;
smooth = 0;
x = 363;
y = 65;
},
{
segmentType = line;
smooth = 0;
x = 363;
y = 539;
},
{
segmentType = line;
smooth = 0;
x = 824;
y = 539;
},
{
segmentType = line;
smooth = 0;
x = 824;
y = 378;
},
{
segmentType = line;
smooth = 0;
x = 886;
y = 378;
},
{
segmentType = line;
smooth = 0;
x = 886;
y = 764;
},
{
segmentType = line;
smooth = 0;
x = 824;
y = 764;
},
{
segmentType = line;
smooth = 0;
x = 824;
y = 601;
},
{
segmentType = line;
smooth = 0;
x = 363;
y = 601;
},
{
segmentType = line;
smooth = 0;
x = 363;
y = 677;
}
);
}
);
lib = {
};
name = F;
unicodes = (
);
width = 1177;
};
};
org.robofab.postScriptHintData = {
};
};
},
{
color = 3;
glyphname = G;
layers = (
{
anchors = (
{
name = bottom;
position = "{355, 0}";
},
{
name = top;
position = "{353, 583}";
}
);
background = {
anchors = (
{
name = bottom;
position = "{337, 0}";
},
{
name = top;
position = "{336, 563}";
}
);
paths = (
{
closed = 1;
nodes = (
"534 -10 OFFCURVE",
"656 112 OFFCURVE",
"656 291 CURVE SMOOTH",
"656 468 OFFCURVE",
"534 594 OFFCURVE",
"353 594 CURVE SMOOTH",
"172 594 OFFCURVE",
"50 468 OFFCURVE",
"50 291 CURVE SMOOTH",
"50 112 OFFCURVE",
"172 -10 OFFCURVE",
"353 -10 CURVE SMOOTH"
);
},
{
closed = 1;
nodes = (
"190 15 OFFCURVE",
"82 124 OFFCURVE",
"82 290 CURVE SMOOTH",
"82 454 OFFCURVE",
"190 569 OFFCURVE",
"353 569 CURVE SMOOTH",
"516 569 OFFCURVE",
"624 454 OFFCURVE",
"624 290 CURVE SMOOTH",
"624 124 OFFCURVE",
"516 15 OFFCURVE",
"353 15 CURVE SMOOTH"
);
}
);
};
layerId = "98C086B7-81AA-4491-8494-0C6A76849168";
paths = (
{
closed = 1;
nodes = (
"528 -11 OFFCURVE",
"633 98 OFFCURVE",
"633 264 CURVE SMOOTH",
"633 268 LINE",
"458 268 LINE",
"458 246 LINE",
"611 246 LINE",
"603 256 LINE",
"600 107 OFFCURVE",
"510 14 OFFCURVE",
"355 14 CURVE SMOOTH",
"182 14 OFFCURVE",
"82 124 OFFCURVE",
"82 290 CURVE SMOOTH",
"82 454 OFFCURVE",
"191 569 OFFCURVE",
"353 569 CURVE SMOOTH",
"467 569 OFFCURVE",
"550 525 OFFCURVE",
"594 423 CURVE",
"617 423 LINE",
"617 583 LINE",
"591 583 LINE",
"591 445 LINE",
"604 445 LINE",
"567 537 OFFCURVE",
"482 594 OFFCURVE",
"353 594 CURVE SMOOTH",
"175 594 OFFCURVE",
"50 468 OFFCURVE",
"50 291 CURVE SMOOTH",
"50 112 OFFCURVE",
"166 -11 OFFCURVE",
"355 -11 CURVE SMOOTH"
);
}
);
width = 693;
},
{
anchors = (
{
name = bottom;
position = "{357, 0}";
},
{
name = top;
position = "{340, 583}";
}
);
background = {
anchors = (
{
name = bottom;
position = "{391, 0}";
},
{
name = top;
position = "{399, 583}";
}
);
paths = (
{
closed = 1;
nodes = (
"569 -10 OFFCURVE",
"701 110 OFFCURVE",
"701 292 CURVE SMOOTH",
"701 474 OFFCURVE",
"569 594 OFFCURVE",
"365 594 CURVE SMOOTH",
"161 594 OFFCURVE",
"29 474 OFFCURVE",
"29 292 CURVE SMOOTH",
"29 110 OFFCURVE",
"161 -10 OFFCURVE",
"365 -10 CURVE SMOOTH"
);
},
{
closed = 1;
nodes = (
"284 130 OFFCURVE",
"235 189 OFFCURVE",
"235 292 CURVE SMOOTH",
"235 395 OFFCURVE",
"284 454 OFFCURVE",
"365 454 CURVE SMOOTH",
"446 454 OFFCURVE",
"495 395 OFFCURVE",
"495 292 CURVE SMOOTH",
"495 189 OFFCURVE",
"446 130 OFFCURVE",
"365 130 CURVE SMOOTH"
);
}
);
};
layerId = "EFCDB4D9-E20B-4A8D-9DB5-150AD166B0AE";
paths = (
{
closed = 1;
nodes = (
"540 -10 OFFCURVE",
"666 97 OFFCURVE",
"666 291 CURVE SMOOTH",
"666 326 LINE",
"404 326 LINE",
"404 206 LINE",
"558 206 LINE",
"496 296 LINE",
"494 178 OFFCURVE",
"469 130 OFFCURVE",
"373 130 CURVE SMOOTH",
"282 130 OFFCURVE",
"235 189 OFFCURVE",
"235 292 CURVE SMOOTH",
"235 392 OFFCURVE",
"291 454 OFFCURVE",
"384 454 CURVE SMOOTH",
"453 454 OFFCURVE",
"499 424 OFFCURVE",
"526 365 CURVE",
"651 365 LINE",
"651 583 LINE",
"521 583 LINE",
"521 478 LINE",
"567 448 LINE",
"532 546 OFFCURVE",
"456 594 OFFCURVE",
"340 594 CURVE SMOOTH",
"156 594 OFFCURVE",
"29 474 OFFCURVE",
"29 290 CURVE SMOOTH",
"29 110 OFFCURVE",
"151 -10 OFFCURVE",
"356 -10 CURVE SMOOTH"
);
}
);
width = 700;
},
{
anchors = (
{
name = bottom;
position = "{347, 0}";
},
{
name = top;
position = "{351, 563}";
}
);
associatedMasterId = "98C086B7-81AA-4491-8494-0C6A76849168";
layerId = "3CA074FB-0A5B-4540-BB45-1EFB1721D41D";
name = "Original Regular";
paths = (
{
closed = 1;
nodes = (
"538 -10 OFFCURVE",
"639 93 OFFCURVE",
"639 254 CURVE SMOOTH",
"639 284 LINE",
"440 284 LINE",
"440 228 LINE",
"604 228 LINE",
"559 235 LINE",
"559 106 OFFCURVE",
"470 52 OFFCURVE",
"359 50 CURVE SMOOTH",
"222 50 OFFCURVE",
"136 142 OFFCURVE",
"136 288 CURVE SMOOTH",
"136 427 OFFCURVE",
"221 514 OFFCURVE",
"357 514 CURVE SMOOTH",
"447 514 OFFCURVE",
"518 470 OFFCURVE",
"554 389 CURVE",
"612 389 LINE",
"612 563 LINE",
"547 563 LINE",
"547 447 LINE",
"577 447 LINE",
"538 522 OFFCURVE",
"464 573 OFFCURVE",
"354 573 CURVE SMOOTH",
"174 573 OFFCURVE",
"48 457 OFFCURVE",
"48 283 CURVE SMOOTH",
"48 112 OFFCURVE",
"161 -10 OFFCURVE",
"356 -10 CURVE SMOOTH"
);
}
);
width = 684;
},
{
anchors = (
{
name = bottom;
position = "{356, 0}";
},
{
name = top;
position = "{347, 583}";
}
);
background = {
anchors = (
{
name = bottom;
position = "{356, 0}";
},
{
name = top;
position = "{347, 583}";
}
);
paths = (
{
closed = 1;
nodes = (
"1334 -10 OFFCURVE",
"1450 98 OFFCURVE",
"1450 278 CURVE SMOOTH",
"1450 297 LINE",
"1231 297 LINE",
"1231 226 LINE",
"1385 226 LINE",
"1350 276 LINE",
"1347 143 OFFCURVE",
"1290 72 OFFCURVE",
"1164 72 CURVE SMOOTH",
"1032 72 OFFCURVE",
"959 157 OFFCURVE",
"959 291 CURVE SMOOTH",
"959 423 OFFCURVE",
"1041 512 OFFCURVE",
"1169 512 CURVE SMOOTH",
"1260 512 OFFCURVE",
"1325 475 OFFCURVE",
"1360 394 CURVE",
"1434 394 LINE",
"1434 583 LINE",
"1356 583 LINE",
"1356 462 LINE",
"1386 447 LINE",
"1350 542 OFFCURVE",
"1269 594 OFFCURVE",
"1147 594 CURVE SMOOTH",
"967 594 OFFCURVE",
"840 471 OFFCURVE",
"840 291 CURVE SMOOTH",
"840 111 OFFCURVE",
"959 -10 OFFCURVE",
"1156 -10 CURVE SMOOTH"
);
},
{
closed = 1;
nodes = (
"552 -10 OFFCURVE",
"679 117 OFFCURVE",
"679 292 CURVE SMOOTH",
"679 467 OFFCURVE",
"552 594 OFFCURVE",
"359 594 CURVE SMOOTH",
"166 594 OFFCURVE",
"40 467 OFFCURVE",
"40 292 CURVE SMOOTH",
"40 117 OFFCURVE",
"166 -10 OFFCURVE",
"359 -10 CURVE SMOOTH"
);
},
{
closed = 1;
nodes = (
"237 89 OFFCURVE",
"159 168 OFFCURVE",
"159 291 CURVE SMOOTH",
"159 414 OFFCURVE",
"237 495 OFFCURVE",
"359 495 CURVE SMOOTH",
"481 495 OFFCURVE",
"560 414 OFFCURVE",
"560 291 CURVE SMOOTH",
"560 168 OFFCURVE",
"481 89 OFFCURVE",
"359 89 CURVE SMOOTH"
);
}
);
};
layerId = "086393EE-48A8-42B6-AE05-10B6A30445E6";
paths = (
{
closed = 1;
nodes = (
"537 -10 OFFCURVE",
"650 97 OFFCURVE",
"650 281 CURVE SMOOTH",
"650 304 LINE",
"431 304 LINE",
"431 221 LINE",
"585 221 LINE",
"530 281 LINE",
"537 151 OFFCURVE",
"477 87 OFFCURVE",
"359 87 CURVE SMOOTH",
"237 87 OFFCURVE",
"159 168 OFFCURVE",
"159 291 CURVE SMOOTH",
"159 414 OFFCURVE",
"237 497 OFFCURVE",
"369 497 CURVE SMOOTH",
"460 497 OFFCURVE",
"525 462 OFFCURVE",
"560 387 CURVE",
"634 387 LINE",
"634 583 LINE",
"556 583 LINE",
"556 466 LINE",
"586 447 LINE",
"556 547 OFFCURVE",
"469 594 OFFCURVE",
"350 594 CURVE SMOOTH",
"166 594 OFFCURVE",
"40 467 OFFCURVE",
"40 290 CURVE SMOOTH",
"40 117 OFFCURVE",
"166 -10 OFFCURVE",
"356 -10 CURVE SMOOTH"
);
}
);
width = 696.5;
}
);
leftKerningGroup = O;
leftMetricsKey = O;
rightKerningGroup = G;
unicode = 0047;
userData = {
com.typemytype.robofont.layerData = {
b = {
anchors = (
);
components = (
);
contours = (
);
lib = {
};
name = G;
unicodes = (
);
width = 1394;
};
};
org.robofab.postScriptHintData = {
};
};
},
{
color = 3;
glyphname = H;
layers = (
{
anchors = (
{
name = bottom;
position = "{345, 0}";
},
{
name = top;
position = "{345, 583}";
}
);
background = {
anchors = (
{
name = bottom;
position = "{344, 0}";
},
{
name = top;
position = "{344, 563}";
}
);
paths = (
{
closed = 1;
nodes = (
"240 0 LINE",
"240 22 LINE",
"155 22 LINE",
"155 273 LINE",
"535 273 LINE",
"535 22 LINE",
"450 22 LINE",
"450 0 LINE",
"649 0 LINE",
"649 22 LINE",
"564 22 LINE",
"564 541 LINE",
"649 541 LINE",
"649 563 LINE",
"450 563 LINE",
"450 541 LINE",
"535 541 LINE",
"535 296 LINE",
"155 296 LINE",
"155 541 LINE",
"240 541 LINE",
"240 563 LINE",
"40 563 LINE",
"40 541 LINE",
"125 541 LINE",
"125 22 LINE",
"40 22 LINE",
"40 0 LINE"
);
}
);
};
layerId = "98C086B7-81AA-4491-8494-0C6A76849168";
paths = (
{
closed = 1;
nodes = (
"240 0 LINE",
"240 22 LINE",
"155 22 LINE",
"155 286 LINE",
"535 286 LINE",
"535 22 LINE",
"450 22 LINE",
"450 0 LINE",
"650 0 LINE",
"650 22 LINE",
"565 22 LINE",
"565 561 LINE",
"650 561 LINE",
"650 583 LINE",
"450 583 LINE",
"450 561 LINE",
"535 561 LINE",
"535 308 LINE",
"155 308 LINE",
"155 561 LINE",
"240 561 LINE",
"240 583 LINE",
"40 583 LINE",
"40 561 LINE",
"125 561 LINE",
"125 22 LINE",
"40 22 LINE",
"40 0 LINE"
);
}
);
width = 690;
},
{
anchors = (
{
name = bottom;
position = "{363, 0}";
},
{
name = top;
position = "{363, 583}";
}
);
background = {
anchors = (
{
name = bottom;
position = "{387, 0}";
},
{
name = top;
position = "{363, 583}";
}
);
paths = (
{
closed = 1;
nodes = (
"330 0 LINE",
"330 120 LINE",
"280 120 LINE",
"280 240 LINE",
"446 240 LINE",
"446 120 LINE",
"396 120 LINE",
"396 0 LINE",
"696 0 LINE",
"696 120 LINE",
"646 120 LINE",
"646 463 LINE",
"696 463 LINE",
"696 583 LINE",
"396 583 LINE",
"396 463 LINE",
"446 463 LINE",
"446 350 LINE",
"280 350 LINE",
"280 463 LINE",
"330 463 LINE",
"330 583 LINE",
"30 583 LINE",
"30 463 LINE",
"80 463 LINE",
"80 120 LINE",
"30 120 LINE",
"30 0 LINE"
);
}
);
};
layerId = "EFCDB4D9-E20B-4A8D-9DB5-150AD166B0AE";
paths = (
{
closed = 1;
nodes = (
"330 0 LINE",
"330 120 LINE",
"280 120 LINE",
"280 233 LINE",
"446 233 LINE",
"446 120 LINE",
"396 120 LINE",
"396 0 LINE",
"696 0 LINE",
"696 120 LINE",
"646 120 LINE",
"646 463 LINE",
"696 463 LINE",
"696 583 LINE",
"396 583 LINE",
"396 463 LINE",
"446 463 LINE",
"446 357 LINE",
"280 357 LINE",
"280 463 LINE",
"330 463 LINE",
"330 583 LINE",
"30 583 LINE",
"30 463 LINE",
"80 463 LINE",
"80 120 LINE",
"30 120 LINE",
"30 0 LINE"
);
}
);
width = 726;
},
{
anchors = (
{
name = bottom;
position = "{347, 0}";
},
{
name = top;
position = "{352, 563}";
}
);
associatedMasterId = "98C086B7-81AA-4491-8494-0C6A76849168";
layerId = "79CB94FA-515B-4E31-BA89-5E24653B377A";
name = "Original Regular";
paths = (
{
closed = 1;
nodes = (
"277 0 LINE",
"277 53 LINE",
"199 53 LINE",
"199 261 LINE",
"499 261 LINE",
"499 53 LINE",
"420 53 LINE",
"420 0 LINE",
"658 0 LINE",
"658 53 LINE",
"580 53 LINE",
"580 510 LINE",
"658 510 LINE",
"658 563 LINE",
"420 563 LINE",
"420 510 LINE",
"499 510 LINE",
"499 318 LINE",
"199 318 LINE",
"199 510 LINE",
"277 510 LINE",
"277 563 LINE",
"39 563 LINE",
"39 510 LINE",
"117 510 LINE",
"117 53 LINE",
"39 53 LINE",
"39 0 LINE"
);
}
);
width = 697;
},
{
anchors = (
{
name = bottom;
position = "{353, 0}";
},
{
name = top;
position = "{353, 583}";
}
);
background = {
anchors = (
{
name = bottom;
position = "{353, 0}";
},
{
name = top;
position = "{353, 583}";
}
);
paths = (
{
closed = 1;
nodes = (
"284 0 LINE",
"284 71 LINE",
"217 71 LINE",
"217 260 LINE",
"490 260 LINE",
"490 71 LINE",
"422 71 LINE",
"422 0 LINE",
"672 0 LINE",
"672 71 LINE",
"605 71 LINE",
"605 512 LINE",
"672 512 LINE",
"672 583 LINE",
"422 583 LINE",
"422 512 LINE",
"490 512 LINE",
"490 333 LINE",
"217 333 LINE",
"217 512 LINE",
"284 512 LINE",
"284 583 LINE",
"34 583 LINE",
"34 512 LINE",
"102 512 LINE",
"102 71 LINE",
"34 71 LINE",
"34 0 LINE"
);
}
);
};
layerId = "086393EE-48A8-42B6-AE05-10B6A30445E6";
paths = (
{
closed = 1;
nodes = (
"284 0 LINE",
"284 83 LINE",
"217 83 LINE",
"217 256 LINE",
"490 256 LINE",
"490 83 LINE",
"422 83 LINE",
"422 0 LINE",
"672 0 LINE",
"672 83 LINE",
"605 83 LINE",
"605 500 LINE",
"672 500 LINE",
"672 583 LINE",
"422 583 LINE",
"422 500 LINE",
"490 500 LINE",
"490 336 LINE",
"217 336 LINE",
"217 500 LINE",
"284 500 LINE",
"284 583 LINE",
"35 583 LINE",
"35 500 LINE",
"102 500 LINE",
"102 83 LINE",
"35 83 LINE",
"35 0 LINE"
);
}
);
width = 707;
}
);
leftKerningGroup = H;
rightKerningGroup = H;
unicode = 0048;
userData = {
com.typemytype.robofont.layerData = {
b = {
anchors = (
);
components = (
);
contours = (
);
lib = {
};
name = H;
unicodes = (
);
width = 1506;
};
};
org.robofab.postScriptHintData = {
};
};
},
{
color = 3;
glyphname = I;
layers = (
{
anchors = (
{
name = bottom;
position = "{141, 0}";
},
{
name = ogonek;
position = "{170, 0}";
},
{
name = top;
position = "{142, 583}";
}
);
background = {
anchors = (
{
name = bottom;
position = "{141, 0}";
},
{
name = ogonek;
position = "{150, 0}";
},
{
name = top;
position = "{142, 563}";
}
);
paths = (
{
closed = 1;
nodes = (
"240 0 LINE",
"240 22 LINE",
"155 22 LINE",
"155 541 LINE",
"240 541 LINE",
"240 563 LINE",
"40 563 LINE",
"40 541 LINE",
"125 541 LINE",
"125 22 LINE",
"40 22 LINE",
"40 0 LINE"
);
}
);
};
layerId = "98C086B7-81AA-4491-8494-0C6A76849168";
paths = (
{
closed = 1;
nodes = (
"240 0 LINE",
"240 22 LINE",
"155 22 LINE",
"155 561 LINE",
"240 561 LINE",
"240 583 LINE",
"40 583 LINE",
"40 561 LINE",
"125 561 LINE",
"125 22 LINE",
"40 22 LINE",
"40 0 LINE"
);
}
);
width = 280;
},
{
anchors = (
{
name = bottom;
position = "{180, 0}";
},
{
name = ogonek;
position = "{230, 0}";
},
{
name = top;
position = "{180, 583}";
}
);
background = {
anchors = (
{
name = bottom;
position = "{180, 0}";
},
{
name = ogonek;
position = "{200, 0}";
},
{
name = top;
position = "{180, 583}";
}
);
paths = (
{
closed = 1;
nodes = (
"330 0 LINE",
"330 119 LINE",
"280 119 LINE",
"280 463 LINE",
"330 463 LINE",
"330 583 LINE",
"30 583 LINE",
"30 463 LINE",
"80 463 LINE",
"80 119 LINE",
"30 119 LINE",
"30 0 LINE"
);
}
);
};
layerId = "EFCDB4D9-E20B-4A8D-9DB5-150AD166B0AE";
paths = (
{
closed = 1;
nodes = (
"330 0 LINE",
"330 120 LINE",
"280 120 LINE",
"280 463 LINE",
"330 463 LINE",
"330 583 LINE",
"30 583 LINE",
"30 463 LINE",
"80 463 LINE",
"80 120 LINE",
"30 120 LINE",
"30 0 LINE"
);
}
);
width = 360;
},
{
anchors = (
{
name = bottom;
position = "{169, 0}";
},
{
name = ogonek;
position = "{189, 0}";
},
{
name = top;
position = "{170, 563}";
}
);
associatedMasterId = "98C086B7-81AA-4491-8494-0C6A76849168";
layerId = "7983CBBB-DC3A-4CA9-B5B1-40AC9BBCD8AC";
name = "Original Regular";
paths = (
{
closed = 1;
nodes = (
"289 0 LINE",
"289 53 LINE",
"210 53 LINE",
"210 510 LINE",
"289 510 LINE",
"289 563 LINE",
"50 563 LINE",
"50 510 LINE",
"128 510 LINE",
"128 53 LINE",
"50 53 LINE",
"50 0 LINE"
);
}
);
width = 339;
},
{
anchors = (
{
name = bottom;
position = "{160, 0}";
},
{
name = ogonek;
position = "{199, 0}";
},
{
name = top;
position = "{160, 583}";
}
);
background = {
anchors = (
{
name = bottom;
position = "{160, 0}";
},
{
name = ogonek;
position = "{199, 0}";
},
{
name = top;
position = "{160, 583}";
}
);
paths = (
{
closed = 1;
nodes = (
"284 0 LINE",
"284 71 LINE",
"217 71 LINE",
"217 512 LINE",
"284 512 LINE",
"284 583 LINE",
"34 583 LINE",
"34 512 LINE",
"102 512 LINE",
"102 71 LINE",
"34 71 LINE",
"34 0 LINE"
);
}
);
};
layerId = "086393EE-48A8-42B6-AE05-10B6A30445E6";
paths = (
{
closed = 1;
nodes = (
"284 0 LINE",
"284 83 LINE",
"217 83 LINE",
"217 500 LINE",
"284 500 LINE",
"284 583 LINE",
"35 583 LINE",
"35 500 LINE",
"102 500 LINE",
"102 83 LINE",
"35 83 LINE",
"35 0 LINE"
);
}
);
width = 319;
}
);
leftKerningGroup = H;
leftMetricsKey = H;
rightKerningGroup = H;
rightMetricsKey = H;
unicode = 0049;
userData = {
com.typemytype.robofont.layerData = {
b = {
anchors = (
);
components = (
);
contours = (
);
lib = {
};
name = I;
unicodes = (
);
width = 626;
};
};
org.robofab.postScriptHintData = {
};
};
},
{
color = 3;
glyphname = J;
layers = (
{
anchors = (
{
name = top;
position = "{135, 583}";
}
);
background = {
anchors = (
{
name = top;
position = "{135, 583}";
}
);
paths = (
{
closed = 1;
nodes = (
"117 -171 OFFCURVE",
"150 -139 OFFCURVE",
"150 -74 CURVE SMOOTH",
"150 561 LINE",
"235 561 LINE",
"235 583 LINE",
"25 583 LINE",
"25 561 LINE",
"120 561 LINE",
"120 -77 LINE SMOOTH",
"120 -128 OFFCURVE",
"97 -149 OFFCURVE",
"47 -149 CURVE SMOOTH",
"2 -149 LINE",
"2 -171 LINE",
"49 -171 LINE SMOOTH"
);
}
);
};
layerId = "98C086B7-81AA-4491-8494-0C6A76849168";
paths = (
{
closed = 1;
nodes = (
"117 -171 OFFCURVE",
"150 -139 OFFCURVE",
"150 -74 CURVE SMOOTH",
"150 561 LINE",
"235 561 LINE",
"235 583 LINE",
"25 583 LINE",
"25 561 LINE",
"120 561 LINE",
"120 -77 LINE SMOOTH",
"120 -128 OFFCURVE",
"97 -149 OFFCURVE",
"47 -149 CURVE SMOOTH",
"2 -149 LINE",
"2 -171 LINE",
"49 -171 LINE SMOOTH"
);
}
);
width = 270;
},
{
anchors = (
{
name = top;
position = "{185, 583}";
}
);
background = {
anchors = (
{
name = top;
position = "{185, 583}";
}
);
paths = (
{
closed = 1;
nodes = (
"205 -171 OFFCURVE",
"285 -94 OFFCURVE",
"285 45 CURVE SMOOTH",
"285 463 LINE",
"335 463 LINE",
"335 583 LINE",
"25 583 LINE",
"25 463 LINE",
"85 463 LINE",
"85 42 LINE SMOOTH",
"85 -4 OFFCURVE",
"60 -31 OFFCURVE",
"9 -31 CURVE SMOOTH",
"-35 -31 LINE",
"-35 -171 LINE",
"50 -171 LINE SMOOTH"
);
}
);
};
layerId = "EFCDB4D9-E20B-4A8D-9DB5-150AD166B0AE";
paths = (
{
closed = 1;
nodes = (
"205 -171 OFFCURVE",
"285 -94 OFFCURVE",
"285 45 CURVE SMOOTH",
"285 463 LINE",
"335 463 LINE",
"335 583 LINE",
"25 583 LINE",
"25 463 LINE",
"85 463 LINE",
"85 42 LINE SMOOTH",
"85 -4 OFFCURVE",
"60 -31 OFFCURVE",
"9 -31 CURVE SMOOTH",
"-35 -31 LINE",
"-35 -171 LINE",
"50 -171 LINE SMOOTH"
);
}
);
width = 360;
},
{
anchors = (
{
name = top;
position = "{191, 563}";
}
);
associatedMasterId = "98C086B7-81AA-4491-8494-0C6A76849168";
layerId = "10C0E7FF-24D5-4BB4-B357-ACB1CAACDB4A";
name = "Original Regular";
paths = (
{
closed = 1;
nodes = (
"106 -106 LINE",
"198 -106 OFFCURVE",
"231 -57 OFFCURVE",
"231 41 CURVE SMOOTH",
"231 510 LINE",
"304 510 LINE",
"304 563 LINE",
"73 563 LINE",
"73 510 LINE",
"150 510 LINE",
"150 40 LINE SMOOTH",
"150 -10 OFFCURVE",
"142 -42 OFFCURVE",
"93 -42 CURVE SMOOTH",
"33 -42 LINE",
"33 -106 LINE"
);
}
);
width = 326;
},
{
anchors = (
{
name = top;
position = "{160, 583}";
}
);
background = {
anchors = (
{
name = top;
position = "{160, 583}";
}
);
paths = (
{
closed = 1;
nodes = (
"161 -171 OFFCURVE",
"218 -116 OFFCURVE",
"218 -14 CURVE SMOOTH",
"218 512 LINE",
"285 512 LINE",
"285 583 LINE",
"25 583 LINE",
"25 512 LINE",
"103 512 LINE",
"103 -17 LINE SMOOTH",
"103 -66 OFFCURVE",
"79 -90 OFFCURVE",
"28 -90 CURVE SMOOTH",
"-16 -90 LINE",
"-16 -171 LINE",
"50 -171 LINE SMOOTH"
);
}
);
};
layerId = "086393EE-48A8-42B6-AE05-10B6A30445E6";
paths = (
{
closed = 1;
nodes = (
"161 -171 OFFCURVE",
"218 -111 OFFCURVE",
"218 0 CURVE SMOOTH",
"218 500 LINE",
"285 500 LINE",
"285 583 LINE",
"25 583 LINE",
"25 500 LINE",
"103 500 LINE",
"103 -3 LINE SMOOTH",
"103 -50 OFFCURVE",
"79 -75 OFFCURVE",
"28 -75 CURVE SMOOTH",
"-16 -75 LINE",
"-16 -171 LINE",
"50 -171 LINE SMOOTH"
);
}
);
width = 315;
}
);
leftKerningGroup = J;
rightKerningGroup = J;
unicode = 004A;
userData = {
com.typemytype.robofont.layerData = {
b = {
anchors = (
);
components = (
);
contours = (
);
lib = {
};
name = J;
unicodes = (
);
width = 551;
};
};
org.robofab.postScriptHintData = {
};
};
},
{
color = 3;
glyphname = I_J.loclNLD;
layers = (
{
anchors = (
{
name = top;
position = "{288, 583}";
}
);
background = {
anchors = (
{
name = top;
position = "{288, 583}";
}
);
paths = (
{
closed = 1;
nodes = (
"424 -11 OFFCURVE",
"491 57 OFFCURVE",
"491 182 CURVE SMOOTH",
"491 561 LINE",
"576 561 LINE",
"576 583 LINE",
"376 583 LINE",
"376 561 LINE",
"461 561 LINE",
"461 378 LINE SMOOTH",
"461 243 OFFCURVE",
"405 180 OFFCURVE",
"287 180 CURVE SMOOTH",
"168 180 OFFCURVE",
"115 241 OFFCURVE",
"115 378 CURVE SMOOTH",
"115 561 LINE",
"200 561 LINE",
"200 583 LINE",
"0 583 LINE",
"0 561 LINE",
"85 561 LINE",
"85 375 LINE SMOOTH",
"85 230 OFFCURVE",
"149 156 OFFCURVE",
"287 156 CURVE SMOOTH",
"386 156 OFFCURVE",
"449 203 OFFCURVE",
"474 296 CURVE",
"461 297 LINE",
"461 182 LINE SMOOTH",
"461 65 OFFCURVE",
"407 13 OFFCURVE",
"290 13 CURVE SMOOTH",
"224 13 OFFCURVE",
"169 27 OFFCURVE",
"134 58 CURVE",
"120 33 LINE",
"164 3 OFFCURVE",
"216 -11 OFFCURVE",
"290 -11 CURVE SMOOTH"
);
}
);
};
layerId = "98C086B7-81AA-4491-8494-0C6A76849168";
paths = (
{
closed = 1;
nodes = (
"419 -11 OFFCURVE",
"491 54 OFFCURVE",
"491 181 CURVE SMOOTH",
"491 561 LINE",
"576 561 LINE",
"576 583 LINE",
"376 583 LINE",
"376 561 LINE",
"461 561 LINE",
"461 358 LINE SMOOTH",
"461 243 OFFCURVE",
"405 180 OFFCURVE",
"287 180 CURVE SMOOTH",
"168 180 OFFCURVE",
"115 241 OFFCURVE",
"115 358 CURVE SMOOTH",
"115 561 LINE",
"200 561 LINE",
"200 583 LINE",
"0 583 LINE",
"0 561 LINE",
"85 561 LINE",
"85 355 LINE SMOOTH",
"85 230 OFFCURVE",
"149 156 OFFCURVE",
"287 156 CURVE SMOOTH",
"386 156 OFFCURVE",
"449 203 OFFCURVE",
"474 286 CURVE",
"461 287 LINE",
"461 182 LINE SMOOTH",
"461 65 OFFCURVE",
"402 13 OFFCURVE",
"274 13 CURVE SMOOTH",
"202 13 OFFCURVE",
"142 27 OFFCURVE",
"104 58 CURVE",
"90 33 LINE",
"138 3 OFFCURVE",
"194 -11 OFFCURVE",
"274 -11 CURVE SMOOTH"
);
}
);
width = 611;
},
{
anchors = (
{
name = top;
position = "{349, 583}";
}
);
background = {
anchors = (
{
name = top;
position = "{349, 583}";
}
);
paths = (
{
closed = 1;
nodes = (
"505 -9 OFFCURVE",
"626 86 OFFCURVE",
"626 254 CURVE SMOOTH",
"626 463 LINE",
"676 463 LINE",
"676 583 LINE",
"376 583 LINE",
"376 463 LINE",
"426 463 LINE",
"426 406 LINE SMOOTH",
"426 347 OFFCURVE",
"401 315 OFFCURVE",
"349 315 CURVE SMOOTH",
"297 315 OFFCURVE",
"272 347 OFFCURVE",
"272 406 CURVE SMOOTH",
"272 463 LINE",
"322 463 LINE",
"322 583 LINE",
"22 583 LINE",
"22 463 LINE",
"72 463 LINE",
"72 404 LINE SMOOTH",
"72 256 OFFCURVE",
"166 180 OFFCURVE",
"292 180 CURVE SMOOTH",
"367 180 OFFCURVE",
"408 195 OFFCURVE",
"451 248 CURVE",
"426 307 LINE",
"426 240 LINE SMOOTH",
"426 170 OFFCURVE",
"391 131 OFFCURVE",
"318 131 CURVE SMOOTH",
"251 131 OFFCURVE",
"194 153 OFFCURVE",
"149 176 CURVE",
"90 49 LINE",
"136 19 OFFCURVE",
"222 -9 OFFCURVE",
"327 -9 CURVE SMOOTH"
);
}
);
};
layerId = "EFCDB4D9-E20B-4A8D-9DB5-150AD166B0AE";
paths = (
{
closed = 1;
nodes = (
"498 -10 OFFCURVE",
"626 85 OFFCURVE",
"626 243 CURVE SMOOTH",
"626 463 LINE",
"676 463 LINE",
"676 583 LINE",
"376 583 LINE",
"376 463 LINE",
"426 463 LINE",
"426 386 LINE SMOOTH",
"426 343 OFFCURVE",
"401 315 OFFCURVE",
"349 315 CURVE SMOOTH",
"297 315 OFFCURVE",
"272 343 OFFCURVE",
"272 386 CURVE SMOOTH",
"272 463 LINE",
"322 463 LINE",
"322 583 LINE",
"22 583 LINE",
"22 463 LINE",
"72 463 LINE",
"72 384 LINE SMOOTH",
"72 246 OFFCURVE",
"166 180 OFFCURVE",
"292 180 CURVE SMOOTH",
"367 180 OFFCURVE",
"408 197 OFFCURVE",
"451 251 CURVE",
"426 307 LINE",
"426 219 LINE SMOOTH",
"426 169 OFFCURVE",
"387 130 OFFCURVE",
"306 130 CURVE SMOOTH",
"232 130 OFFCURVE",
"169 152 OFFCURVE",
"119 175 CURVE",
"60 48 LINE",
"109 18 OFFCURVE",
"199 -10 OFFCURVE",
"310 -10 CURVE SMOOTH"
);
}
);
width = 698;
},
{
associatedMasterId = "98C086B7-81AA-4491-8494-0C6A76849168";
components = (
{
name = I;
},
{
name = J;
transform = "{1, 0, 0, 1, 280, 0}";
}
);
layerId = "0AE5DACE-51A0-4C81-9ABA-F81E2D7B3764";
name = "Original Regular";
width = 550;
},
{
anchors = (
{
name = top;
position = "{319, 583}";
}
);
background = {
anchors = (
{
name = top;
position = "{319, 583}";
}
);
paths = (
{
closed = 1;
nodes = (
"459 -10 OFFCURVE",
"559 70 OFFCURVE",
"559 212 CURVE SMOOTH",
"559 512 LINE",
"626 512 LINE",
"626 583 LINE",
"376 583 LINE",
"376 512 LINE",
"444 512 LINE",
"444 372 LINE SMOOTH",
"444 293 OFFCURVE",
"403 248 OFFCURVE",
"318 248 CURVE SMOOTH",
"233 248 OFFCURVE",
"194 292 OFFCURVE",
"194 372 CURVE SMOOTH",
"194 512 LINE",
"261 512 LINE",
"261 583 LINE",
"11 583 LINE",
"11 512 LINE",
"79 512 LINE",
"79 370 LINE SMOOTH",
"79 238 OFFCURVE",
"158 168 OFFCURVE",
"290 168 CURVE SMOOTH",
"377 168 OFFCURVE",
"429 200 OFFCURVE",
"463 269 CURVE",
"444 297 LINE",
"444 201 LINE SMOOTH",
"444 117 OFFCURVE",
"395 72 OFFCURVE",
"290 72 CURVE SMOOTH",
"217 72 OFFCURVE",
"156 90 OFFCURVE",
"112 117 CURVE",
"75 41 LINE",
"124 11 OFFCURVE",
"197 -10 OFFCURVE",
"292 -10 CURVE SMOOTH"
);
}
);
};
layerId = "086393EE-48A8-42B6-AE05-10B6A30445E6";
paths = (
{
closed = 1;
nodes = (
"459 -10 OFFCURVE",
"559 73 OFFCURVE",
"559 220 CURVE SMOOTH",
"559 500 LINE",
"626 500 LINE",
"626 583 LINE",
"376 583 LINE",
"376 500 LINE",
"444 500 LINE",
"444 386 LINE SMOOTH",
"444 306 OFFCURVE",
"399 266 OFFCURVE",
"318 266 CURVE SMOOTH",
"236 266 OFFCURVE",
"194 305 OFFCURVE",
"194 386 CURVE SMOOTH",
"194 500 LINE",
"261 500 LINE",
"261 583 LINE",
"12 583 LINE",
"12 500 LINE",
"79 500 LINE",
"79 373 LINE SMOOTH",
"79 250 OFFCURVE",
"158 171 OFFCURVE",
"293 171 CURVE SMOOTH",
"377 171 OFFCURVE",
"429 199 OFFCURVE",
"463 264 CURVE",
"444 300 LINE",
"444 205 LINE SMOOTH",
"444 130 OFFCURVE",
"395 89 OFFCURVE",
"290 89 CURVE SMOOTH",
"217 89 OFFCURVE",
"156 110 OFFCURVE",
"115 136 CURVE",
"75 42 LINE",
"124 12 OFFCURVE",
"197 -10 OFFCURVE",
"292 -10 CURVE SMOOTH"
);
}
);
width = 655;
}
);
leftKerningGroup = IJ;
rightKerningGroup = U;
rightMetricsKey = U;
userData = {
com.typemytype.robofont.layerData = {
b = {
anchors = (
);
components = (
);
contours = (
);
lib = {
};
name = IJ;
unicodes = (
);
width = 1177;
};
};
org.robofab.postScriptHintData = {
};
};
},
{
color = 3;
glyphname = K;
layers = (
{
anchors = (
{
name = bottom;
position = "{312, 0}";
},
{
name = top;
position = "{303, 583}";
}
);
background = {
anchors = (
{
name = bottom;
position = "{312, 0}";
},
{
name = top;
position = "{303, 583}";
}
);
paths = (
{
closed = 1;
nodes = (
"240 0 LINE",
"240 22 LINE",
"155 22 LINE",
"155 304 LINE",
"459 22 LINE",
"384 22 LINE",
"384 0 LINE",
"579 0 LINE",
"579 22 LINE",
"499 22 LINE",
"180 318 LINE",
"179 297 LINE",
"478 561 LINE",
"558 561 LINE",
"558 583 LINE",
"366 583 LINE",
"366 561 LINE",
"441 561 LINE",
"155 309 LINE",
"155 561 LINE",
"240 561 LINE",
"240 583 LINE",
"40 583 LINE",
"40 561 LINE",
"125 561 LINE",
"125 22 LINE",
"40 22 LINE",
"40 0 LINE"
);
}
);
};
guideLines = (
{
position = "{208, 290}";
}
);
layerId = "98C086B7-81AA-4491-8494-0C6A76849168";
paths = (
{
closed = 1;
nodes = (
"240 0 LINE",
"240 22 LINE",
"155 22 LINE",
"155 304 LINE",
"459 22 LINE",
"384 22 LINE",
"384 0 LINE",
"579 0 LINE",
"579 22 LINE",
"499 22 LINE",
"180 318 LINE",
"179 297 LINE",
"478 561 LINE",
"558 561 LINE",
"558 583 LINE",
"366 583 LINE",
"366 561 LINE",
"441 561 LINE",
"155 309 LINE",
"155 561 LINE",
"240 561 LINE",
"240 583 LINE",
"40 583 LINE",
"40 561 LINE",
"125 561 LINE",
"125 22 LINE",
"40 22 LINE",
"40 0 LINE"
);
}
);
width = 579;
},
{
anchors = (
{
name = bottom;
position = "{357, 0}";
},
{
name = top;
position = "{359, 583}";
}
);
background = {
anchors = (
{
name = bottom;
position = "{357, 0}";
},
{
name = top;
position = "{359, 583}";
}
);
paths = (
{
closed = 1;
nodes = (
"330 0 LINE",
"330 120 LINE",
"280 120 LINE",
"280 287 LINE",
"418 120 LINE",
"383 120 LINE",
"383 0 LINE",
"694 0 LINE",
"694 120 LINE",
"649 120 LINE",
"454 346 LINE",
"454 284 LINE",
"630 463 LINE",
"675 463 LINE",
"675 583 LINE",
"381 583 LINE",
"381 463 LINE",
"416 463 LINE",
"280 323 LINE",
"280 463 LINE",
"330 463 LINE",
"330 583 LINE",
"30 583 LINE",
"30 463 LINE",
"80 463 LINE",
"80 120 LINE",
"30 120 LINE",
"30 0 LINE"
);
}
);
};
guideLines = (
{
position = "{202, 290}";
}
);
layerId = "EFCDB4D9-E20B-4A8D-9DB5-150AD166B0AE";
paths = (
{
closed = 1;
nodes = (
"330 0 LINE",
"330 120 LINE",
"280 120 LINE",
"280 287 LINE",
"418 120 LINE",
"383 120 LINE",
"383 0 LINE",
"694 0 LINE",
"694 120 LINE",
"649 120 LINE",
"454 346 LINE",
"454 284 LINE",
"630 463 LINE",
"675 463 LINE",
"675 583 LINE",
"381 583 LINE",
"381 463 LINE",
"416 463 LINE",
"280 323 LINE",
"280 463 LINE",
"330 463 LINE",
"330 583 LINE",
"30 583 LINE",
"30 463 LINE",
"80 463 LINE",
"80 120 LINE",
"30 120 LINE",
"30 0 LINE"
);
}
);
width = 694;
},
{
anchors = (
{
name = bottom;
position = "{317, 0}";
},
{
name = top;
position = "{317, 563}";
}
);
associatedMasterId = "98C086B7-81AA-4491-8494-0C6A76849168";
layerId = "376E0CF9-7B05-46CD-AC7F-F4C0FF4F1752";
name = "Original Regular";
paths = (
{
closed = 1;
nodes = (
"277 0 LINE",
"277 53 LINE",
"199 53 LINE",
"199 267 LINE",
"430 53 LINE",
"364 53 LINE",
"364 0 LINE",
"605 0 LINE",
"605 53 LINE",
"530 53 LINE",
"282 284 LINE",
"526 510 LINE",
"600 510 LINE",
"600 563 LINE",
"367 563 LINE",
"367 510 LINE",
"431 510 LINE",
"199 295 LINE",
"199 510 LINE",
"277 510 LINE",
"277 563 LINE",
"39 563 LINE",
"39 510 LINE",
"117 510 LINE",
"117 53 LINE",
"39 53 LINE",
"39 0 LINE"
);
}
);
width = 633;
},
{
anchors = (
{
name = bottom;
position = "{334, 0}";
},
{
name = top;
position = "{330, 583}";
}
);
background = {
anchors = (
{
name = bottom;
position = "{334, 0}";
},
{
name = top;
position = "{330, 583}";
}
);
paths = (
{
closed = 1;
nodes = (
"284 0 LINE",
"284 71 LINE",
"217 71 LINE",
"217 296 LINE",
"438 71 LINE",
"383 71 LINE",
"383 0 LINE",
"636 0 LINE",
"636 71 LINE",
"573 71 LINE",
"316 332 LINE",
"316 291 LINE",
"553 512 LINE",
"616 512 LINE",
"616 583 LINE",
"373 583 LINE",
"373 512 LINE",
"428 512 LINE",
"217 316 LINE",
"217 512 LINE",
"284 512 LINE",
"284 583 LINE",
"34 583 LINE",
"34 512 LINE",
"102 512 LINE",
"102 71 LINE",
"34 71 LINE",
"34 0 LINE"
);
}
);
};
layerId = "086393EE-48A8-42B6-AE05-10B6A30445E6";
paths = (
{
closed = 1;
nodes = (
"284 0 LINE",
"284 83 LINE",
"217 83 LINE",
"217 293 LINE",
"435 83 LINE",
"380 83 LINE",
"380 0 LINE",
"636 0 LINE",
"636 83 LINE",
"573 83 LINE",
"311 336 LINE",
"312 289 LINE",
"555 500 LINE",
"618 500 LINE",
"618 583 LINE",
"373 583 LINE",
"373 500 LINE",
"428 500 LINE",
"217 318 LINE",
"217 500 LINE",
"284 500 LINE",
"284 583 LINE",
"35 583 LINE",
"35 500 LINE",
"102 500 LINE",
"102 83 LINE",
"35 83 LINE",
"35 0 LINE"
);
}
);
width = 636;
}
);
leftKerningGroup = H;
leftMetricsKey = H;
rightKerningGroup = K;
unicode = 004B;
userData = {
com.typemytype.robofont.guides = (
{
angle = 0;
isGlobal = 0;
magnetic = 5;
x = 467;
y = 593;
}
);
com.typemytype.robofont.layerData = {
b = {
anchors = (
);
components = (
);
contours = (
);
lib = {
};
name = K;
unicodes = (
);
width = 1304;
};
};
org.robofab.postScriptHintData = {
};
};
},
{
color = 3;
glyphname = L;
layers = (
{
anchors = (
{
name = bottom;
position = "{293, 0}";
},
{
name = dot;
position = "{458, 393}";
},
{
name = top;
position = "{140, 583}";
},
{
name = topright;
position = "{303, 583}";
}
);
background = {
anchors = (
{
name = bottom;
position = "{293, 0}";
},
{
name = top;
position = "{140, 583}";
},
{
name = topright;
position = "{423, 583}";
}
);
paths = (
{
closed = 1;
nodes = (
"471 0 LINE",
"471 180 LINE",
"445 180 LINE",
"445 22 LINE",
"155 22 LINE",
"155 561 LINE",
"240 561 LINE",
"240 583 LINE",
"40 583 LINE",
"40 561 LINE",
"125 561 LINE",
"125 22 LINE",
"40 22 LINE",
"40 0 LINE"
);
}
);
};
guideLines = (
{
angle = 90;
position = "{988, 182}";
}
);
layerId = "98C086B7-81AA-4491-8494-0C6A76849168";
paths = (
{
closed = 1;
nodes = (
"471 0 LINE",
"471 180 LINE",
"445 180 LINE",
"445 22 LINE",
"155 22 LINE",
"155 561 LINE",
"240 561 LINE",
"240 583 LINE",
"40 583 LINE",
"40 561 LINE",
"125 561 LINE",
"125 22 LINE",
"40 22 LINE",
"40 0 LINE"
);
}
);
width = 501;
},
{
anchors = (
{
name = bottom;
position = "{286, 0}";
},
{
name = dot;
position = "{493, 402}";
},
{
name = top;
position = "{180, 583}";
},
{
name = topright;
position = "{366, 583}";
}
);
background = {
anchors = (
{
name = bottom;
position = "{286, 0}";
},
{
name = top;
position = "{180, 583}";
},
{
name = topright;
position = "{384, 583}";
}
);
paths = (
{
closed = 1;
nodes = (
"555 0 LINE",
"555 265 LINE",
"430 265 LINE",
"430 120 LINE",
"280 120 LINE",
"280 473 LINE",
"330 473 LINE",
"330 583 LINE",
"30 583 LINE",
"30 473 LINE",
"80 473 LINE",
"80 120 LINE",
"30 120 LINE",
"30 0 LINE"
);
}
);
};
layerId = "EFCDB4D9-E20B-4A8D-9DB5-150AD166B0AE";
paths = (
{
closed = 1;
nodes = (
"555 0 LINE",
"555 265 LINE",
"430 265 LINE",
"430 120 LINE",
"280 120 LINE",
"280 463 LINE",
"330 463 LINE",
"330 583 LINE",
"30 583 LINE",
"30 463 LINE",
"80 463 LINE",
"80 120 LINE",
"30 120 LINE",
"30 0 LINE"
);
}
);
width = 575;
},
{
anchors = (
{
name = bottom;
position = "{276, 0}";
},
{
name = top;
position = "{158, 563}";
},
{
name = topright;
position = "{403, 563}";
}
);
associatedMasterId = "98C086B7-81AA-4491-8494-0C6A76849168";
layerId = "B563AFB4-62B7-4AD9-A50C-F8C410E31337";
name = "Original Regular";
paths = (
{
closed = 1;
nodes = (
"499 0 LINE",
"499 226 LINE",
"433 226 LINE",
"433 53 LINE",
"199 53 LINE",
"199 510 LINE",
"277 510 LINE",
"277 563 LINE",
"39 563 LINE",
"39 510 LINE",
"117 510 LINE",
"117 53 LINE",
"39 53 LINE",
"39 0 LINE"
);
}
);
width = 525;
},
{
anchors = (
{
name = bottom;
position = "{289, 0}";
},
{
name = dot;
position = "{475, 399}";
},
{
name = top;
position = "{159, 583}";
},
{
name = topright;
position = "{334, 583}";
}
);
background = {
anchors = (
{
name = bottom;
position = "{289, 0}";
},
{
name = dot;
position = "{475, 398}";
},
{
name = top;
position = "{159, 583}";
},
{
name = topright;
position = "{334, 583}";
}
);
paths = (
{
closed = 1;
nodes = (
"512 0 LINE",
"512 223 LINE",
"437 223 LINE",
"437 71 LINE",
"217 71 LINE",
"217 512 LINE",
"284 512 LINE",
"284 583 LINE",
"34 583 LINE",
"34 512 LINE",
"102 512 LINE",
"102 71 LINE",
"34 71 LINE",
"34 0 LINE"
);
}
);
};
layerId = "086393EE-48A8-42B6-AE05-10B6A30445E6";
paths = (
{
closed = 1;
nodes = (
"512 0 LINE",
"512 233 LINE",
"427 233 LINE",
"427 83 LINE",
"217 83 LINE",
"217 500 LINE",
"284 500 LINE",
"284 583 LINE",
"35 583 LINE",
"35 500 LINE",
"102 500 LINE",
"102 83 LINE",
"35 83 LINE",
"35 0 LINE"
);
}
);
width = 537;
}
);
leftKerningGroup = H;
leftMetricsKey = H;
rightKerningGroup = L;
unicode = 004C;
userData = {
com.typemytype.robofont.layerData = {
b = {
anchors = (
);
components = (
);
contours = (
);
lib = {
};
name = L;
unicodes = (
);
width = 1055;
};
};
org.robofab.postScriptHintData = {
};
};
},
{
color = 3;
glyphname = Lslash;
layers = (
{
background = {
paths = (
{
closed = 1;
nodes = (
"283 351 LINE",
"272 370 LINE",
"52 243 LINE",
"63 224 LINE"
);
},
{
closed = 1;
nodes = (
"471 0 LINE",
"471 180 LINE",
"445 180 LINE",
"445 22 LINE",
"155 22 LINE",
"155 561 LINE",
"240 561 LINE",
"240 583 LINE",
"40 583 LINE",
"40 561 LINE",
"125 561 LINE",
"125 22 LINE",
"40 22 LINE",
"40 0 LINE"
);
}
);
};
layerId = "98C086B7-81AA-4491-8494-0C6A76849168";
paths = (
{
closed = 1;
nodes = (
"125 260 LINE",
"125 22 LINE",
"40 22 LINE",
"40 0 LINE",
"471 0 LINE",
"471 180 LINE",
"445 180 LINE",
"445 22 LINE",
"155 22 LINE",
"155 277 LINE",
"283 351 LINE",
"272 370 LINE",
"155 302 LINE",
"155 561 LINE",
"240 561 LINE",
"240 583 LINE",
"40 583 LINE",
"40 561 LINE",
"125 561 LINE",
"125 285 LINE",
"52 243 LINE",
"63 224 LINE"
);
}
);
width = 501;
},
{
background = {
paths = (
{
closed = 1;
nodes = (
"417 315 LINE",
"380 419 LINE",
"3 282 LINE",
"40 178 LINE"
);
},
{
closed = 1;
nodes = (
"555 0 LINE",
"555 265 LINE",
"430 265 LINE",
"430 120 LINE",
"280 120 LINE",
"280 463 LINE",
"330 463 LINE",
"330 583 LINE",
"30 583 LINE",
"30 463 LINE",
"80 463 LINE",
"80 120 LINE",
"30 120 LINE",
"30 0 LINE"
);
}
);
};
layerId = "EFCDB4D9-E20B-4A8D-9DB5-150AD166B0AE";
paths = (
{
closed = 1;
nodes = (
"80 193 LINE",
"80 120 LINE",
"30 120 LINE",
"30 0 LINE",
"555 0 LINE",
"555 265 LINE",
"430 265 LINE",
"430 120 LINE",
"280 120 LINE",
"280 265 LINE",
"417 315 LINE",
"380 419 LINE",
"280 383 LINE",
"280 463 LINE",
"330 463 LINE",
"330 583 LINE",
"30 583 LINE",
"30 463 LINE",
"80 463 LINE",
"80 310 LINE",
"3 282 LINE",
"40 178 LINE"
);
}
);
width = 575;
},
{
associatedMasterId = "98C086B7-81AA-4491-8494-0C6A76849168";
components = (
{
name = L;
}
);
layerId = "24A688CE-A1DE-40D3-808C-095F4491B900";
name = "Original Regular";
paths = (
{
closed = 1;
nodes = (
"338 347 LINE",
"338 401 LINE",
"39 250 LINE",
"39 199 LINE"
);
}
);
width = 525;
},
{
background = {
paths = (
{
closed = 1;
nodes = (
"102 218 LINE",
"102 83 LINE",
"34 83 LINE",
"34 0 LINE",
"512 0 LINE",
"512 233 LINE",
"427 233 LINE",
"427 83 LINE",
"217 83 LINE",
"217 270 LINE",
"349 329 LINE",
"325 401 LINE",
"217 353 LINE",
"217 500 LINE",
"284 500 LINE",
"284 583 LINE",
"34 583 LINE",
"34 500 LINE",
"102 500 LINE",
"102 301 LINE",
"27 267 LINE",
"51 195 LINE"
);
}
);
};
layerId = "086393EE-48A8-42B6-AE05-10B6A30445E6";
paths = (
{
closed = 1;
nodes = (
"102 218 LINE",
"102 83 LINE",
"35 83 LINE",
"35 0 LINE",
"512 0 LINE",
"512 233 LINE",
"427 233 LINE",
"427 83 LINE",
"217 83 LINE",
"217 270 LINE",
"354 331 LINE",
"325 401 LINE",
"217 353 LINE",
"217 500 LINE",
"284 500 LINE",
"284 583 LINE",
"35 583 LINE",
"35 500 LINE",
"102 500 LINE",
"102 301 LINE",
"22 265 LINE",
"51 195 LINE"
);
}
);
width = 537;
}
);
leftKerningGroup = H;
widthMetricsKey = L;
rightKerningGroup = L;
rightMetricsKey = L;
unicode = 0141;
userData = {
com.typemytype.robofont.layerData = {
b = {
anchors = (
);
components = (
);
contours = (
);
lib = {
};
name = Lslash;
unicodes = (
);
width = 1243;
};
};
org.robofab.postScriptHintData = {
};
};
},
{
color = 3;
glyphname = M;
layers = (
{
anchors = (
{
name = bottom;
position = "{391, 0}";
},
{
name = top;
position = "{391, 583}";
}
);
background = {
anchors = (
{
name = bottom;
position = "{391, 0}";
},
{
name = top;
position = "{391, 583}";
}
);
paths = (
{
closed = 1;
nodes = (
"228 0 LINE",
"228 22 LINE",
"153 22 LINE",
"153 534 LINE",
"389 68 LINE",
"395 68 LINE",
"629 534 LINE",
"629 22 LINE",
"554 22 LINE",
"554 0 LINE",
"742 0 LINE",
"742 22 LINE",
"657 22 LINE",
"657 561 LINE",
"742 561 LINE",
"742 583 LINE",
"625 583 LINE",
"386 107 LINE",
"398 107 LINE",
"156 583 LINE",
"40 583 LINE",
"40 561 LINE",
"125 561 LINE",
"125 22 LINE",
"40 22 LINE",
"40 0 LINE"
);
}
);
};
layerId = "98C086B7-81AA-4491-8494-0C6A76849168";
paths = (
{
closed = 1;
nodes = (
"228 0 LINE",
"228 22 LINE",
"153 22 LINE",
"153 534 LINE",
"389 68 LINE",
"395 68 LINE",
"629 534 LINE",
"629 22 LINE",
"554 22 LINE",
"554 0 LINE",
"742 0 LINE",
"742 22 LINE",
"657 22 LINE",
"657 561 LINE",
"742 561 LINE",
"742 583 LINE",
"626 583 LINE",
"387 107 LINE",
"398 107 LINE",
"156 583 LINE",
"40 583 LINE",
"40 561 LINE",
"125 561 LINE",
"125 22 LINE",
"40 22 LINE",
"40 0 LINE"
);
}
);
width = 782;
},
{
anchors = (
{
name = bottom;
position = "{416, 0}";
},
{
name = top;
position = "{418, 583}";
}
);
background = {
anchors = (
{
name = bottom;
position = "{416, 0}";
},
{
name = top;
position = "{418, 583}";
}
);
paths = (
{
closed = 1;
nodes = (
"290 0 LINE",
"290 120 LINE",
"245 120 LINE",
"245 386 LINE",
"346 90 LINE",
"489 90 LINE",
"586 386 LINE",
"586 120 LINE",
"541 120 LINE",
"541 0 LINE",
"816 0 LINE",
"816 120 LINE",
"766 120 LINE",
"766 463 LINE",
"816 463 LINE",
"816 583 LINE",
"499 583 LINE",
"407 306 LINE",
"428 306 LINE",
"338 583 LINE",
"30 583 LINE",
"30 463 LINE",
"80 463 LINE",
"80 120 LINE",
"30 120 LINE",
"30 0 LINE"
);
}
);
};
guideLines = (
{
angle = 250.475;
position = "{589, 373}";
}
);
layerId = "EFCDB4D9-E20B-4A8D-9DB5-150AD166B0AE";
paths = (
{
closed = 1;
nodes = (
"290 0 LINE",
"290 120 LINE",
"245 120 LINE",
"245 386 LINE",
"346 90 LINE",
"489 90 LINE",
"586 386 LINE",
"586 120 LINE",
"541 120 LINE",
"541 0 LINE",
"816 0 LINE",
"816 120 LINE",
"766 120 LINE",
"766 463 LINE",
"816 463 LINE",
"816 583 LINE",
"499 583 LINE",
"407 306 LINE",
"428 306 LINE",
"338 583 LINE",
"30 583 LINE",
"30 463 LINE",
"80 463 LINE",
"80 120 LINE",
"30 120 LINE",
"30 0 LINE"
);
}
);
width = 846;
},
{
anchors = (
{
name = bottom;
position = "{405, 0}";
},
{
name = top;
position = "{409, 563}";
}
);
associatedMasterId = "98C086B7-81AA-4491-8494-0C6A76849168";
layerId = "2012C5ED-A144-4D03-87CE-8E6D9650C3C9";
name = "Original Regular";
paths = (
{
closed = 1;
nodes = (
"250 0 LINE",
"250 53 LINE",
"177 53 LINE",
"177 496 LINE",
"392 29 LINE",
"418 29 LINE",
"630 496 LINE",
"630 53 LINE",
"557 53 LINE",
"557 0 LINE",
"784 0 LINE",
"784 53 LINE",
"708 53 LINE",
"708 510 LINE",
"784 510 LINE",
"784 563 LINE",
"590 563 LINE",
"415 168 LINE",
"231 563 LINE",
"40 563 LINE",
"40 510 LINE",
"116 510 LINE",
"116 53 LINE",
"40 53 LINE",
"40 0 LINE"
);
}
);
width = 824;
},
{
anchors = (
{
name = bottom;
position = "{404, 0}";
},
{
name = top;
position = "{405, 583}";
}
);
background = {
paths = (
{
closed = 1;
nodes = (
"259 0 LINE",
"259 83 LINE",
"199 83 LINE",
"199 442 LINE",
"368 82 LINE",
"442 82 LINE",
"608 442 LINE",
"608 83 LINE",
"548 83 LINE",
"548 0 LINE",
"779 0 LINE",
"779 83 LINE",
"712 83 LINE",
"712 500 LINE",
"779 500 LINE",
"779 583 LINE",
"563 583 LINE",
"397 231 LINE",
"413 231 LINE",
"247 583 LINE",
"35 583 LINE",
"35 500 LINE",
"103 500 LINE",
"103 83 LINE",
"35 83 LINE",
"35 0 LINE"
);
}
);
};
layerId = "086393EE-48A8-42B6-AE05-10B6A30445E6";
paths = (
{
closed = 1;
nodes = (
"259 0 LINE",
"259 83 LINE",
"199 83 LINE",
"199 442 LINE",
"368 82 LINE",
"442 82 LINE",
"608 442 LINE",
"608 83 LINE",
"548 83 LINE",
"548 0 LINE",
"779 0 LINE",
"779 83 LINE",
"712 83 LINE",
"712 500 LINE",
"779 500 LINE",
"779 583 LINE",
"563 583 LINE",
"397 231 LINE",
"413 231 LINE",
"247 583 LINE",
"35 583 LINE",
"35 500 LINE",
"102 500 LINE",
"102 83 LINE",
"35 83 LINE",
"35 0 LINE"
);
}
);
width = 814;
}
);
leftKerningGroup = H;
leftMetricsKey = H;
rightKerningGroup = H;
rightMetricsKey = H;
unicode = 004D;
userData = {
com.typemytype.robofont.layerData = {
b = {
anchors = (
);
components = (
);
contours = (
);
lib = {
};
name = M;
unicodes = (
);
width = 1606;
};
};
org.robofab.postScriptHintData = {
};
};
},
{
color = 3;
glyphname = N;
layers = (
{
anchors = (
{
name = bottom;
position = "{352, 0}";
},
{
name = top;
position = "{352, 583}";
}
);
background = {
anchors = (
{
name = bottom;
position = "{352, 0}";
},
{
name = top;
position = "{352, 583}";
}
);
paths = (
{
closed = 1;
nodes = (
"238 0 LINE",
"238 22 LINE",
"153 22 LINE",
"153 535 LINE",
"551 0 LINE",
"578 0 LINE",
"578 561 LINE",
"663 561 LINE",
"663 583 LINE",
"465 583 LINE",
"465 561 LINE",
"550 561 LINE",
"550 44 LINE",
"149 583 LINE",
"40 583 LINE",
"40 561 LINE",
"125 561 LINE",
"125 22 LINE",
"40 22 LINE",
"40 0 LINE"
);
}
);
};
layerId = "98C086B7-81AA-4491-8494-0C6A76849168";
paths = (
{
closed = 1;
nodes = (
"238 0 LINE",
"238 22 LINE",
"153 22 LINE",
"153 535 LINE",
"551 0 LINE",
"578 0 LINE",
"578 561 LINE",
"663 561 LINE",
"663 583 LINE",
"465 583 LINE",
"465 561 LINE",
"550 561 LINE",
"550 44 LINE",
"149 583 LINE",
"40 583 LINE",
"40 561 LINE",
"125 561 LINE",
"125 22 LINE",
"40 22 LINE",
"40 0 LINE"
);
}
);
width = 698;
},
{
anchors = (
{
name = bottom;
position = "{360, 0}";
},
{
name = top;
position = "{360, 583}";
}
);
background = {
anchors = (
{
name = bottom;
position = "{360, 0}";
},
{
name = top;
position = "{360, 583}";
}
);
paths = (
{
closed = 1;
nodes = (
"295 0 LINE",
"295 120 LINE",
"245 120 LINE",
"245 340 LINE",
"427 0 LINE",
"639 0 LINE",
"639 463 LINE",
"689 463 LINE",
"689 583 LINE",
"424 583 LINE",
"424 463 LINE",
"474 463 LINE",
"474 273 LINE",
"307 583 LINE",
"30 583 LINE",
"30 463 LINE",
"80 463 LINE",
"80 120 LINE",
"30 120 LINE",
"30 0 LINE"
);
}
);
};
guideLines = (
{
angle = -61.631;
position = "{250, 330}";
}
);
layerId = "EFCDB4D9-E20B-4A8D-9DB5-150AD166B0AE";
paths = (
{
closed = 1;
nodes = (
"295 0 LINE",
"295 120 LINE",
"245 120 LINE",
"245 340 LINE",
"427 0 LINE",
"639 0 LINE",
"639 463 LINE",
"689 463 LINE",
"689 583 LINE",
"424 583 LINE",
"424 463 LINE",
"474 463 LINE",
"474 273 LINE",
"307 583 LINE",
"30 583 LINE",
"30 463 LINE",
"80 463 LINE",
"80 120 LINE",
"30 120 LINE",
"30 0 LINE"
);
}
);
width = 714;
},
{
anchors = (
{
name = bottom;
position = "{368, 0}";
},
{
name = top;
position = "{351, 563}";
}
);
associatedMasterId = "98C086B7-81AA-4491-8494-0C6A76849168";
layerId = "BCE52C97-2249-4D6A-B1EB-67EA5C5455E9";
name = "Original Regular";
paths = (
{
closed = 1;
nodes = (
"263 0 LINE",
"263 53 LINE",
"183 53 LINE",
"183 479 LINE",
"519 0 LINE",
"600 0 LINE",
"600 510 LINE",
"678 510 LINE",
"678 563 LINE",
"457 563 LINE",
"457 510 LINE",
"537 510 LINE",
"537 108 LINE",
"215 563 LINE",
"41 563 LINE",
"41 510 LINE",
"121 510 LINE",
"121 53 LINE",
"41 53 LINE",
"41 0 LINE"
);
}
);
width = 704;
},
{
anchors = (
{
name = bottom;
position = "{356, 0}";
},
{
name = top;
position = "{356, 583}";
}
);
background = {
anchors = (
{
name = bottom;
position = "{356, 0}";
},
{
name = top;
position = "{356, 583}";
}
);
paths = (
{
closed = 1;
nodes = (
"267 0 LINE",
"267 71 LINE",
"199 71 LINE",
"199 438 LINE",
"489 0 LINE",
"609 0 LINE",
"609 512 LINE",
"676 512 LINE",
"676 583 LINE",
"445 583 LINE",
"445 512 LINE",
"512 512 LINE",
"512 159 LINE",
"228 583 LINE",
"35 583 LINE",
"35 512 LINE",
"103 512 LINE",
"103 71 LINE",
"35 71 LINE",
"35 0 LINE"
);
}
);
};
layerId = "086393EE-48A8-42B6-AE05-10B6A30445E6";
paths = (
{
closed = 1;
nodes = (
"267 0 LINE",
"267 83 LINE",
"199 83 LINE",
"199 413 LINE",
"489 0 LINE",
"609 0 LINE",
"609 500 LINE",
"676 500 LINE",
"676 583 LINE",
"445 583 LINE",
"445 500 LINE",
"512 500 LINE",
"512 187 LINE",
"228 583 LINE",
"35 583 LINE",
"35 500 LINE",
"102 500 LINE",
"102 83 LINE",
"35 83 LINE",
"35 0 LINE"
);
}
);
width = 706;
}
);
leftKerningGroup = H;
leftMetricsKey = H;
rightKerningGroup = N;
unicode = 004E;
userData = {
com.typemytype.robofont.layerData = {
b = {
anchors = (
);
components = (
);
contours = (
);
lib = {
};
name = N;
unicodes = (
);
width = 1444;
};
};
org.robofab.postScriptHintData = {
};
};
},
{
color = 3;
glyphname = Eng;
layers = (
{
background = {
paths = (
{
closed = 1;
nodes = (
"1451 -181 OFFCURVE",
"1478 -147 OFFCURVE",
"1478 -74 CURVE SMOOTH",
"1478 561 LINE",
"1563 561 LINE",
"1563 583 LINE",
"1365 583 LINE",
"1365 561 LINE",
"1450 561 LINE",
"1450 44 LINE",
"1029 583 LINE",
"919 583 LINE",
"919 561 LINE",
"1004 561 LINE",
"1004 22 LINE",
"919 22 LINE",
"919 0 LINE",
"1117 0 LINE",
"1117 22 LINE",
"1032 22 LINE",
"1032 535 LINE",
"1463 -17 LINE",
"1450 25 LINE",
"1450 -77 LINE SMOOTH",
"1450 -139 OFFCURVE",
"1431 -159 OFFCURVE",
"1377 -159 CURVE SMOOTH",
"1365 -159 OFFCURVE",
"1354 -157 OFFCURVE",
"1344 -154 CURVE",
"1340 -176 LINE",
"1353 -179 OFFCURVE",
"1364 -181 OFFCURVE",
"1379 -181 CURVE SMOOTH"
);
},
{
closed = 1;
nodes = (
"238 0 LINE",
"238 22 LINE",
"153 22 LINE",
"153 535 LINE",
"551 0 LINE",
"578 0 LINE",
"578 561 LINE",
"663 561 LINE",
"663 583 LINE",
"465 583 LINE",
"465 561 LINE",
"550 561 LINE",
"550 44 LINE",
"149 583 LINE",
"40 583 LINE",
"40 561 LINE",
"125 561 LINE",
"125 22 LINE",
"40 22 LINE",
"40 0 LINE"
);
}
);
};
layerId = "98C086B7-81AA-4491-8494-0C6A76849168";
paths = (
{
closed = 1;
nodes = (
"551 -181 OFFCURVE",
"578 -147 OFFCURVE",
"578 -74 CURVE SMOOTH",
"578 561 LINE",
"663 561 LINE",
"663 583 LINE",
"465 583 LINE",
"465 561 LINE",
"550 561 LINE",
"550 44 LINE",
"149 583 LINE",
"40 583 LINE",
"40 561 LINE",
"125 561 LINE",
"125 22 LINE",
"40 22 LINE",
"40 0 LINE",
"238 0 LINE",
"238 22 LINE",
"153 22 LINE",
"153 535 LINE",
"563 -17 LINE",
"550 25 LINE",
"550 -77 LINE SMOOTH",
"550 -139 OFFCURVE",
"531 -159 OFFCURVE",
"477 -159 CURVE SMOOTH",
"465 -159 OFFCURVE",
"454 -157 OFFCURVE",
"444 -154 CURVE",
"440 -176 LINE",
"453 -179 OFFCURVE",
"464 -181 OFFCURVE",
"479 -181 CURVE SMOOTH"
);
}
);
width = 698;
},
{
background = {
paths = (
{
closed = 1;
nodes = (
"295 0 LINE",
"295 120 LINE",
"245 120 LINE",
"245 340 LINE",
"427 0 LINE",
"639 0 LINE",
"639 463 LINE",
"689 463 LINE",
"689 583 LINE",
"424 583 LINE",
"424 463 LINE",
"474 463 LINE",
"474 273 LINE",
"307 583 LINE",
"30 583 LINE",
"30 463 LINE",
"80 463 LINE",
"80 120 LINE",
"30 120 LINE",
"30 0 LINE"
);
}
);
};
guideLines = (
{
angle = -55.4456;
position = "{307, 583}";
}
);
layerId = "EFCDB4D9-E20B-4A8D-9DB5-150AD166B0AE";
paths = (
{
closed = 1;
nodes = (
"563 -181 OFFCURVE",
"639 -109 OFFCURVE",
"639 18 CURVE SMOOTH",
"639 463 LINE",
"689 463 LINE",
"689 583 LINE",
"424 583 LINE",
"424 463 LINE",
"474 463 LINE",
"474 348 LINE",
"307 583 LINE",
"30 583 LINE",
"30 463 LINE",
"80 463 LINE",
"80 120 LINE",
"30 120 LINE",
"30 0 LINE",
"295 0 LINE",
"295 120 LINE",
"245 120 LINE",
"245 330 LINE",
"489 -13 LINE",
"474 86 LINE",
"474 4 LINE SMOOTH",
"474 -37 OFFCURVE",
"432 -51 OFFCURVE",
"405 -51 CURVE SMOOTH",
"384 -51 OFFCURVE",
"369 -47 OFFCURVE",
"357 -42 CURVE",
"327 -157 LINE",
"351 -169 OFFCURVE",
"390 -181 OFFCURVE",
"442 -181 CURVE SMOOTH"
);
}
);
width = 714;
},
{
associatedMasterId = "98C086B7-81AA-4491-8494-0C6A76849168";
layerId = "EE831355-60BD-4A42-99EF-A17A304F08CC";
name = "Original Regular";
paths = (
{
closed = 1;
nodes = (
"411 -184 LINE SMOOTH",
"516 -184 OFFCURVE",
"598 -128 OFFCURVE",
"598 -1 CURVE SMOOTH",
"598 510 LINE",
"676 510 LINE",
"676 563 LINE",
"455 563 LINE",
"455 510 LINE",
"535 510 LINE",
"535 108 LINE",
"213 563 LINE",
"39 563 LINE",
"39 510 LINE",
"119 510 LINE",
"119 53 LINE",
"39 53 LINE",
"39 0 LINE",
"261 0 LINE",
"261 53 LINE",
"181 53 LINE",
"181 479 LINE",
"535 -14 LINE",
"536 -88 OFFCURVE",
"492 -130 OFFCURVE",
"409 -130 CURVE SMOOTH",
"391 -130 LINE",
"391 -184 LINE"
);
}
);
width = 702;
},
{
background = {
paths = (
{
closed = 1;
nodes = (
"557 -181 OFFCURVE",
"609 -128 OFFCURVE",
"609 -28 CURVE SMOOTH",
"609 512 LINE",
"676 512 LINE",
"676 583 LINE",
"445 583 LINE",
"445 512 LINE",
"512 512 LINE",
"512 196 LINE",
"228 583 LINE",
"35 583 LINE",
"35 512 LINE",
"103 512 LINE",
"103 71 LINE",
"35 71 LINE",
"35 0 LINE",
"267 0 LINE",
"267 71 LINE",
"199 71 LINE",
"199 433 LINE",
"526 -15 LINE",
"512 56 LINE",
"512 -36 LINE SMOOTH",
"512 -88 OFFCURVE",
"482 -105 OFFCURVE",
"441 -105 CURVE SMOOTH",
"425 -105 OFFCURVE",
"412 -102 OFFCURVE",
"401 -98 CURVE",
"384 -166 LINE",
"402 -174 OFFCURVE",
"427 -181 OFFCURVE",
"461 -181 CURVE SMOOTH"
);
}
);
};
layerId = "086393EE-48A8-42B6-AE05-10B6A30445E6";
paths = (
{
closed = 1;
nodes = (
"557 -181 OFFCURVE",
"609 -123 OFFCURVE",
"609 -16 CURVE SMOOTH",
"609 500 LINE",
"676 500 LINE",
"676 583 LINE",
"445 583 LINE",
"445 500 LINE",
"512 500 LINE",
"512 234 LINE",
"228 583 LINE",
"35 583 LINE",
"35 500 LINE",
"102 500 LINE",
"102 83 LINE",
"35 83 LINE",
"35 0 LINE",
"267 0 LINE",
"267 83 LINE",
"199 83 LINE",
"199 407 LINE",
"526 -14 LINE",
"512 63 LINE",
"512 -26 LINE SMOOTH",
"512 -75 OFFCURVE",
"482 -93 OFFCURVE",
"445 -93 CURVE SMOOTH",
"425 -93 OFFCURVE",
"412 -88 OFFCURVE",
"401 -84 CURVE",
"384 -164 LINE",
"402 -173 OFFCURVE",
"427 -181 OFFCURVE",
"461 -181 CURVE SMOOTH"
);
}
);
width = 706;
}
);
leftKerningGroup = H;
leftMetricsKey = H;
rightKerningGroup = N;
rightMetricsKey = N;
unicode = 014A;
userData = {
org.robofab.postScriptHintData = {
};
};
},
{
color = 3;
glyphname = O;
layers = (
{
anchors = (
{
name = bottom;
position = "{352, 0}";
},
{
name = ogonek;
position = "{374, 0}";
},
{
name = top;
position = "{351, 583}";
},
{
name = topright;
position = "{447, 583}";
}
);
background = {
anchors = (
{
name = bottom;
position = "{352, 0}";
},
{
name = ogonek;
position = "{374, 0}";
},
{
name = top;
position = "{351, 583}";
},
{
name = topright;
position = "{417, 583}";
}
);
paths = (
{
closed = 1;
nodes = (
"530 -10 OFFCURVE",
"656 112 OFFCURVE",
"656 291 CURVE SMOOTH",
"656 468 OFFCURVE",
"531 594 OFFCURVE",
"353 594 CURVE SMOOTH",
"175 594 OFFCURVE",
"50 468 OFFCURVE",
"50 291 CURVE SMOOTH",
"50 112 OFFCURVE",
"176 -10 OFFCURVE",
"353 -10 CURVE SMOOTH"
);
},
{
closed = 1;
nodes = (
"192 15 OFFCURVE",
"82 124 OFFCURVE",
"82 290 CURVE SMOOTH",
"82 454 OFFCURVE",
"191 569 OFFCURVE",
"353 569 CURVE SMOOTH",
"515 569 OFFCURVE",
"624 454 OFFCURVE",
"624 290 CURVE SMOOTH",
"624 124 OFFCURVE",
"514 15 OFFCURVE",
"353 15 CURVE SMOOTH"
);
}
);
};
layerId = "98C086B7-81AA-4491-8494-0C6A76849168";
paths = (
{
closed = 1;
nodes = (
"534 -10 OFFCURVE",
"656 112 OFFCURVE",
"656 291 CURVE SMOOTH",
"656 468 OFFCURVE",
"534 594 OFFCURVE",
"353 594 CURVE SMOOTH",
"172 594 OFFCURVE",
"50 468 OFFCURVE",
"50 291 CURVE SMOOTH",
"50 112 OFFCURVE",
"172 -10 OFFCURVE",
"353 -10 CURVE SMOOTH"
);
},
{
closed = 1;
nodes = (
"190 15 OFFCURVE",
"82 124 OFFCURVE",
"82 290 CURVE SMOOTH",
"82 454 OFFCURVE",
"190 569 OFFCURVE",
"353 569 CURVE SMOOTH",
"516 569 OFFCURVE",
"624 454 OFFCURVE",
"624 290 CURVE SMOOTH",
"624 124 OFFCURVE",
"516 15 OFFCURVE",
"353 15 CURVE SMOOTH"
);
}
);
width = 706;
},
{
anchors = (
{
name = bottom;
position = "{365, 0}";
},
{
name = ogonek;
position = "{409, 0}";
},
{
name = top;
position = "{365, 583}";
},
{
name = topright;
position = "{483, 583}";
}
);
background = {
anchors = (
{
name = bottom;
position = "{365, 0}";
},
{
name = ogonek;
position = "{409, 0}";
},
{
name = top;
position = "{365, 583}";
},
{
name = topright;
position = "{443, 583}";
}
);
paths = (
{
closed = 1;
nodes = (
"569 -10 OFFCURVE",
"701 110 OFFCURVE",
"701 292 CURVE SMOOTH",
"701 474 OFFCURVE",
"569 594 OFFCURVE",
"365 594 CURVE SMOOTH",
"161 594 OFFCURVE",
"29 474 OFFCURVE",
"29 292 CURVE SMOOTH",
"29 110 OFFCURVE",
"161 -10 OFFCURVE",
"365 -10 CURVE SMOOTH"
);
},
{
closed = 1;
nodes = (
"284 130 OFFCURVE",
"235 189 OFFCURVE",
"235 292 CURVE SMOOTH",
"235 395 OFFCURVE",
"284 454 OFFCURVE",
"365 454 CURVE SMOOTH",
"446 454 OFFCURVE",
"495 395 OFFCURVE",
"495 292 CURVE SMOOTH",
"495 189 OFFCURVE",
"446 130 OFFCURVE",
"365 130 CURVE SMOOTH"
);
}
);
};
layerId = "EFCDB4D9-E20B-4A8D-9DB5-150AD166B0AE";
paths = (
{
closed = 1;
nodes = (
"569 -10 OFFCURVE",
"701 110 OFFCURVE",
"701 292 CURVE SMOOTH",
"701 474 OFFCURVE",
"569 594 OFFCURVE",
"365 594 CURVE SMOOTH",
"161 594 OFFCURVE",
"29 474 OFFCURVE",
"29 292 CURVE SMOOTH",
"29 110 OFFCURVE",
"161 -10 OFFCURVE",
"365 -10 CURVE SMOOTH"
);
},
{
closed = 1;
nodes = (
"284 130 OFFCURVE",
"235 189 OFFCURVE",
"235 292 CURVE SMOOTH",
"235 395 OFFCURVE",
"284 454 OFFCURVE",
"365 454 CURVE SMOOTH",
"446 454 OFFCURVE",
"495 395 OFFCURVE",
"495 292 CURVE SMOOTH",
"495 189 OFFCURVE",
"446 130 OFFCURVE",
"365 130 CURVE SMOOTH"
);
}
);
width = 730;
},
{
anchors = (
{
name = bottom;
position = "{354.5, 0}";
},
{
name = ogonek;
position = "{388, 0}";
},
{
name = top;
position = "{353, 563}";
},
{
name = topright;
position = "{430, 563}";
}
);
associatedMasterId = "98C086B7-81AA-4491-8494-0C6A76849168";
layerId = "2219C52B-9581-4C19-BE43-EAC56884D0AC";
name = "Original Regular";
paths = (
{
closed = 1;
nodes = (
"540 -11 OFFCURVE",
"659 122 OFFCURVE",
"659 280 CURVE SMOOTH",
"659 438 OFFCURVE",
"539 573 OFFCURVE",
"354 573 CURVE SMOOTH",
"169 573 OFFCURVE",
"49 438 OFFCURVE",
"49 280 CURVE SMOOTH",
"49 123 OFFCURVE",
"169 -11 OFFCURVE",
"354 -11 CURVE SMOOTH"
);
},
{
closed = 1;
nodes = (
"216 49 OFFCURVE",
"137 151 OFFCURVE",
"137 279 CURVE SMOOTH",
"137 408 OFFCURVE",
"216 514 OFFCURVE",
"354 514 CURVE SMOOTH",
"491 514 OFFCURVE",
"572 408 OFFCURVE",
"572 280 CURVE SMOOTH",
"572 153 OFFCURVE",
"491 49 OFFCURVE",
"354 49 CURVE SMOOTH"
);
}
);
width = 709;
},
{
anchors = (
{
name = bottom;
position = "{359, 0}";
},
{
name = ogonek;
position = "{392, 0}";
},
{
name = top;
position = "{358, 583}";
},
{
name = topright;
position = "{465, 583}";
}
);
background = {
paths = (
{
closed = 1;
nodes = (
"552 -10 OFFCURVE",
"679 111 OFFCURVE",
"679 292 CURVE SMOOTH",
"679 472 OFFCURVE",
"552 594 OFFCURVE",
"359 594 CURVE SMOOTH",
"167 594 OFFCURVE",
"40 472 OFFCURVE",
"40 292 CURVE SMOOTH",
"40 111 OFFCURVE",
"167 -10 OFFCURVE",
"359 -10 CURVE SMOOTH"
);
},
{
closed = 1;
nodes = (
"237 87 OFFCURVE",
"159 165 OFFCURVE",
"159 291 CURVE SMOOTH",
"159 417 OFFCURVE",
"237 497 OFFCURVE",
"359 497 CURVE SMOOTH",
"481 497 OFFCURVE",
"560 417 OFFCURVE",
"560 291 CURVE SMOOTH",
"560 165 OFFCURVE",
"481 87 OFFCURVE",
"359 87 CURVE SMOOTH"
);
}
);
};
layerId = "086393EE-48A8-42B6-AE05-10B6A30445E6";
paths = (
{
closed = 1;
nodes = (
"552 -10 OFFCURVE",
"679 117 OFFCURVE",
"679 292 CURVE SMOOTH",
"679 467 OFFCURVE",
"552 594 OFFCURVE",
"359 594 CURVE SMOOTH",
"166 594 OFFCURVE",
"40 467 OFFCURVE",
"40 292 CURVE SMOOTH",
"40 117 OFFCURVE",
"166 -10 OFFCURVE",
"359 -10 CURVE SMOOTH"
);
},
{
closed = 1;
nodes = (
"237 87 OFFCURVE",
"159 167 OFFCURVE",
"159 291 CURVE SMOOTH",
"159 415 OFFCURVE",
"237 497 OFFCURVE",
"359 497 CURVE SMOOTH",
"481 497 OFFCURVE",
"560 415 OFFCURVE",
"560 291 CURVE SMOOTH",
"560 167 OFFCURVE",
"481 87 OFFCURVE",
"359 87 CURVE SMOOTH"
);
}
);
width = 719;
}
);
leftKerningGroup = O;
rightKerningGroup = O;
rightMetricsKey = "=|";
unicode = 004F;
userData = {
com.typemytype.robofont.layerData = {
b = {
anchors = (
);
components = (
);
contours = (
);
lib = {
};
name = O;
unicodes = (
);
width = 1456;
};
};
org.robofab.postScriptHintData = {
};
};
},
{
color = 3;
glyphname = Oslash;
layers = (
{
anchors = (
{
name = top;
position = "{351, 583}";
}
);
background = {
paths = (
{
closed = 1;
nodes = (
"605 590 LINE",
"585 606 LINE",
"105 -5 LINE",
"125 -21 LINE"
);
},
{
closed = 1;
nodes = (
"534 -10 OFFCURVE",
"656 112 OFFCURVE",
"656 291 CURVE SMOOTH",
"656 468 OFFCURVE",
"534 594 OFFCURVE",
"353 594 CURVE SMOOTH",
"172 594 OFFCURVE",
"50 468 OFFCURVE",
"50 291 CURVE SMOOTH",
"50 112 OFFCURVE",
"172 -10 OFFCURVE",
"353 -10 CURVE SMOOTH"
);
},
{
closed = 1;
nodes = (
"190 15 OFFCURVE",
"82 124 OFFCURVE",
"82 290 CURVE SMOOTH",
"82 454 OFFCURVE",
"190 569 OFFCURVE",
"353 569 CURVE SMOOTH",
"516 569 OFFCURVE",
"624 454 OFFCURVE",
"624 290 CURVE SMOOTH",
"624 124 OFFCURVE",
"516 15 OFFCURVE",
"353 15 CURVE SMOOTH"
);
}
);
};
layerId = "98C086B7-81AA-4491-8494-0C6A76849168";
paths = (
{
closed = 1;
nodes = (
"173 41 LINE",
"222 8 OFFCURVE",
"283 -10 OFFCURVE",
"353 -10 CURVE SMOOTH",
"534 -10 OFFCURVE",
"656 112 OFFCURVE",
"656 291 CURVE SMOOTH",
"656 389 OFFCURVE",
"619 472 OFFCURVE",
"554 526 CURVE",
"605 590 LINE",
"585 606 LINE",
"534 541 LINE",
"485 575 OFFCURVE",
"424 594 OFFCURVE",
"353 594 CURVE SMOOTH",
"172 594 OFFCURVE",
"50 468 OFFCURVE",
"50 291 CURVE SMOOTH",
"50 191 OFFCURVE",
"88 109 OFFCURVE",
"153 56 CURVE",
"105 -5 LINE",
"125 -21 LINE"
);
},
{
closed = 1;
nodes = (
"82 454 OFFCURVE",
"190 569 OFFCURVE",
"353 569 CURVE SMOOTH",
"428 569 OFFCURVE",
"486 544 OFFCURVE",
"524 514 CURVE",
"524 528 LINE",
"163 69 LINE",
"173 75 LINE",
"115 122 OFFCURVE",
"82 198 OFFCURVE",
"82 290 CURVE SMOOTH"
);
},
{
closed = 1;
nodes = (
"543 511 LINE",
"530 509 LINE",
"585 463 OFFCURVE",
"624 390 OFFCURVE",
"624 290 CURVE SMOOTH",
"624 124 OFFCURVE",
"516 15 OFFCURVE",
"353 15 CURVE SMOOTH",
"288 15 OFFCURVE",
"232 32 OFFCURVE",
"187 64 CURVE",
"184 54 LINE"
);
}
);
width = 706;
},
{
anchors = (
{
name = top;
position = "{365, 583}";
}
);
background = {
paths = (
{
closed = 1;
nodes = (
"656 554 LINE",
"563 629 LINE",
"74 30 LINE",
"167 -45 LINE"
);
},
{
closed = 1;
nodes = (
"569 -10 OFFCURVE",
"701 110 OFFCURVE",
"701 292 CURVE SMOOTH",
"701 474 OFFCURVE",
"569 594 OFFCURVE",
"365 594 CURVE SMOOTH",
"161 594 OFFCURVE",
"29 474 OFFCURVE",
"29 292 CURVE SMOOTH",
"29 110 OFFCURVE",
"161 -10 OFFCURVE",
"365 -10 CURVE SMOOTH"
);
},
{
closed = 1;
nodes = (
"284 130 OFFCURVE",
"235 189 OFFCURVE",
"235 292 CURVE SMOOTH",
"235 395 OFFCURVE",
"284 454 OFFCURVE",
"365 454 CURVE SMOOTH",
"446 454 OFFCURVE",
"495 395 OFFCURVE",
"495 292 CURVE SMOOTH",
"495 189 OFFCURVE",
"446 130 OFFCURVE",
"365 130 CURVE SMOOTH"
);
}
);
};
layerId = "EFCDB4D9-E20B-4A8D-9DB5-150AD166B0AE";
paths = (
{
closed = 1;
nodes = (
"216 15 LINE",
"260 -1 OFFCURVE",
"310 -10 OFFCURVE",
"365 -10 CURVE SMOOTH",
"569 -10 OFFCURVE",
"701 110 OFFCURVE",
"701 292 CURVE SMOOTH",
"701 380 OFFCURVE",
"670 453 OFFCURVE",
"616 505 CURVE",
"656 554 LINE",
"563 629 LINE",
"514 569 LINE",
"470 585 OFFCURVE",
"420 594 OFFCURVE",
"365 594 CURVE SMOOTH",
"161 594 OFFCURVE",
"29 474 OFFCURVE",
"29 292 CURVE SMOOTH",
"29 204 OFFCURVE",
"60 131 OFFCURVE",
"114 79 CURVE",
"74 30 LINE",
"167 -45 LINE"
);
},
{
closed = 1;
nodes = (
"235 395 OFFCURVE",
"284 454 OFFCURVE",
"365 454 CURVE SMOOTH",
"394 454 OFFCURVE",
"418 446 OFFCURVE",
"437 435 CURVE",
"441 476 LINE",
"213 195 LINE",
"249 210 LINE",
"240 233 OFFCURVE",
"235 260 OFFCURVE",
"235 292 CURVE SMOOTH"
);
},
{
closed = 1;
nodes = (
"517 389 LINE",
"481 374 LINE",
"490 351 OFFCURVE",
"495 324 OFFCURVE",
"495 292 CURVE SMOOTH",
"495 189 OFFCURVE",
"446 130 OFFCURVE",
"365 130 CURVE SMOOTH",
"336 130 OFFCURVE",
"312 138 OFFCURVE",
"293 149 CURVE",
"289 108 LINE"
);
}
);
width = 730;
},
{
anchors = (
{
name = bottom;
position = "{330, 0}";
},
{
name = top;
position = "{330, 563}";
}
);
associatedMasterId = "98C086B7-81AA-4491-8494-0C6A76849168";
components = (
{
name = O;
transform = "{1, 0, 0, 1, -24, -1}";
}
);
layerId = "F4F2E133-D625-464A-A719-B49823668E45";
name = "Original Regular";
paths = (
{
closed = 1;
nodes = (
"592 569 LINE",
"554 595 LINE",
"79 -10 LINE",
"117 -37 LINE"
);
}
);
width = 660;
},
{
anchors = (
{
name = top;
position = "{358, 583}";
}
);
background = {
anchors = (
{
name = top;
position = "{358, 583}";
}
);
paths = (
{
closed = 1;
nodes = (
"552 -10 OFFCURVE",
"679 117 OFFCURVE",
"679 292 CURVE SMOOTH",
"679 467 OFFCURVE",
"552 594 OFFCURVE",
"359 594 CURVE SMOOTH",
"166 594 OFFCURVE",
"40 467 OFFCURVE",
"40 292 CURVE SMOOTH",
"40 117 OFFCURVE",
"166 -10 OFFCURVE",
"359 -10 CURVE SMOOTH"
);
},
{
closed = 1;
nodes = (
"237 89 OFFCURVE",
"159 168 OFFCURVE",
"159 291 CURVE SMOOTH",
"159 414 OFFCURVE",
"237 495 OFFCURVE",
"359 495 CURVE SMOOTH",
"481 495 OFFCURVE",
"560 414 OFFCURVE",
"560 291 CURVE SMOOTH",
"560 168 OFFCURVE",
"481 89 OFFCURVE",
"359 89 CURVE SMOOTH"
);
}
);
};
guideLines = (
{
angle = 231.2476;
position = "{332, 319}";
},
{
angle = 231.2362;
position = "{389, 266}";
}
);
layerId = "086393EE-48A8-42B6-AE05-10B6A30445E6";
paths = (
{
closed = 1;
nodes = (
"195 25 LINE",
"241 2 OFFCURVE",
"297 -10 OFFCURVE",
"359 -10 CURVE SMOOTH",
"552 -10 OFFCURVE",
"679 111 OFFCURVE",
"679 292 CURVE SMOOTH",
"679 383 OFFCURVE",
"645 460 OFFCURVE",
"587 513 CURVE",
"634 571 LINE",
"574 620 LINE",
"523 557 LINE",
"478 581 OFFCURVE",
"422 594 OFFCURVE",
"359 594 CURVE SMOOTH",
"167 594 OFFCURVE",
"40 472 OFFCURVE",
"40 292 CURVE SMOOTH",
"40 199 OFFCURVE",
"74 123 OFFCURVE",
"134 70 CURVE",
"87 14 LINE",
"147 -35 LINE"
);
},
{
closed = 1;
nodes = (
"159 414 OFFCURVE",
"237 497 OFFCURVE",
"359 497 CURVE SMOOTH",
"408 497 OFFCURVE",
"445 485 OFFCURVE",
"472 467 CURVE",
"463 482 LINE",
"191 144 LINE",
"209 148 LINE",
"172 191 OFFCURVE",
"159 237 OFFCURVE",
"159 291 CURVE SMOOTH"
);
},
{
closed = 1;
nodes = (
"525 435 LINE",
"512 435 LINE",
"543 393 OFFCURVE",
"560 349 OFFCURVE",
"560 291 CURVE SMOOTH",
"560 168 OFFCURVE",
"481 87 OFFCURVE",
"359 87 CURVE SMOOTH",
"312 87 OFFCURVE",
"275 99 OFFCURVE",
"247 115 CURVE",
"254 98 LINE"
);
}
);
width = 719;
}
);
leftKerningGroup = O;
leftMetricsKey = O;
rightKerningGroup = O;
rightMetricsKey = O;
unicode = 00D8;
userData = {
com.typemytype.robofont.layerData = {
b = {
anchors = (
);
components = (
);
contours = (
);
lib = {
};
name = Oslash;
unicodes = (
);
width = 1598;
};
};
org.robofab.postScriptHintData = {
};
};
},
{
color = 3;
glyphname = OE;
layers = (
{
background = {
paths = (
{
closed = 1;
nodes = (
"908 0 LINE",
"908 165 LINE",
"882 165 LINE",
"882 22 LINE",
"542 22 LINE",
"542 286 LINE",
"758 286 LINE",
"758 196 LINE",
"783 196 LINE",
"783 393 LINE",
"757 393 LINE",
"757 308 LINE",
"542 308 LINE",
"542 561 LINE",
"867 561 LINE",
"867 423 LINE",
"893 423 LINE",
"893 583 LINE",
"359 583 LINE SMOOTH",
"129 583 OFFCURVE",
"50 457 OFFCURVE",
"50 293 CURVE SMOOTH",
"50 127 OFFCURVE",
"130 0 OFFCURVE",
"362 0 CURVE SMOOTH"
);
},
{
closed = 1;
nodes = (
"149 22 OFFCURVE",
"82 140 OFFCURVE",
"82 294 CURVE SMOOTH",
"82 447 OFFCURVE",
"148 561 OFFCURVE",
"367 561 CURVE SMOOTH",
"512 561 LINE",
"512 22 LINE",
"364 22 LINE SMOOTH"
);
}
);
};
layerId = "98C086B7-81AA-4491-8494-0C6A76849168";
paths = (
{
closed = 1;
nodes = (
"908 0 LINE",
"908 165 LINE",
"882 165 LINE",
"882 22 LINE",
"542 22 LINE",
"542 286 LINE",
"758 286 LINE",
"758 196 LINE",
"783 196 LINE",
"783 393 LINE",
"757 393 LINE",
"757 308 LINE",
"542 308 LINE",
"542 561 LINE",
"867 561 LINE",
"867 423 LINE",
"893 423 LINE",
"893 583 LINE",
"359 583 LINE SMOOTH",
"129 583 OFFCURVE",
"50 457 OFFCURVE",
"50 293 CURVE SMOOTH",
"50 127 OFFCURVE",
"130 0 OFFCURVE",
"362 0 CURVE SMOOTH"
);
},
{
closed = 1;
nodes = (
"149 22 OFFCURVE",
"82 140 OFFCURVE",
"82 294 CURVE SMOOTH",
"82 447 OFFCURVE",
"148 561 OFFCURVE",
"367 561 CURVE SMOOTH",
"512 561 LINE",
"512 22 LINE",
"364 22 LINE SMOOTH"
);
}
);
width = 965;
},
{
background = {
paths = (
{
closed = 1;
nodes = (
"976 0 LINE",
"976 215 LINE",
"851 215 LINE",
"851 120 LINE",
"653 120 LINE",
"653 235 LINE",
"701 235 LINE",
"701 185 LINE",
"801 185 LINE",
"801 400 LINE",
"701 400 LINE",
"701 355 LINE",
"653 355 LINE",
"653 463 LINE",
"831 463 LINE",
"831 373 LINE",
"956 373 LINE",
"956 583 LINE",
"360 583 LINE SMOOTH",
"147 583 OFFCURVE",
"29 473 OFFCURVE",
"29 293 CURVE SMOOTH",
"29 107 OFFCURVE",
"143 0 OFFCURVE",
"360 0 CURVE SMOOTH"
);
},
{
closed = 1;
nodes = (
"281 120 OFFCURVE",
"235 176 OFFCURVE",
"235 293 CURVE SMOOTH",
"235 409 OFFCURVE",
"281 463 OFFCURVE",
"378 463 CURVE SMOOTH",
"453 463 LINE",
"453 120 LINE",
"378 120 LINE SMOOTH"
);
}
);
};
layerId = "EFCDB4D9-E20B-4A8D-9DB5-150AD166B0AE";
paths = (
{
closed = 1;
nodes = (
"966 0 LINE",
"966 215 LINE",
"841 215 LINE",
"841 120 LINE",
"643 120 LINE",
"643 235 LINE",
"691 235 LINE",
"691 185 LINE",
"791 185 LINE",
"791 400 LINE",
"691 400 LINE",
"691 355 LINE",
"643 355 LINE",
"643 463 LINE",
"821 463 LINE",
"821 373 LINE",
"946 373 LINE",
"946 583 LINE",
"360 583 LINE SMOOTH",
"147 583 OFFCURVE",
"29 473 OFFCURVE",
"29 293 CURVE SMOOTH",
"29 107 OFFCURVE",
"143 0 OFFCURVE",
"360 0 CURVE SMOOTH"
);
},
{
closed = 1;
nodes = (
"281 120 OFFCURVE",
"235 176 OFFCURVE",
"235 293 CURVE SMOOTH",
"235 409 OFFCURVE",
"281 463 OFFCURVE",
"378 463 CURVE SMOOTH",
"443 463 LINE",
"443 120 LINE",
"378 120 LINE SMOOTH"
);
}
);
width = 982;
},
{
associatedMasterId = "98C086B7-81AA-4491-8494-0C6A76849168";
layerId = "03DB3F77-D83D-4F1B-B3F9-8483E42A0E1D";
name = "Original Regular";
paths = (
{
closed = 1;
nodes = (
"904 0 LINE",
"904 174 LINE",
"841 174 LINE",
"841 52 LINE",
"570 52 LINE",
"570 259 LINE",
"747 259 LINE",
"747 193 LINE",
"788 193 LINE",
"788 378 LINE",
"747 378 LINE",
"747 313 LINE",
"570 313 LINE",
"570 510 LINE",
"836 510 LINE",
"836 394 LINE",
"899 394 LINE",
"899 563 LINE",
"362 563 LINE SMOOTH",
"169 563 OFFCURVE",
"49 456 OFFCURVE",
"49 283 CURVE SMOOTH",
"49 108 OFFCURVE",
"169 0 OFFCURVE",
"363 0 CURVE SMOOTH"
);
},
{
closed = 1;
nodes = (
"225 52 OFFCURVE",
"136 141 OFFCURVE",
"136 282 CURVE SMOOTH",
"136 424 OFFCURVE",
"226 510 OFFCURVE",
"368 510 CURVE SMOOTH",
"489 510 LINE",
"489 52 LINE",
"369 52 LINE"
);
}
);
width = 952;
},
{
background = {
paths = (
{
closed = 1;
nodes = (
"937 0 LINE",
"937 190 LINE",
"862 190 LINE",
"862 71 LINE",
"593 71 LINE",
"593 261 LINE",
"725 261 LINE",
"725 191 LINE",
"787 191 LINE",
"787 397 LINE",
"724 397 LINE",
"724 332 LINE",
"593 332 LINE",
"593 512 LINE",
"844 512 LINE",
"844 398 LINE",
"920 398 LINE",
"920 583 LINE",
"360 583 LINE SMOOTH",
"138 583 OFFCURVE",
"40 465 OFFCURVE",
"40 293 CURVE SMOOTH",
"40 117 OFFCURVE",
"137 0 OFFCURVE",
"361 0 CURVE SMOOTH"
);
},
{
closed = 1;
nodes = (
"215 71 OFFCURVE",
"159 158 OFFCURVE",
"159 294 CURVE SMOOTH",
"159 428 OFFCURVE",
"215 512 OFFCURVE",
"373 512 CURVE SMOOTH",
"478 512 LINE",
"478 71 LINE",
"371 71 LINE SMOOTH"
);
}
);
};
layerId = "086393EE-48A8-42B6-AE05-10B6A30445E6";
paths = (
{
closed = 1;
nodes = (
"937 0 LINE",
"937 196 LINE",
"862 196 LINE",
"862 83 LINE",
"593 83 LINE",
"593 254 LINE",
"721 254 LINE",
"721 189 LINE",
"790 189 LINE",
"790 397 LINE",
"720 397 LINE",
"720 337 LINE",
"593 337 LINE",
"593 500 LINE",
"844 500 LINE",
"844 392 LINE",
"920 392 LINE",
"920 583 LINE",
"360 583 LINE SMOOTH",
"138 583 OFFCURVE",
"40 467 OFFCURVE",
"40 293 CURVE SMOOTH",
"40 115 OFFCURVE",
"137 0 OFFCURVE",
"361 0 CURVE SMOOTH"
);
},
{
closed = 1;
nodes = (
"215 83 OFFCURVE",
"159 163 OFFCURVE",
"159 293 CURVE SMOOTH",
"159 423 OFFCURVE",
"215 500 OFFCURVE",
"373 500 CURVE SMOOTH",
"478 500 LINE",
"478 83 LINE",
"371 83 LINE SMOOTH"
);
}
);
width = 973.5;
}
);
leftKerningGroup = O;
leftMetricsKey = O;
rightKerningGroup = E;
rightMetricsKey = E;
unicode = 0152;
userData = {
com.typemytype.robofont.layerData = {
b = {
anchors = (
);
components = (
);
contours = (
);
lib = {
};
name = OE;
unicodes = (
);
width = 1953;
};
};
org.robofab.postScriptHintData = {
};
};
},
{
color = 3;
glyphname = P;
layers = (
{
anchors = (
{
name = top;
position = "{306, 583}";
}
);
background = {
anchors = (
{
name = top;
position = "{306, 583}";
}
);
paths = (
{
closed = 1;
nodes = (
"260 0 LINE",
"260 22 LINE",
"155 22 LINE",
"155 561 LINE",
"328 561 LINE SMOOTH",
"436 561 OFFCURVE",
"473 505 OFFCURVE",
"473 424 CURVE SMOOTH",
"473 341 OFFCURVE",
"436 287 OFFCURVE",
"328 287 CURVE SMOOTH",
"205 287 LINE",
"205 265 LINE",
"336 265 LINE SMOOTH",
"449 265 OFFCURVE",
"505 323 OFFCURVE",
"505 424 CURVE SMOOTH",
"505 525 OFFCURVE",
"449 583 OFFCURVE",
"336 583 CURVE SMOOTH",
"40 583 LINE",
"40 561 LINE",
"125 561 LINE",
"125 22 LINE",
"40 22 LINE",
"40 0 LINE"
);
}
);
};
layerId = "98C086B7-81AA-4491-8494-0C6A76849168";
paths = (
{
closed = 1;
nodes = (
"260 0 LINE",
"260 22 LINE",
"155 22 LINE",
"155 561 LINE",
"328 561 LINE SMOOTH",
"436 561 OFFCURVE",
"473 507 OFFCURVE",
"473 424 CURVE SMOOTH",
"473 341 OFFCURVE",
"436 287 OFFCURVE",
"328 287 CURVE SMOOTH",
"205 287 LINE",
"205 265 LINE",
"336 265 LINE SMOOTH",
"449 265 OFFCURVE",
"505 323 OFFCURVE",
"505 424 CURVE SMOOTH",
"505 525 OFFCURVE",
"449 583 OFFCURVE",
"336 583 CURVE SMOOTH",
"40 583 LINE",
"40 561 LINE",
"125 561 LINE",
"125 22 LINE",
"40 22 LINE",
"40 0 LINE"
);
}
);
width = 561;
},
{
anchors = (
{
name = top;
position = "{314, 583}";
}
);
background = {
anchors = (
{
name = top;
position = "{314, 583}";
}
);
paths = (
{
closed = 1;
nodes = (
"360 0 LINE",
"360 120 LINE",
"280 120 LINE",
"280 463 LINE",
"351 463 LINE SMOOTH",
"397 463 OFFCURVE",
"423 442 OFFCURVE",
"423 400 CURVE SMOOTH",
"423 360 OFFCURVE",
"391 338 OFFCURVE",
"351 338 CURVE SMOOTH",
"320 338 LINE",
"320 218 LINE",
"389 218 LINE SMOOTH",
"547 218 OFFCURVE",
"629 274 OFFCURVE",
"629 400 CURVE SMOOTH",
"629 526 OFFCURVE",
"547 583 OFFCURVE",
"389 583 CURVE SMOOTH",
"30 583 LINE",
"30 463 LINE",
"80 463 LINE",
"80 120 LINE",
"30 120 LINE",
"30 0 LINE"
);
}
);
};
layerId = "EFCDB4D9-E20B-4A8D-9DB5-150AD166B0AE";
paths = (
{
closed = 1;
nodes = (
"360 0 LINE",
"360 120 LINE",
"280 120 LINE",
"280 463 LINE",
"351 463 LINE SMOOTH",
"402 463 OFFCURVE",
"423 442 OFFCURVE",
"423 400 CURVE SMOOTH",
"423 360 OFFCURVE",
"396 338 OFFCURVE",
"351 338 CURVE SMOOTH",
"320 338 LINE",
"320 218 LINE",
"389 218 LINE SMOOTH",
"539 218 OFFCURVE",
"629 274 OFFCURVE",
"629 400 CURVE SMOOTH",
"629 526 OFFCURVE",
"539 583 OFFCURVE",
"389 583 CURVE SMOOTH",
"30 583 LINE",
"30 463 LINE",
"80 463 LINE",
"80 120 LINE",
"30 120 LINE",
"30 0 LINE"
);
}
);
width = 639;
},
{
anchors = (
{
name = top;
position = "{291, 563}";
}
);
associatedMasterId = "98C086B7-81AA-4491-8494-0C6A76849168";
layerId = "5D237D83-DE0E-420D-A04A-415F41D6FB95";
name = "Original Regular";
paths = (
{
closed = 1;
nodes = (
"277 0 LINE",
"277 53 LINE",
"199 53 LINE",
"199 510 LINE",
"326 510 LINE SMOOTH",
"402 510 OFFCURVE",
"444 472 OFFCURVE",
"444 402 CURVE SMOOTH",
"444 327 OFFCURVE",
"396 286 OFFCURVE",
"309 286 CURVE SMOOTH",
"237 286 LINE",
"237 233 LINE",
"312 233 LINE SMOOTH",
"452 233 OFFCURVE",
"528 293 OFFCURVE",
"528 403 CURVE SMOOTH",
"528 507 OFFCURVE",
"454 563 OFFCURVE",
"317 563 CURVE SMOOTH",
"39 563 LINE",
"39 510 LINE",
"117 510 LINE",
"117 53 LINE",
"39 53 LINE",
"39 0 LINE"
);
}
);
width = 563;
},
{
anchors = (
{
name = top;
position = "{309, 583}";
}
);
background = {
anchors = (
{
name = top;
position = "{309, 583}";
}
);
paths = (
{
closed = 1;
nodes = (
"309 0 LINE",
"309 71 LINE",
"217 71 LINE",
"217 512 LINE",
"339 512 LINE SMOOTH",
"418 512 OFFCURVE",
"447 475 OFFCURVE",
"447 412 CURVE SMOOTH",
"447 351 OFFCURVE",
"415 313 OFFCURVE",
"339 313 CURVE SMOOTH",
"262 313 LINE",
"262 242 LINE",
"362 242 LINE SMOOTH",
"493 242 OFFCURVE",
"566 299 OFFCURVE",
"566 412 CURVE SMOOTH",
"566 526 OFFCURVE",
"493 583 OFFCURVE",
"362 583 CURVE SMOOTH",
"34 583 LINE",
"34 512 LINE",
"102 512 LINE",
"102 71 LINE",
"34 71 LINE",
"34 0 LINE"
);
}
);
};
layerId = "086393EE-48A8-42B6-AE05-10B6A30445E6";
paths = (
{
closed = 1;
nodes = (
"309 0 LINE",
"309 83 LINE",
"217 83 LINE",
"217 500 LINE",
"338 500 LINE SMOOTH",
"409 500 OFFCURVE",
"447 471 OFFCURVE",
"447 409 CURVE SMOOTH",
"447 349 OFFCURVE",
"407 319 OFFCURVE",
"338 319 CURVE SMOOTH",
"262 319 LINE",
"262 236 LINE",
"352 236 LINE SMOOTH",
"493 236 OFFCURVE",
"566 292 OFFCURVE",
"566 409 CURVE SMOOTH",
"566 526 OFFCURVE",
"493 583 OFFCURVE",
"352 583 CURVE SMOOTH",
"35 583 LINE",
"35 500 LINE",
"102 500 LINE",
"102 83 LINE",
"35 83 LINE",
"35 0 LINE"
);
}
);
width = 599;
}
);
leftKerningGroup = H;
leftMetricsKey = H;
rightKerningGroup = P;
unicode = 0050;
userData = {
com.typemytype.robofont.layerData = {
b = {
anchors = (
);
components = (
);
contours = (
{
points = (
{
segmentType = line;
smooth = 0;
x = 353;
y = 1095;
},
{
segmentType = line;
smooth = 1;
x = 759;
y = 1095;
},
{
smooth = 0;
x = 936;
y = 1095;
},
{
smooth = 0;
x = 1024;
y = 960;
},
{
segmentType = curve;
smooth = 1;
x = 1024;
y = 823;
},
{
smooth = 0;
x = 1024;
y = 683;
},
{
smooth = 0;
x = 934;
y = 544;
},
{
segmentType = curve;
smooth = 1;
x = 759;
y = 544;
},
{
segmentType = line;
smooth = 0;
x = 353;
y = 544;
}
);
},
{
points = (
{
segmentType = line;
smooth = 0;
x = 135;
y = 0;
},
{
segmentType = line;
smooth = 0;
x = 512;
y = 0;
},
{
segmentType = line;
smooth = 0;
x = 512;
y = 58;
},
{
segmentType = line;
smooth = 0;
x = 353;
y = 58;
},
{
segmentType = line;
smooth = 0;
x = 353;
y = 483;
},
{
segmentType = line;
smooth = 1;
x = 759;
y = 483;
},
{
smooth = 0;
x = 984;
y = 483;
},
{
smooth = 0;
x = 1098;
y = 656;
},
{
segmentType = curve;
smooth = 1;
x = 1098;
y = 826;
},
{
smooth = 0;
x = 1098;
y = 989;
},
{
smooth = 0;
x = 984;
y = 1154;
},
{
segmentType = curve;
smooth = 1;
x = 759;
y = 1154;
},
{
segmentType = line;
smooth = 0;
x = 122;
y = 1154;
},
{
segmentType = line;
smooth = 0;
x = 122;
y = 1095;
},
{
segmentType = line;
smooth = 0;
x = 278;
y = 1095;
},
{
segmentType = line;
smooth = 0;
x = 278;
y = 58;
},
{
segmentType = line;
smooth = 0;
x = 135;
y = 58;
}
);
}
);
lib = {
};
name = P;
unicodes = (
);
width = 1226;
};
};
org.robofab.postScriptHintData = {
};
};
},
{
color = 3;
glyphname = Thorn;
layers = (
{
background = {
paths = (
{
closed = 1;
nodes = (
"260 0 LINE",
"260 22 LINE",
"155 22 LINE",
"155 441 LINE",
"328 441 LINE SMOOTH",
"436 441 OFFCURVE",
"473 385 OFFCURVE",
"473 304 CURVE SMOOTH",
"473 221 OFFCURVE",
"436 167 OFFCURVE",
"328 167 CURVE SMOOTH",
"205 167 LINE",
"205 145 LINE",
"336 145 LINE SMOOTH",
"449 145 OFFCURVE",
"505 203 OFFCURVE",
"505 304 CURVE SMOOTH",
"505 405 OFFCURVE",
"449 463 OFFCURVE",
"336 463 CURVE SMOOTH",
"155 463 LINE",
"155 561 LINE",
"240 561 LINE",
"240 583 LINE",
"40 583 LINE",
"40 561 LINE",
"125 561 LINE",
"125 22 LINE",
"40 22 LINE",
"40 0 LINE"
);
}
);
};
layerId = "98C086B7-81AA-4491-8494-0C6A76849168";
paths = (
{
closed = 1;
nodes = (
"260 0 LINE",
"260 22 LINE",
"155 22 LINE",
"155 441 LINE",
"328 441 LINE SMOOTH",
"436 441 OFFCURVE",
"473 385 OFFCURVE",
"473 304 CURVE SMOOTH",
"473 221 OFFCURVE",
"436 167 OFFCURVE",
"328 167 CURVE SMOOTH",
"205 167 LINE",
"205 145 LINE",
"336 145 LINE SMOOTH",
"449 145 OFFCURVE",
"505 203 OFFCURVE",
"505 304 CURVE SMOOTH",
"505 405 OFFCURVE",
"449 463 OFFCURVE",
"336 463 CURVE SMOOTH",
"155 463 LINE",
"155 561 LINE",
"240 561 LINE",
"240 583 LINE",
"40 583 LINE",
"40 561 LINE",
"125 561 LINE",
"125 22 LINE",
"40 22 LINE",
"40 0 LINE"
);
}
);
width = 561;
},
{
background = {
paths = (
{
closed = 1;
nodes = (
"360 0 LINE",
"360 120 LINE",
"280 120 LINE",
"280 319 LINE",
"392 319 LINE SMOOTH",
"412 319 OFFCURVE",
"423 310 OFFCURVE",
"423 291 CURVE SMOOTH",
"423 274 OFFCURVE",
"406 264 OFFCURVE",
"392 264 CURVE SMOOTH",
"320 264 LINE",
"320 149 LINE",
"449 149 LINE SMOOTH",
"567 149 OFFCURVE",
"629 199 OFFCURVE",
"629 291 CURVE SMOOTH",
"629 383 OFFCURVE",
"567 434 OFFCURVE",
"449 434 CURVE SMOOTH",
"280 434 LINE",
"280 463 LINE",
"360 463 LINE",
"360 583 LINE",
"30 583 LINE",
"30 463 LINE",
"80 463 LINE",
"80 120 LINE",
"30 120 LINE",
"30 0 LINE"
);
}
);
};
layerId = "EFCDB4D9-E20B-4A8D-9DB5-150AD166B0AE";
paths = (
{
closed = 1;
nodes = (
"360 0 LINE",
"360 120 LINE",
"280 120 LINE",
"280 319 LINE",
"392 319 LINE SMOOTH",
"412 319 OFFCURVE",
"423 310 OFFCURVE",
"423 291 CURVE SMOOTH",
"423 274 OFFCURVE",
"406 264 OFFCURVE",
"392 264 CURVE SMOOTH",
"320 264 LINE",
"320 149 LINE",
"449 149 LINE SMOOTH",
"567 149 OFFCURVE",
"629 199 OFFCURVE",
"629 291 CURVE SMOOTH",
"629 383 OFFCURVE",
"567 434 OFFCURVE",
"449 434 CURVE SMOOTH",
"280 434 LINE",
"280 463 LINE",
"360 463 LINE",
"360 583 LINE",
"30 583 LINE",
"30 463 LINE",
"80 463 LINE",
"80 120 LINE",
"30 120 LINE",
"30 0 LINE"
);
}
);
width = 639;
},
{
associatedMasterId = "98C086B7-81AA-4491-8494-0C6A76849168";
layerId = "9F63CA76-080A-4669-955C-461E0C5E0A7F";
name = "Original Regular";
paths = (
{
closed = 1;
nodes = (
"289 0 LINE",
"289 53 LINE",
"210 53 LINE",
"210 407 LINE",
"194 394 LINE",
"331 394 LINE SMOOTH",
"400 394 OFFCURVE",
"442 361 OFFCURVE",
"442 306 CURVE SMOOTH",
"442 241 OFFCURVE",
"401 208 OFFCURVE",
"333 208 CURVE SMOOTH",
"240 208 LINE",
"240 160 LINE",
"333 160 LINE SMOOTH",
"453 160 OFFCURVE",
"520 211 OFFCURVE",
"520 306 CURVE SMOOTH",
"520 394 OFFCURVE",
"452 446 OFFCURVE",
"331 446 CURVE SMOOTH",
"194 446 LINE",
"210 436 LINE",
"210 510 LINE",
"289 510 LINE",
"289 563 LINE",
"50 563 LINE",
"50 510 LINE",
"128 510 LINE",
"128 53 LINE",
"50 53 LINE",
"50 0 LINE"
);
}
);
width = 555;
},
{
background = {
paths = (
{
closed = 1;
nodes = (
"309 0 LINE",
"309 83 LINE",
"217 83 LINE",
"217 365 LINE",
"359 365 LINE SMOOTH",
"423 365 OFFCURVE",
"447 338 OFFCURVE",
"447 296 CURVE SMOOTH",
"447 254 OFFCURVE",
"420 228 OFFCURVE",
"359 228 CURVE SMOOTH",
"262 228 LINE",
"262 148 LINE",
"392 148 LINE SMOOTH",
"507 148 OFFCURVE",
"566 201 OFFCURVE",
"566 296 CURVE SMOOTH",
"566 391 OFFCURVE",
"507 445 OFFCURVE",
"392 445 CURVE SMOOTH",
"217 445 LINE",
"217 500 LINE",
"299 500 LINE",
"299 583 LINE",
"34 583 LINE",
"34 500 LINE",
"102 500 LINE",
"102 83 LINE",
"34 83 LINE",
"34 0 LINE"
);
}
);
};
layerId = "086393EE-48A8-42B6-AE05-10B6A30445E6";
paths = (
{
closed = 1;
nodes = (
"309 0 LINE",
"309 83 LINE",
"217 83 LINE",
"217 365 LINE",
"349 365 LINE SMOOTH",
"418 365 OFFCURVE",
"447 342 OFFCURVE",
"447 296 CURVE SMOOTH",
"447 251 OFFCURVE",
"417 228 OFFCURVE",
"349 228 CURVE SMOOTH",
"262 228 LINE",
"262 148 LINE",
"382 148 LINE SMOOTH",
"507 148 OFFCURVE",
"566 201 OFFCURVE",
"566 296 CURVE SMOOTH",
"566 391 OFFCURVE",
"507 445 OFFCURVE",
"382 445 CURVE SMOOTH",
"217 445 LINE",
"217 500 LINE",
"299 500 LINE",
"299 583 LINE",
"35 583 LINE",
"35 500 LINE",
"102 500 LINE",
"102 83 LINE",
"35 83 LINE",
"35 0 LINE"
);
}
);
width = 599;
}
);
leftKerningGroup = H;
leftMetricsKey = H;
rightKerningGroup = Thorn;
rightMetricsKey = P;
unicode = 00DE;
userData = {
com.typemytype.robofont.layerData = {
b = {
anchors = (
);
components = (
);
contours = (
);
lib = {
};
name = Thorn;
unicodes = (
);
width = 1226;
};
};
org.robofab.postScriptHintData = {
};
};
},
{
color = 3;
glyphname = Q;
layers = (
{
background = {
paths = (
{
closed = 1;
nodes = (
"534 -10 OFFCURVE",
"656 112 OFFCURVE",
"656 291 CURVE SMOOTH",
"656 468 OFFCURVE",
"534 594 OFFCURVE",
"353 594 CURVE SMOOTH",
"172 594 OFFCURVE",
"50 468 OFFCURVE",
"50 291 CURVE SMOOTH",
"50 112 OFFCURVE",
"172 -10 OFFCURVE",
"353 -10 CURVE SMOOTH"
);
},
{
closed = 1;
nodes = (
"190 15 OFFCURVE",
"82 124 OFFCURVE",
"82 290 CURVE SMOOTH",
"82 454 OFFCURVE",
"190 569 OFFCURVE",
"353 569 CURVE SMOOTH",
"516 569 OFFCURVE",
"624 454 OFFCURVE",
"624 290 CURVE SMOOTH",
"624 124 OFFCURVE",
"516 15 OFFCURVE",
"353 15 CURVE SMOOTH"
);
}
);
};
layerId = "98C086B7-81AA-4491-8494-0C6A76849168";
paths = (
{
closed = 1;
nodes = (
"526 -102 OFFCURVE",
"546 -99 OFFCURVE",
"570 -90 CURVE",
"565 -69 LINE",
"545 -77 OFFCURVE",
"526 -81 OFFCURVE",
"507 -81 CURVE SMOOTH",
"445 -81 OFFCURVE",
"405 -52 OFFCURVE",
"369 -10 CURVE",
"541 -3 OFFCURVE",
"656 117 OFFCURVE",
"656 291 CURVE SMOOTH",
"656 468 OFFCURVE",
"534 594 OFFCURVE",
"353 594 CURVE SMOOTH",
"172 594 OFFCURVE",
"50 468 OFFCURVE",
"50 291 CURVE SMOOTH",
"50 118 OFFCURVE",
"164 -2 OFFCURVE",
"337 -10 CURVE",
"383 -64 OFFCURVE",
"432 -102 OFFCURVE",
"506 -102 CURVE SMOOTH"
);
},
{
closed = 1;
nodes = (
"190 15 OFFCURVE",
"82 124 OFFCURVE",
"82 290 CURVE SMOOTH",
"82 454 OFFCURVE",
"190 569 OFFCURVE",
"353 569 CURVE SMOOTH",
"516 569 OFFCURVE",
"624 454 OFFCURVE",
"624 290 CURVE SMOOTH",
"624 124 OFFCURVE",
"516 15 OFFCURVE",
"353 15 CURVE SMOOTH"
);
}
);
width = 706;
},
{
background = {
paths = (
{
closed = 1;
nodes = (
"569 -10 OFFCURVE",
"701 110 OFFCURVE",
"701 292 CURVE SMOOTH",
"701 474 OFFCURVE",
"569 594 OFFCURVE",
"365 594 CURVE SMOOTH",
"161 594 OFFCURVE",
"29 474 OFFCURVE",
"29 292 CURVE SMOOTH",
"29 110 OFFCURVE",
"161 -10 OFFCURVE",
"365 -10 CURVE SMOOTH"
);
},
{
closed = 1;
nodes = (
"284 130 OFFCURVE",
"235 189 OFFCURVE",
"235 292 CURVE SMOOTH",
"235 395 OFFCURVE",
"284 454 OFFCURVE",
"365 454 CURVE SMOOTH",
"446 454 OFFCURVE",
"495 395 OFFCURVE",
"495 292 CURVE SMOOTH",
"495 189 OFFCURVE",
"446 130 OFFCURVE",
"365 130 CURVE SMOOTH"
);
}
);
};
layerId = "EFCDB4D9-E20B-4A8D-9DB5-150AD166B0AE";
paths = (
{
closed = 1;
nodes = (
"608 -181 OFFCURVE",
"643 -172 OFFCURVE",
"676 -158 CURVE",
"646 -40 LINE",
"622 -50 OFFCURVE",
"590 -56 OFFCURVE",
"559 -56 CURVE SMOOTH",
"505 -56 OFFCURVE",
"468 -32 OFFCURVE",
"457 -1 CURVE",
"604 29 OFFCURVE",
"701 136 OFFCURVE",
"701 292 CURVE SMOOTH",
"701 474 OFFCURVE",
"569 594 OFFCURVE",
"365 594 CURVE SMOOTH",
"161 594 OFFCURVE",
"29 474 OFFCURVE",
"29 292 CURVE SMOOTH",
"29 137 OFFCURVE",
"123 29 OFFCURVE",
"274 -1 CURVE",
"318 -120 OFFCURVE",
"426 -181 OFFCURVE",
"551 -181 CURVE SMOOTH"
);
},
{
closed = 1;
nodes = (
"284 130 OFFCURVE",
"235 189 OFFCURVE",
"235 292 CURVE SMOOTH",
"235 395 OFFCURVE",
"284 454 OFFCURVE",
"365 454 CURVE SMOOTH",
"446 454 OFFCURVE",
"495 395 OFFCURVE",
"495 292 CURVE SMOOTH",
"495 189 OFFCURVE",
"446 130 OFFCURVE",
"365 130 CURVE SMOOTH"
);
}
);
width = 730;
},
{
associatedMasterId = "98C086B7-81AA-4491-8494-0C6A76849168";
layerId = "571E8BA3-27FF-4BCF-A329-DEBC395B7AC5";
name = "Original Regular";
paths = (
{
closed = 1;
nodes = (
"543 -134 OFFCURVE",
"563 -131 OFFCURVE",
"583 -125 CURVE",
"582 -72 LINE",
"561 -77 OFFCURVE",
"542 -80 OFFCURVE",
"525 -80 CURVE SMOOTH",
"466 -80 OFFCURVE",
"432 -48 OFFCURVE",
"398 -8 CURVE",
"560 11 OFFCURVE",
"659 135 OFFCURVE",
"659 280 CURVE SMOOTH",
"659 438 OFFCURVE",
"539 573 OFFCURVE",
"354 573 CURVE SMOOTH",
"169 573 OFFCURVE",
"49 438 OFFCURVE",
"49 280 CURVE SMOOTH",
"49 131 OFFCURVE",
"156 2 OFFCURVE",
"327 -9 CURVE",
"378 -86 OFFCURVE",
"443 -134 OFFCURVE",
"525 -134 CURVE SMOOTH"
);
},
{
closed = 1;
nodes = (
"216 49 OFFCURVE",
"137 151 OFFCURVE",
"137 279 CURVE SMOOTH",
"137 408 OFFCURVE",
"216 514 OFFCURVE",
"354 514 CURVE SMOOTH",
"491 514 OFFCURVE",
"572 408 OFFCURVE",
"572 280 CURVE SMOOTH",
"572 153 OFFCURVE",
"491 49 OFFCURVE",
"354 49 CURVE SMOOTH"
);
}
);
width = 706;
},
{
background = {
paths = (
{
closed = 1;
nodes = (
"552 -10 OFFCURVE",
"679 117 OFFCURVE",
"679 292 CURVE SMOOTH",
"679 467 OFFCURVE",
"552 594 OFFCURVE",
"359 594 CURVE SMOOTH",
"166 594 OFFCURVE",
"40 467 OFFCURVE",
"40 292 CURVE SMOOTH",
"40 117 OFFCURVE",
"166 -10 OFFCURVE",
"359 -10 CURVE SMOOTH"
);
},
{
closed = 1;
nodes = (
"237 89 OFFCURVE",
"159 168 OFFCURVE",
"159 291 CURVE SMOOTH",
"159 414 OFFCURVE",
"237 495 OFFCURVE",
"359 495 CURVE SMOOTH",
"481 495 OFFCURVE",
"560 414 OFFCURVE",
"560 291 CURVE SMOOTH",
"560 168 OFFCURVE",
"481 89 OFFCURVE",
"359 89 CURVE SMOOTH"
);
}
);
};
layerId = "086393EE-48A8-42B6-AE05-10B6A30445E6";
paths = (
{
closed = 1;
nodes = (
"563 -151 OFFCURVE",
"597 -145 OFFCURVE",
"625 -130 CURVE",
"606 -51 LINE",
"584 -62 OFFCURVE",
"563 -67 OFFCURVE",
"533 -67 CURVE SMOOTH",
"475 -67 OFFCURVE",
"437 -38 OFFCURVE",
"423 -5 CURVE",
"571 18 OFFCURVE",
"679 129 OFFCURVE",
"679 292 CURVE SMOOTH",
"679 467 OFFCURVE",
"552 594 OFFCURVE",
"359 594 CURVE SMOOTH",
"166 594 OFFCURVE",
"40 467 OFFCURVE",
"40 292 CURVE SMOOTH",
"40 130 OFFCURVE",
"144 17 OFFCURVE",
"306 -7 CURVE",
"351 -99 OFFCURVE",
"429 -151 OFFCURVE",
"529 -151 CURVE SMOOTH"
);
},
{
closed = 1;
nodes = (
"237 87 OFFCURVE",
"159 164 OFFCURVE",
"159 291 CURVE SMOOTH",
"159 415 OFFCURVE",
"237 497 OFFCURVE",
"359 497 CURVE SMOOTH",
"481 497 OFFCURVE",
"560 415 OFFCURVE",
"560 291 CURVE SMOOTH",
"560 164 OFFCURVE",
"481 87 OFFCURVE",
"359 87 CURVE SMOOTH"
);
}
);
width = 719;
}
);
leftKerningGroup = O;
leftMetricsKey = O;
widthMetricsKey = O;
rightKerningGroup = O;
unicode = 0051;
userData = {
com.typemytype.robofont.layerData = {
b = {
anchors = (
);
components = (
);
contours = (
);
lib = {
};
name = Q;
unicodes = (
);
width = 1438;
};
};
org.robofab.postScriptHintData = {
};
};
},
{
color = 3;
glyphname = R;
layers = (
{
anchors = (
{
name = bottom;
position = "{327, 0}";
},
{
name = top;
position = "{297, 583}";
}
);
background = {
anchors = (
{
name = bottom;
position = "{327, 0}";
},
{
name = top;
position = "{297, 583}";
}
);
paths = (
{
closed = 1;
nodes = (
"260 0 LINE",
"260 22 LINE",
"155 22 LINE",
"155 561 LINE",
"328 561 LINE SMOOTH",
"436 561 OFFCURVE",
"473 507 OFFCURVE",
"473 424 CURVE SMOOTH",
"473 341 OFFCURVE",
"436 287 OFFCURVE",
"328 287 CURVE SMOOTH",
"205 287 LINE",
"205 265 LINE",
"336 265 LINE SMOOTH",
"449 265 OFFCURVE",
"505 323 OFFCURVE",
"505 424 CURVE SMOOTH",
"505 525 OFFCURVE",
"449 583 OFFCURVE",
"336 583 CURVE SMOOTH",
"40 583 LINE",
"40 561 LINE",
"125 561 LINE",
"125 22 LINE",
"40 22 LINE",
"40 0 LINE"
);
}
);
};
layerId = "98C086B7-81AA-4491-8494-0C6A76849168";
paths = (
{
closed = 1;
nodes = (
"240 0 LINE",
"240 22 LINE",
"155 22 LINE",
"155 561 LINE",
"328 561 LINE SMOOTH",
"436 561 OFFCURVE",
"473 507 OFFCURVE",
"473 424 CURVE SMOOTH",
"473 341 OFFCURVE",
"436 287 OFFCURVE",
"328 287 CURVE SMOOTH",
"205 287 LINE",
"205 265 LINE",
"299 265 LINE",
"463 0 LINE",
"568 0 LINE",
"568 22 LINE",
"483 22 LINE",
"327 273 LINE",
"321 265 LINE",
"336 265 LINE SMOOTH",
"449 265 OFFCURVE",
"505 323 OFFCURVE",
"505 424 CURVE SMOOTH",
"505 525 OFFCURVE",
"449 583 OFFCURVE",
"336 583 CURVE SMOOTH",
"40 583 LINE",
"40 561 LINE",
"125 561 LINE",
"125 22 LINE",
"40 22 LINE",
"40 0 LINE"
);
}
);
width = 599;
},
{
anchors = (
{
name = bottom;
position = "{355, 0}";
},
{
name = top;
position = "{353, 583}";
}
);
background = {
anchors = (
{
name = bottom;
position = "{355, 0}";
},
{
name = top;
position = "{353, 583}";
}
);
paths = (
{
closed = 1;
nodes = (
"1130 0 LINE",
"1130 120 LINE",
"1080 120 LINE",
"1080 463 LINE",
"1151 463 LINE SMOOTH",
"1197 463 OFFCURVE",
"1223 442 OFFCURVE",
"1223 400 CURVE SMOOTH",
"1223 360 OFFCURVE",
"1191 338 OFFCURVE",
"1151 338 CURVE SMOOTH",
"1120 338 LINE",
"1120 218 LINE",
"1141 218 LINE",
"1268 0 LINE",
"1483 0 LINE",
"1483 121 LINE",
"1423 121 LINE",
"1329 278 LINE",
"1168 218 LINE",
"1189 218 LINE SMOOTH",
"1347 218 OFFCURVE",
"1429 274 OFFCURVE",
"1429 400 CURVE SMOOTH",
"1429 526 OFFCURVE",
"1347 583 OFFCURVE",
"1189 583 CURVE SMOOTH",
"830 583 LINE",
"830 463 LINE",
"880 463 LINE",
"880 120 LINE",
"830 120 LINE",
"830 0 LINE"
);
},
{
closed = 1;
nodes = (
"360 0 LINE",
"360 120 LINE",
"280 120 LINE",
"280 463 LINE",
"351 463 LINE SMOOTH",
"402 463 OFFCURVE",
"423 442 OFFCURVE",
"423 400 CURVE SMOOTH",
"423 360 OFFCURVE",
"396 338 OFFCURVE",
"351 338 CURVE SMOOTH",
"320 338 LINE",
"320 218 LINE",
"389 218 LINE SMOOTH",
"539 218 OFFCURVE",
"629 274 OFFCURVE",
"629 400 CURVE SMOOTH",
"629 526 OFFCURVE",
"539 583 OFFCURVE",
"389 583 CURVE SMOOTH",
"30 583 LINE",
"30 463 LINE",
"80 463 LINE",
"80 120 LINE",
"30 120 LINE",
"30 0 LINE"
);
}
);
};
guideLines = (
{
angle = 90;
position = "{409, 506}";
}
);
layerId = "EFCDB4D9-E20B-4A8D-9DB5-150AD166B0AE";
paths = (
{
closed = 1;
nodes = (
"330 0 LINE",
"330 120 LINE",
"280 120 LINE",
"280 463 LINE",
"351 463 LINE SMOOTH",
"402 463 OFFCURVE",
"423 442 OFFCURVE",
"423 400 CURVE SMOOTH",
"423 360 OFFCURVE",
"396 338 OFFCURVE",
"351 338 CURVE SMOOTH",
"320 338 LINE",
"320 218 LINE",
"341 218 LINE",
"468 0 LINE",
"683 0 LINE",
"683 120 LINE",
"623 120 LINE",
"529 278 LINE",
"368 218 LINE",
"389 218 LINE SMOOTH",
"539 218 OFFCURVE",
"629 274 OFFCURVE",
"629 400 CURVE SMOOTH",
"629 526 OFFCURVE",
"539 583 OFFCURVE",
"389 583 CURVE SMOOTH",
"30 583 LINE",
"30 463 LINE",
"80 463 LINE",
"80 120 LINE",
"30 120 LINE",
"30 0 LINE"
);
}
);
width = 683;
},
{
anchors = (
{
name = bottom;
position = "{324, 0}";
},
{
name = top;
position = "{292, 563}";
}
);
associatedMasterId = "98C086B7-81AA-4491-8494-0C6A76849168";
layerId = "28200B5C-4679-434C-8ACD-AE1A4DB6EF88";
name = "Original Regular";
paths = (
{
closed = 1;
nodes = (
"277 0 LINE",
"277 53 LINE",
"199 53 LINE",
"199 510 LINE",
"336 510 LINE SMOOTH",
"412 510 OFFCURVE",
"445 467 OFFCURVE",
"445 415 CURVE SMOOTH",
"445 366 OFFCURVE",
"420 313 OFFCURVE",
"322 313 CURVE SMOOTH",
"234 313 LINE",
"234 258 LINE",
"303 258 LINE",
"454 0 LINE",
"593 0 LINE",
"593 53 LINE",
"510 53 LINE",
"381 266 LINE",
"485 282 OFFCURVE",
"526 338 OFFCURVE",
"526 416 CURVE SMOOTH",
"526 514 OFFCURVE",
"453 563 OFFCURVE",
"335 563 CURVE SMOOTH",
"39 563 LINE",
"39 510 LINE",
"117 510 LINE",
"117 53 LINE",
"39 53 LINE",
"39 0 LINE"
);
}
);
width = 619;
},
{
anchors = (
{
name = bottom;
position = "{340, 0}";
},
{
name = top;
position = "{324, 583}";
}
);
background = {
anchors = (
{
name = bottom;
position = "{340, 0}";
},
{
name = top;
position = "{324, 583}";
}
);
paths = (
{
closed = 1;
nodes = (
"284 0 LINE",
"284 71 LINE",
"217 71 LINE",
"217 512 LINE",
"339 512 LINE SMOOTH",
"418 512 OFFCURVE",
"447 475 OFFCURVE",
"447 412 CURVE SMOOTH",
"447 351 OFFCURVE",
"415 313 OFFCURVE",
"339 313 CURVE SMOOTH",
"262 313 LINE",
"262 242 LINE",
"319 242 LINE",
"465 0 LINE",
"625 0 LINE",
"625 71 LINE",
"552 71 LINE",
"427 276 LINE",
"344 242 LINE",
"362 242 LINE SMOOTH",
"493 242 OFFCURVE",
"566 299 OFFCURVE",
"566 412 CURVE SMOOTH",
"566 526 OFFCURVE",
"493 583 OFFCURVE",
"362 583 CURVE SMOOTH",
"34 583 LINE",
"34 512 LINE",
"102 512 LINE",
"102 71 LINE",
"34 71 LINE",
"34 0 LINE"
);
}
);
};
layerId = "086393EE-48A8-42B6-AE05-10B6A30445E6";
paths = (
{
closed = 1;
nodes = (
"284 0 LINE",
"284 83 LINE",
"217 83 LINE",
"217 500 LINE",
"333 500 LINE SMOOTH",
"418 500 OFFCURVE",
"447 466 OFFCURVE",
"447 409 CURVE SMOOTH",
"447 353 OFFCURVE",
"415 319 OFFCURVE",
"333 319 CURVE SMOOTH",
"262 319 LINE",
"262 236 LINE",
"319 236 LINE",
"465 0 LINE",
"623 0 LINE",
"623 83 LINE",
"550 83 LINE",
"430 276 LINE",
"344 236 LINE",
"362 236 LINE SMOOTH",
"489 236 OFFCURVE",
"566 292 OFFCURVE",
"566 409 CURVE SMOOTH",
"566 526 OFFCURVE",
"493 583 OFFCURVE",
"352 583 CURVE SMOOTH",
"35 583 LINE",
"35 500 LINE",
"102 500 LINE",
"102 83 LINE",
"35 83 LINE",
"35 0 LINE"
);
}
);
width = 640;
}
);
leftKerningGroup = H;
leftMetricsKey = H;
rightKerningGroup = R;
unicode = 0052;
userData = {
com.typemytype.robofont.layerData = {
b = {
anchors = (
);
components = (
);
contours = (
{
points = (
{
segmentType = line;
smooth = 0;
x = 135;
y = 0;
},
{
segmentType = line;
smooth = 0;
x = 512;
y = 0;
},
{
segmentType = line;
smooth = 0;
x = 512;
y = 58;
},
{
segmentType = line;
smooth = 0;
x = 353;
y = 58;
},
{
segmentType = line;
smooth = 0;
x = 353;
y = 539;
},
{
segmentType = line;
smooth = 0;
x = 641;
y = 539;
},
{
segmentType = line;
smooth = 0;
x = 961;
y = 0;
},
{
segmentType = line;
smooth = 0;
x = 1178;
y = 0;
},
{
segmentType = line;
smooth = 0;
x = 1178;
y = 58;
},
{
segmentType = line;
smooth = 0;
x = 1015;
y = 58;
},
{
segmentType = line;
smooth = 0;
x = 721;
y = 539;
},
{
smooth = 0;
x = 945;
y = 539;
},
{
smooth = 0;
x = 1059;
y = 696;
},
{
segmentType = curve;
smooth = 1;
x = 1059;
y = 848;
},
{
smooth = 0;
x = 1059;
y = 1000;
},
{
smooth = 0;
x = 945;
y = 1154;
},
{
segmentType = curve;
smooth = 1;
x = 721;
y = 1154;
},
{
segmentType = line;
smooth = 0;
x = 122;
y = 1154;
},
{
segmentType = line;
smooth = 0;
x = 122;
y = 1095;
},
{
segmentType = line;
smooth = 0;
x = 278;
y = 1095;
},
{
segmentType = line;
smooth = 0;
x = 278;
y = 58;
},
{
segmentType = line;
smooth = 0;
x = 135;
y = 58;
}
);
},
{
points = (
{
segmentType = line;
smooth = 0;
x = 353;
y = 1095;
},
{
segmentType = line;
smooth = 1;
x = 721;
y = 1095;
},
{
smooth = 0;
x = 898;
y = 1095;
},
{
smooth = 0;
x = 985;
y = 971;
},
{
segmentType = curve;
smooth = 1;
x = 985;
y = 845;
},
{
smooth = 0;
x = 985;
y = 723;
},
{
smooth = 0;
x = 896;
y = 600;
},
{
segmentType = curve;
smooth = 1;
x = 721;
y = 600;
},
{
segmentType = line;
smooth = 0;
x = 353;
y = 600;
}
);
}
);
lib = {
};
name = R;
unicodes = (
);
width = 1296;
};
};
org.robofab.postScriptHintData = {
};
};
},
{
color = 3;
glyphname = S;
layers = (
{
anchors = (
{
name = bottom;
position = "{282, 0}";
},
{
name = top;
position = "{280, 583}";
}
);
background = {
anchors = (
{
name = bottom;
position = "{310, 0}";
},
{
name = top;
position = "{280, 583}";
}
);
paths = (
{
closed = 1;
nodes = (
"426 -11 OFFCURVE",
"488 53 OFFCURVE",
"488 148 CURVE SMOOTH",
"488 241 OFFCURVE",
"444 285 OFFCURVE",
"329 303 CURVE SMOOTH",
"234 318 LINE SMOOTH",
"151 331 OFFCURVE",
"113 370 OFFCURVE",
"113 442 CURVE SMOOTH",
"113 519 OFFCURVE",
"164 569 OFFCURVE",
"264 569 CURVE SMOOTH",
"378 569 OFFCURVE",
"438 509 OFFCURVE",
"438 424 CURVE",
"464 424 LINE",
"464 584 LINE",
"438 584 LINE",
"438 485 LINE",
"443 485 LINE",
"424 549 OFFCURVE",
"363 594 OFFCURVE",
"263 594 CURVE SMOOTH",
"148 594 OFFCURVE",
"81 535 OFFCURVE",
"81 441 CURVE SMOOTH",
"81 353 OFFCURVE",
"131 305 OFFCURVE",
"240 288 CURVE SMOOTH",
"335 273 LINE SMOOTH",
"425 259 OFFCURVE",
"456 227 OFFCURVE",
"456 145 CURVE SMOOTH",
"456 66 OFFCURVE",
"409 14 OFFCURVE",
"298 14 CURVE SMOOTH",
"159 14 OFFCURVE",
"109 85 OFFCURVE",
"109 190 CURVE",
"83 190 LINE",
"83 0 LINE",
"109 0 LINE",
"109 102 LINE",
"106 102 LINE",
"126 34 OFFCURVE",
"193 -11 OFFCURVE",
"298 -11 CURVE SMOOTH"
);
}
);
};
layerId = "98C086B7-81AA-4491-8494-0C6A76849168";
paths = (
{
closed = 1;
nodes = (
"426 -11 OFFCURVE",
"488 53 OFFCURVE",
"488 148 CURVE SMOOTH",
"488 241 OFFCURVE",
"444 285 OFFCURVE",
"329 303 CURVE SMOOTH",
"234 318 LINE SMOOTH",
"151 331 OFFCURVE",
"111 370 OFFCURVE",
"111 440 CURVE SMOOTH",
"111 510 OFFCURVE",
"153 569 OFFCURVE",
"264 569 CURVE SMOOTH",
"378 569 OFFCURVE",
"438 509 OFFCURVE",
"438 424 CURVE",
"464 424 LINE",
"464 584 LINE",
"438 584 LINE",
"438 485 LINE",
"443 485 LINE",
"424 549 OFFCURVE",
"363 594 OFFCURVE",
"263 594 CURVE SMOOTH",
"134 594 OFFCURVE",
"81 521 OFFCURVE",
"81 441 CURVE SMOOTH",
"81 353 OFFCURVE",
"131 305 OFFCURVE",
"240 288 CURVE SMOOTH",
"335 273 LINE SMOOTH",
"425 259 OFFCURVE",
"458 227 OFFCURVE",
"458 145 CURVE SMOOTH",
"458 66 OFFCURVE",
"409 14 OFFCURVE",
"298 14 CURVE SMOOTH",
"159 14 OFFCURVE",
"109 85 OFFCURVE",
"109 190 CURVE",
"83 190 LINE",
"83 0 LINE",
"109 0 LINE",
"109 102 LINE",
"106 102 LINE",
"126 34 OFFCURVE",
"193 -11 OFFCURVE",
"298 -11 CURVE SMOOTH"
);
}
);
width = 556;
},
{
anchors = (
{
name = bottom;
position = "{287, 0}";
},
{
name = top;
position = "{287, 583}";
}
);
background = {
anchors = (
{
name = bottom;
position = "{308, 0}";
},
{
name = top;
position = "{279, 583}";
}
);
paths = (
{
closed = 1;
nodes = (
"467 -10 OFFCURVE",
"566 64 OFFCURVE",
"566 187 CURVE SMOOTH",
"566 285 OFFCURVE",
"509 343 OFFCURVE",
"400 366 CURVE SMOOTH",
"285 390 LINE SMOOTH",
"246 398 OFFCURVE",
"236 416 OFFCURVE",
"236 434 CURVE SMOOTH",
"236 461 OFFCURVE",
"259 484 OFFCURVE",
"306 484 CURVE SMOOTH",
"365 484 OFFCURVE",
"399 456 OFFCURVE",
"407 403 CURVE",
"532 403 LINE",
"532 583 LINE",
"402 583 LINE",
"402 518 LINE",
"436 518 LINE",
"395 565 OFFCURVE",
"337 593 OFFCURVE",
"258 593 CURVE SMOOTH",
"120 593 OFFCURVE",
"30 519 OFFCURVE",
"30 404 CURVE SMOOTH",
"30 308 OFFCURVE",
"87 244 OFFCURVE",
"186 223 CURVE SMOOTH",
"301 199 LINE SMOOTH",
"340 191 OFFCURVE",
"360 179 OFFCURVE",
"360 152 CURVE SMOOTH",
"360 122 OFFCURVE",
"337 99 OFFCURVE",
"288 99 CURVE SMOOTH",
"208 99 OFFCURVE",
"168 134 OFFCURVE",
"159 200 CURVE",
"34 200 LINE",
"34 0 LINE",
"164 0 LINE",
"164 61 LINE",
"130 81 LINE",
"174 24 OFFCURVE",
"234 -10 OFFCURVE",
"327 -10 CURVE SMOOTH"
);
}
);
};
layerId = "EFCDB4D9-E20B-4A8D-9DB5-150AD166B0AE";
paths = (
{
closed = 1;
nodes = (
"467 -10 OFFCURVE",
"566 64 OFFCURVE",
"566 187 CURVE SMOOTH",
"566 285 OFFCURVE",
"509 343 OFFCURVE",
"400 366 CURVE SMOOTH",
"285 390 LINE SMOOTH",
"246 398 OFFCURVE",
"236 416 OFFCURVE",
"236 434 CURVE SMOOTH",
"236 461 OFFCURVE",
"259 484 OFFCURVE",
"306 484 CURVE SMOOTH",
"365 484 OFFCURVE",
"399 456 OFFCURVE",
"407 403 CURVE",
"532 403 LINE",
"532 583 LINE",
"402 583 LINE",
"402 516 LINE",
"436 516 LINE",
"395 570 OFFCURVE",
"337 593 OFFCURVE",
"258 593 CURVE SMOOTH",
"120 593 OFFCURVE",
"30 519 OFFCURVE",
"30 399 CURVE SMOOTH",
"30 308 OFFCURVE",
"87 244 OFFCURVE",
"186 223 CURVE SMOOTH",
"301 199 LINE SMOOTH",
"340 191 OFFCURVE",
"360 179 OFFCURVE",
"360 152 CURVE SMOOTH",
"360 122 OFFCURVE",
"337 99 OFFCURVE",
"288 99 CURVE SMOOTH",
"208 99 OFFCURVE",
"168 134 OFFCURVE",
"159 200 CURVE",
"34 200 LINE",
"34 0 LINE",
"164 0 LINE",
"164 61 LINE",
"130 81 LINE",
"174 24 OFFCURVE",
"234 -10 OFFCURVE",
"336 -10 CURVE SMOOTH"
);
}
);
width = 574;
},
{
anchors = (
{
name = bottom;
position = "{295, 0}";
},
{
name = top;
position = "{273, 563}";
}
);
associatedMasterId = "98C086B7-81AA-4491-8494-0C6A76849168";
layerId = "F23EAAE2-23F5-4464-80B4-90DDBC59E8AB";
name = "Original Regular";
paths = (
{
closed = 1;
nodes = (
"416 -10 OFFCURVE",
"480 67 OFFCURVE",
"480 155 CURVE SMOOTH",
"480 263 OFFCURVE",
"416 301 OFFCURVE",
"285 324 CURVE SMOOTH",
"262 328 LINE SMOOTH",
"183 342 OFFCURVE",
"141 370 OFFCURVE",
"141 428 CURVE SMOOTH",
"141 480 OFFCURVE",
"180 516 OFFCURVE",
"249 516 CURVE SMOOTH",
"358 516 OFFCURVE",
"386 452 OFFCURVE",
"394 404 CURVE",
"453 404 LINE",
"453 563 LINE",
"389 563 LINE",
"389 477 LINE",
"410 477 LINE",
"389 537 OFFCURVE",
"324 574 OFFCURVE",
"245 574 CURVE SMOOTH",
"139 574 OFFCURVE",
"68 519 OFFCURVE",
"68 420 CURVE SMOOTH",
"68 325 OFFCURVE",
"139 274 OFFCURVE",
"247 256 CURVE SMOOTH",
"271 252 LINE SMOOTH",
"371 235 OFFCURVE",
"407 216 OFFCURVE",
"407 143 CURVE SMOOTH",
"407 82 OFFCURVE",
"366 48 OFFCURVE",
"297 48 CURVE SMOOTH",
"201 48 OFFCURVE",
"139 108 OFFCURVE",
"131 190 CURVE",
"71 190 LINE",
"71 0 LINE",
"136 0 LINE",
"136 90 LINE",
"123 90 LINE",
"155 29 OFFCURVE",
"219 -10 OFFCURVE",
"300 -10 CURVE SMOOTH"
);
}
);
width = 522;
},
{
anchors = (
{
name = bottom;
position = "{286, 0}";
},
{
name = top;
position = "{286, 583}";
}
);
background = {
paths = (
{
closed = 1;
nodes = (
"1147 -10 OFFCURVE",
"1227 60 OFFCURVE",
"1227 172 CURVE SMOOTH",
"1227 269 OFFCURVE",
"1177 321 OFFCURVE",
"1065 342 CURVE SMOOTH",
"960 363 LINE SMOOTH",
"899 373 OFFCURVE",
"874 399 OFFCURVE",
"874 436 CURVE SMOOTH",
"874 479 OFFCURVE",
"906 516 OFFCURVE",
"985 516 CURVE SMOOTH",
"1072 516 OFFCURVE",
"1119 476 OFFCURVE",
"1123 411 CURVE",
"1198 411 LINE",
"1198 583 LINE",
"1120 583 LINE",
"1120 504 LINE",
"1140 504 LINE",
"1110 562 OFFCURVE",
"1050 593 OFFCURVE",
"961 593 CURVE SMOOTH",
"827 593 OFFCURVE",
"756 520 OFFCURVE",
"756 415 CURVE SMOOTH",
"756 325 OFFCURVE",
"809 267 OFFCURVE",
"913 247 CURVE SMOOTH",
"1018 227 LINE SMOOTH",
"1083 217 OFFCURVE",
"1109 197 OFFCURVE",
"1109 149 CURVE SMOOTH",
"1109 101 OFFCURVE",
"1073 67 OFFCURVE",
"993 67 CURVE SMOOTH",
"884 67 OFFCURVE",
"839 116 OFFCURVE",
"834 196 CURVE",
"759 196 LINE",
"759 0 LINE",
"837 0 LINE",
"837 76 LINE",
"818 89 LINE",
"850 28 OFFCURVE",
"914 -10 OFFCURVE",
"1017 -10 CURVE SMOOTH"
);
},
{
closed = 1;
nodes = (
"136 593 OFFCURVE",
"56 523 OFFCURVE",
"56 411 CURVE SMOOTH",
"56 314 OFFCURVE",
"114 264 OFFCURVE",
"218 243 CURVE SMOOTH",
"323 222 LINE SMOOTH",
"385 210 OFFCURVE",
"408 187 OFFCURVE",
"408 151 CURVE SMOOTH",
"408 111 OFFCURVE",
"374 76 OFFCURVE",
"286 76 CURVE SMOOTH",
"190 76 OFFCURVE",
"141 116 OFFCURVE",
"134 172 CURVE",
"85 172 LINE",
"85 0 LINE",
"163 0 LINE",
"163 85 LINE",
"117 85 LINE",
"149 21 OFFCURVE",
"213 -10 OFFCURVE",
"304 -10 CURVE SMOOTH",
"453 -10 OFFCURVE",
"527 70 OFFCURVE",
"527 168 CURVE SMOOTH",
"527 258 OFFCURVE",
"469 315 OFFCURVE",
"370 335 CURVE SMOOTH",
"265 356 LINE SMOOTH",
"200 369 OFFCURVE",
"174 386 OFFCURVE",
"174 434 CURVE SMOOTH",
"174 482 OFFCURVE",
"210 516 OFFCURVE",
"290 516 CURVE SMOOTH",
"399 516 OFFCURVE",
"444 467 OFFCURVE",
"449 387 CURVE",
"524 387 LINE",
"524 583 LINE",
"446 583 LINE",
"446 507 LINE",
"465 494 LINE",
"433 555 OFFCURVE",
"369 593 OFFCURVE",
"266 593 CURVE SMOOTH"
);
}
);
};
layerId = "086393EE-48A8-42B6-AE05-10B6A30445E6";
paths = (
{
closed = 1;
nodes = (
"450 -10 OFFCURVE",
"527 70 OFFCURVE",
"527 172 CURVE SMOOTH",
"527 269 OFFCURVE",
"469 319 OFFCURVE",
"365 340 CURVE SMOOTH",
"260 361 LINE SMOOTH",
"198 373 OFFCURVE",
"175 396 OFFCURVE",
"175 432 CURVE SMOOTH",
"175 472 OFFCURVE",
"206 507 OFFCURVE",
"285 507 CURVE SMOOTH",
"372 507 OFFCURVE",
"417 467 OFFCURVE",
"423 411 CURVE",
"498 411 LINE",
"498 583 LINE",
"420 583 LINE",
"420 498 LINE",
"440 498 LINE",
"410 562 OFFCURVE",
"350 593 OFFCURVE",
"265 593 CURVE SMOOTH",
"128 593 OFFCURVE",
"56 513 OFFCURVE",
"56 415 CURVE SMOOTH",
"56 325 OFFCURVE",
"114 268 OFFCURVE",
"213 248 CURVE SMOOTH",
"318 227 LINE SMOOTH",
"385 214 OFFCURVE",
"408 191 OFFCURVE",
"408 154 CURVE SMOOTH",
"408 111 OFFCURVE",
"374 76 OFFCURVE",
"286 76 CURVE SMOOTH",
"177 76 OFFCURVE",
"139 116 OFFCURVE",
"134 196 CURVE",
"59 196 LINE",
"59 0 LINE",
"137 0 LINE",
"137 76 LINE",
"117 85 LINE",
"149 21 OFFCURVE",
"213 -10 OFFCURVE",
"311 -10 CURVE SMOOTH"
);
}
);
width = 565;
}
);
leftKerningGroup = S;
rightKerningGroup = S;
unicode = 0053;
userData = {
com.typemytype.robofont.layerData = {
b = {
anchors = (
);
components = (
);
contours = (
{
points = (
{
segmentType = curve;
smooth = 1;
x = 636;
y = "-23";
},
{
smooth = 0;
x = 930;
y = "-23";
},
{
smooth = 0;
x = 1026;
y = 171;
},
{
segmentType = curve;
smooth = 1;
x = 1026;
y = 295;
},
{
smooth = 0;
x = 1026;
y = 543;
},
{
smooth = 0;
x = 829;
y = 599;
},
{
segmentType = curve;
smooth = 1;
x = 606;
y = 622;
},
{
smooth = 0;
x = 405;
y = 643;
},
{
smooth = 0;
x = 269;
y = 667;
},
{
segmentType = curve;
smooth = 1;
x = 269;
y = 851;
},
{
smooth = 0;
x = 269;
y = 998;
},
{
smooth = 0;
x = 360;
y = 1104;
},
{
segmentType = curve;
smooth = 1;
x = 573;
y = 1104;
},
{
smooth = 0;
x = 719;
y = 1104;
},
{
smooth = 0;
x = 885;
y = 1024;
},
{
segmentType = curve;
smooth = 1;
x = 885;
y = 941;
},
{
segmentType = line;
smooth = 0;
x = 885;
y = 839;
},
{
segmentType = line;
smooth = 0;
x = 959;
y = 839;
},
{
segmentType = line;
smooth = 0;
x = 959;
y = 1152;
},
{
segmentType = line;
smooth = 0;
x = 885;
y = 1152;
},
{
segmentType = line;
smooth = 0;
x = 885;
y = 1049;
},
{
smooth = 0;
x = 828;
y = 1131;
},
{
smooth = 0;
x = 673;
y = 1172;
},
{
segmentType = curve;
smooth = 1;
x = 561;
y = 1172;
},
{
smooth = 0;
x = 360;
y = 1172;
},
{
smooth = 0;
x = 184;
y = 1066;
},
{
segmentType = curve;
smooth = 1;
x = 184;
y = 863;
},
{
smooth = 0;
x = 184;
y = 635;
},
{
smooth = 0;
x = 332;
y = 579;
},
{
segmentType = curve;
smooth = 1;
x = 584;
y = 553;
},
{
smooth = 0;
x = 805;
y = 531;
},
{
smooth = 0;
x = 942;
y = 488;
},
{
segmentType = curve;
smooth = 1;
x = 942;
y = 300;
},
{
smooth = 0;
x = 942;
y = 169;
},
{
smooth = 0;
x = 831;
y = 47;
},
{
segmentType = curve;
smooth = 1;
x = 644;
y = 47;
},
{
smooth = 0;
x = 448;
y = 47;
},
{
smooth = 0;
x = 261;
y = 118;
},
{
segmentType = curve;
smooth = 1;
x = 261;
y = 247;
},
{
segmentType = line;
smooth = 0;
x = 261;
y = 387;
},
{
segmentType = line;
smooth = 0;
x = 187;
y = 387;
},
{
segmentType = line;
smooth = 0;
x = 187;
y = "-1";
},
{
segmentType = line;
smooth = 0;
x = 261;
y = "-1";
},
{
segmentType = line;
smooth = 0;
x = 261;
y = 122;
},
{
smooth = 0;
x = 335;
y = 22;
},
{
smooth = 0;
x = 496;
y = "-23";
}
);
}
);
lib = {
};
name = S;
unicodes = (
);
width = 1143;
};
};
org.robofab.postScriptHintData = {
};
};
},
{
color = 3;
glyphname = Germandbls;
layers = (
{
background = {
paths = (
{
closed = 1;
nodes = (
"215 0 LINE",
"215 23 LINE",
"150 23 LINE",
"150 376 LINE SMOOTH",
"150 511 OFFCURVE",
"224 570 OFFCURVE",
"341 570 CURVE SMOOTH",
"413 570 OFFCURVE",
"461 553 OFFCURVE",
"503 525 CURVE",
"508 539 LINE",
"327 332 LINE",
"327 310 LINE",
"369 310 LINE SMOOTH",
"479 310 OFFCURVE",
"533 262 OFFCURVE",
"533 166 CURVE SMOOTH",
"533 77 OFFCURVE",
"489 22 OFFCURVE",
"373 22 CURVE SMOOTH",
"314 22 LINE",
"314 0 LINE",
"374 0 LINE SMOOTH",
"507 0 OFFCURVE",
"565 64 OFFCURVE",
"565 166 CURVE SMOOTH",
"565 281 OFFCURVE",
"488 335 OFFCURVE",
"353 332 CURVE",
"355 327 LINE",
"523 519 LINE",
"523 538 LINE",
"478 571 OFFCURVE",
"420 594 OFFCURVE",
"340 594 CURVE SMOOTH",
"206 594 OFFCURVE",
"120 524 OFFCURVE",
"120 374 CURVE SMOOTH",
"120 23 LINE",
"35 23 LINE",
"35 0 LINE"
);
}
);
};
layerId = "98C086B7-81AA-4491-8494-0C6A76849168";
paths = (
{
closed = 1;
nodes = (
"215 0 LINE",
"215 23 LINE",
"150 23 LINE",
"150 376 LINE SMOOTH",
"150 511 OFFCURVE",
"224 570 OFFCURVE",
"341 570 CURVE SMOOTH",
"413 570 OFFCURVE",
"461 553 OFFCURVE",
"503 525 CURVE",
"508 537 LINE",
"327 332 LINE",
"327 310 LINE",
"369 310 LINE SMOOTH",
"479 310 OFFCURVE",
"533 262 OFFCURVE",
"533 166 CURVE SMOOTH",
"533 77 OFFCURVE",
"489 22 OFFCURVE",
"373 22 CURVE SMOOTH",
"314 22 LINE",
"314 0 LINE",
"374 0 LINE SMOOTH",
"507 0 OFFCURVE",
"565 64 OFFCURVE",
"565 166 CURVE SMOOTH",
"565 281 OFFCURVE",
"488 335 OFFCURVE",
"353 332 CURVE",
"354 327 LINE",
"523 519 LINE",
"523 538 LINE",
"478 571 OFFCURVE",
"420 594 OFFCURVE",
"340 594 CURVE SMOOTH",
"206 594 OFFCURVE",
"120 524 OFFCURVE",
"120 374 CURVE SMOOTH",
"120 23 LINE",
"35 23 LINE",
"35 0 LINE"
);
}
);
width = 625;
},
{
background = {
paths = (
{
closed = 1;
nodes = (
"302 0 LINE",
"302 120 LINE",
"272 120 LINE",
"272 357 LINE SMOOTH",
"272 420 OFFCURVE",
"303 453 OFFCURVE",
"360 453 CURVE SMOOTH",
"398 453 OFFCURVE",
"425 447 OFFCURVE",
"450 433 CURVE",
"437 509 LINE",
"350 365 LINE",
"350 251 LINE",
"371 251 LINE SMOOTH",
"418 251 OFFCURVE",
"435 230 OFFCURVE",
"435 193 CURVE SMOOTH",
"435 162 OFFCURVE",
"414 140 OFFCURVE",
"376 140 CURVE SMOOTH",
"350 140 LINE",
"350 0 LINE",
"436 0 LINE SMOOTH",
"564 0 OFFCURVE",
"641 61 OFFCURVE",
"641 180 CURVE SMOOTH",
"641 300 OFFCURVE",
"560 369 OFFCURVE",
"409 359 CURVE",
"465 279 LINE",
"563 429 LINE",
"563 546 LINE",
"500 576 OFFCURVE",
"419 593 OFFCURVE",
"335 593 CURVE SMOOTH",
"161 593 OFFCURVE",
"72 520 OFFCURVE",
"72 377 CURVE SMOOTH",
"72 120 LINE",
"22 120 LINE",
"22 0 LINE"
);
}
);
};
layerId = "EFCDB4D9-E20B-4A8D-9DB5-150AD166B0AE";
paths = (
{
closed = 1;
nodes = (
"302 0 LINE",
"302 120 LINE",
"272 120 LINE",
"272 357 LINE SMOOTH",
"272 420 OFFCURVE",
"298 453 OFFCURVE",
"360 453 CURVE SMOOTH",
"398 453 OFFCURVE",
"425 447 OFFCURVE",
"450 433 CURVE",
"437 509 LINE",
"350 365 LINE",
"350 251 LINE",
"371 251 LINE SMOOTH",
"418 251 OFFCURVE",
"435 230 OFFCURVE",
"435 193 CURVE SMOOTH",
"435 162 OFFCURVE",
"414 140 OFFCURVE",
"376 140 CURVE SMOOTH",
"350 140 LINE",
"350 0 LINE",
"436 0 LINE SMOOTH",
"564 0 OFFCURVE",
"641 61 OFFCURVE",
"641 180 CURVE SMOOTH",
"641 300 OFFCURVE",
"560 369 OFFCURVE",
"409 359 CURVE",
"465 279 LINE",
"563 429 LINE",
"563 546 LINE",
"500 576 OFFCURVE",
"419 593 OFFCURVE",
"335 593 CURVE SMOOTH",
"161 593 OFFCURVE",
"72 510 OFFCURVE",
"72 367 CURVE SMOOTH",
"72 120 LINE",
"22 120 LINE",
"22 0 LINE"
);
}
);
width = 661;
},
{
associatedMasterId = "98C086B7-81AA-4491-8494-0C6A76849168";
layerId = "32E77C1A-CED5-45BD-ADCC-46833B82A638";
name = "Original Regular";
paths = (
{
closed = 1;
nodes = (
"478 -10 OFFCURVE",
"560 49 OFFCURVE",
"560 161 CURVE SMOOTH",
"560 254 OFFCURVE",
"499 309 OFFCURVE",
"388 321 CURVE",
"499 474 LINE",
"499 530 LINE",
"451 554 OFFCURVE",
"396 573 OFFCURVE",
"316 573 CURVE SMOOTH",
"167 573 OFFCURVE",
"86 498 OFFCURVE",
"86 371 CURVE SMOOTH",
"86 53 LINE",
"36 53 LINE",
"36 0 LINE",
"224 0 LINE",
"224 53 LINE",
"168 53 LINE",
"168 373 LINE SMOOTH",
"168 469 OFFCURVE",
"225 513 OFFCURVE",
"317 513 CURVE SMOOTH",
"368 513 OFFCURVE",
"405 506 OFFCURVE",
"439 493 CURVE",
"316 323 LINE",
"316 267 LINE",
"417 267 OFFCURVE",
"472 232 OFFCURVE",
"472 158 CURVE SMOOTH",
"472 86 OFFCURVE",
"425 50 OFFCURVE",
"326 50 CURVE",
"326 -10 LINE"
);
}
);
width = 600;
},
{
background = {
paths = (
{
closed = 1;
nodes = (
"259 0 LINE",
"259 72 LINE",
"211 72 LINE",
"211 367 LINE SMOOTH",
"211 466 OFFCURVE",
"261 512 OFFCURVE",
"351 512 CURVE SMOOTH",
"406 512 OFFCURVE",
"443 500 OFFCURVE",
"477 479 CURVE",
"473 523 LINE",
"339 349 LINE",
"339 281 LINE",
"370 281 LINE SMOOTH",
"449 281 OFFCURVE",
"484 246 OFFCURVE",
"484 180 CURVE SMOOTH",
"484 120 OFFCURVE",
"452 81 OFFCURVE",
"375 81 CURVE SMOOTH",
"332 81 LINE",
"332 0 LINE",
"405 0 LINE SMOOTH",
"536 0 OFFCURVE",
"603 63 OFFCURVE",
"603 173 CURVE SMOOTH",
"603 291 OFFCURVE",
"524 352 OFFCURVE",
"381 346 CURVE",
"410 303 LINE",
"543 474 LINE",
"543 542 LINE",
"489 574 OFFCURVE",
"420 594 OFFCURVE",
"338 594 CURVE SMOOTH",
"184 594 OFFCURVE",
"96 517 OFFCURVE",
"96 371 CURVE SMOOTH",
"96 72 LINE",
"29 72 LINE",
"29 0 LINE"
);
}
);
};
layerId = "086393EE-48A8-42B6-AE05-10B6A30445E6";
paths = (
{
closed = 1;
nodes = (
"259 0 LINE",
"259 84 LINE",
"211 84 LINE",
"211 364 LINE SMOOTH",
"211 454 OFFCURVE",
"261 494 OFFCURVE",
"351 494 CURVE SMOOTH",
"406 494 OFFCURVE",
"443 484 OFFCURVE",
"477 465 CURVE",
"473 520 LINE",
"339 353 LINE",
"339 273 LINE",
"370 273 LINE SMOOTH",
"449 273 OFFCURVE",
"484 242 OFFCURVE",
"484 183 CURVE SMOOTH",
"484 130 OFFCURVE",
"452 96 OFFCURVE",
"375 96 CURVE SMOOTH",
"332 96 LINE",
"332 0 LINE",
"395 0 LINE SMOOTH",
"536 0 OFFCURVE",
"603 62 OFFCURVE",
"603 175 CURVE SMOOTH",
"603 293 OFFCURVE",
"524 356 OFFCURVE",
"381 349 CURVE",
"410 297 LINE",
"543 463 LINE",
"543 543 LINE",
"489 574 OFFCURVE",
"420 593 OFFCURVE",
"338 593 CURVE SMOOTH",
"194 593 OFFCURVE",
"96 515 OFFCURVE",
"96 370 CURVE SMOOTH",
"96 84 LINE",
"29 84 LINE",
"29 0 LINE"
);
}
);
width = 643;
}
);
leftMetricsKey = "=|U";
unicode = 1E9E;
},
{
color = 3;
glyphname = Schwa;
layers = (
{
background = {
paths = (
{
closed = 1;
nodes = (
"1214 -11 OFFCURVE",
"1326 105 OFFCURVE",
"1326 291 CURVE SMOOTH",
"1326 468 OFFCURVE",
"1205 594 OFFCURVE",
"1033 594 CURVE SMOOTH",
"935 594 OFFCURVE",
"845 553 OFFCURVE",
"799 485 CURVE",
"823 471 LINE",
"865 530 OFFCURVE",
"940 569 OFFCURVE",
"1033 569 CURVE SMOOTH",
"1189 569 OFFCURVE",
"1294 454 OFFCURVE",
"1294 290 CURVE SMOOTH",
"1294 117 OFFCURVE",
"1198 14 OFFCURVE",
"1040 14 CURVE SMOOTH",
"868 14 OFFCURVE",
"782 124 OFFCURVE",
"782 267 CURVE",
"1301 267 LINE",
"1301 289 LINE",
"750 289 LINE",
"750 280 LINE SMOOTH",
"750 108 OFFCURVE",
"852 -11 OFFCURVE",
"1040 -11 CURVE SMOOTH"
);
},
{
closed = 1;
nodes = (
"530 -10 OFFCURVE",
"656 112 OFFCURVE",
"656 291 CURVE SMOOTH",
"656 468 OFFCURVE",
"531 594 OFFCURVE",
"353 594 CURVE SMOOTH",
"175 594 OFFCURVE",
"50 468 OFFCURVE",
"50 291 CURVE SMOOTH",
"50 112 OFFCURVE",
"176 -10 OFFCURVE",
"353 -10 CURVE SMOOTH"
);
},
{
closed = 1;
nodes = (
"192 15 OFFCURVE",
"82 124 OFFCURVE",
"82 290 CURVE SMOOTH",
"82 454 OFFCURVE",
"191 569 OFFCURVE",
"353 569 CURVE SMOOTH",
"515 569 OFFCURVE",
"624 454 OFFCURVE",
"624 290 CURVE SMOOTH",
"624 124 OFFCURVE",
"514 15 OFFCURVE",
"353 15 CURVE SMOOTH"
);
}
);
};
layerId = "98C086B7-81AA-4491-8494-0C6A76849168";
paths = (
{
closed = 1;
nodes = (
"514 -11 OFFCURVE",
"626 105 OFFCURVE",
"626 291 CURVE SMOOTH",
"626 468 OFFCURVE",
"505 594 OFFCURVE",
"333 594 CURVE SMOOTH",
"235 594 OFFCURVE",
"145 553 OFFCURVE",
"99 485 CURVE",
"123 471 LINE",
"165 530 OFFCURVE",
"240 569 OFFCURVE",
"333 569 CURVE SMOOTH",
"489 569 OFFCURVE",
"596 454 OFFCURVE",
"596 290 CURVE SMOOTH",
"596 117 OFFCURVE",
"498 14 OFFCURVE",
"340 14 CURVE SMOOTH",
"168 14 OFFCURVE",
"82 124 OFFCURVE",
"82 267 CURVE",
"603 267 LINE",
"603 289 LINE",
"50 289 LINE",
"50 280 LINE SMOOTH",
"50 108 OFFCURVE",
"152 -11 OFFCURVE",
"340 -11 CURVE SMOOTH"
);
}
);
width = 676;
},
{
background = {
paths = (
{
closed = 1;
nodes = (
"536 -10 OFFCURVE",
"660 119 OFFCURVE",
"660 294 CURVE SMOOTH",
"660 474 OFFCURVE",
"536 594 OFFCURVE",
"338 594 CURVE SMOOTH",
"218 594 OFFCURVE",
"131 556 OFFCURVE",
"64 470 CURVE",
"195 383 LINE",
"224 429 OFFCURVE",
"266 454 OFFCURVE",
"320 454 CURVE SMOOTH",
"407 454 OFFCURVE",
"454 395 OFFCURVE",
"454 292 CURVE SMOOTH",
"454 184 OFFCURVE",
"422 125 OFFCURVE",
"343 125 CURVE SMOOTH",
"268 125 OFFCURVE",
"237 177 OFFCURVE",
"237 221 CURVE",
"536 221 LINE",
"536 341 LINE",
"29 341 LINE",
"29 294 LINE SMOOTH",
"29 119 OFFCURVE",
"136 -10 OFFCURVE",
"346 -10 CURVE SMOOTH"
);
}
);
};
layerId = "EFCDB4D9-E20B-4A8D-9DB5-150AD166B0AE";
paths = (
{
closed = 1;
nodes = (
"536 -10 OFFCURVE",
"660 119 OFFCURVE",
"660 294 CURVE SMOOTH",
"660 474 OFFCURVE",
"536 594 OFFCURVE",
"338 594 CURVE SMOOTH",
"218 594 OFFCURVE",
"128 556 OFFCURVE",
"64 470 CURVE",
"195 383 LINE",
"224 429 OFFCURVE",
"266 454 OFFCURVE",
"320 454 CURVE SMOOTH",
"412 454 OFFCURVE",
"459 395 OFFCURVE",
"459 292 CURVE SMOOTH",
"459 184 OFFCURVE",
"427 125 OFFCURVE",
"343 125 CURVE SMOOTH",
"268 125 OFFCURVE",
"237 177 OFFCURVE",
"237 221 CURVE",
"536 221 LINE",
"536 341 LINE",
"29 341 LINE",
"29 294 LINE SMOOTH",
"29 119 OFFCURVE",
"136 -10 OFFCURVE",
"346 -10 CURVE SMOOTH"
);
}
);
width = 689;
},
{
associatedMasterId = "98C086B7-81AA-4491-8494-0C6A76849168";
layerId = "56229F1F-BD89-44A8-8B0A-B0990D052884";
name = "Original Regular";
paths = (
{
closed = 1;
nodes = (
"495 -11 OFFCURVE",
"627 102 OFFCURVE",
"627 283 CURVE SMOOTH",
"627 457 OFFCURVE",
"498 573 OFFCURVE",
"330 573 CURVE SMOOTH",
"206 573 OFFCURVE",
"115 517 OFFCURVE",
"54 461 CURVE",
"86 414 LINE",
"152 473 OFFCURVE",
"230 514 OFFCURVE",
"327 514 CURVE SMOOTH",
"454 514 OFFCURVE",
"540 423 OFFCURVE",
"540 277 CURVE SMOOTH",
"540 136 OFFCURVE",
"450 51 OFFCURVE",
"331 51 CURVE SMOOTH",
"216 51 OFFCURVE",
"130 122 OFFCURVE",
"130 245 CURVE",
"554 245 LINE",
"556 302 LINE",
"44 302 LINE",
"44 275 LINE SMOOTH",
"44 101 OFFCURVE",
"152 -11 OFFCURVE",
"329 -11 CURVE SMOOTH"
);
}
);
width = 677;
},
{
background = {
paths = (
{
closed = 1;
nodes = (
"1321 -10 OFFCURVE",
"1439 112 OFFCURVE",
"1439 293 CURVE SMOOTH",
"1439 471 OFFCURVE",
"1317 594 OFFCURVE",
"1132 594 CURVE SMOOTH",
"1023 594 OFFCURVE",
"933 555 OFFCURVE",
"878 478 CURVE",
"955 427 LINE",
"991 480 OFFCURVE",
"1049 512 OFFCURVE",
"1123 512 CURVE SMOOTH",
"1247 512 OFFCURVE",
"1324 425 OFFCURVE",
"1324 291 CURVE SMOOTH",
"1324 151 OFFCURVE",
"1259 70 OFFCURVE",
"1138 70 CURVE SMOOTH",
"1014 70 OFFCURVE",
"956 151 OFFCURVE",
"956 244 CURVE",
"1366 244 LINE",
"1366 315 LINE",
"836 315 LINE",
"836 287 LINE SMOOTH",
"836 114 OFFCURVE",
"940 -10 OFFCURVE",
"1139 -10 CURVE SMOOTH"
);
},
{
closed = 1;
nodes = (
"187 594 OFFCURVE",
"95 531 OFFCURVE",
"51 415 CURVE",
"140 370 LINE",
"177 459 OFFCURVE",
"239 495 OFFCURVE",
"324 495 CURVE SMOOTH",
"446 495 OFFCURVE",
"524 416 OFFCURVE",
"524 293 CURVE SMOOTH",
"524 170 OFFCURVE",
"446 89 OFFCURVE",
"318 89 CURVE SMOOTH",
"240 89 OFFCURVE",
"168 122 OFFCURVE",
"133 198 CURVE",
"59 198 LINE",
"59 1 LINE",
"137 1 LINE",
"137 118 LINE",
"108 137 LINE",
"140 37 OFFCURVE",
"224 -10 OFFCURVE",
"340 -10 CURVE SMOOTH",
"517 -10 OFFCURVE",
"643 117 OFFCURVE",
"643 294 CURVE SMOOTH",
"643 467 OFFCURVE",
"517 594 OFFCURVE",
"325 594 CURVE SMOOTH"
);
}
);
};
layerId = "086393EE-48A8-42B6-AE05-10B6A30445E6";
paths = (
{
closed = 1;
nodes = (
"525 -10 OFFCURVE",
"643 114 OFFCURVE",
"643 293 CURVE SMOOTH",
"643 472 OFFCURVE",
"521 594 OFFCURVE",
"336 594 CURVE SMOOTH",
"230 594 OFFCURVE",
"140 555 OFFCURVE",
"82 476 CURVE",
"159 413 LINE",
"195 464 OFFCURVE",
"253 497 OFFCURVE",
"327 497 CURVE SMOOTH",
"451 497 OFFCURVE",
"528 417 OFFCURVE",
"528 291 CURVE SMOOTH",
"528 159 OFFCURVE",
"463 83 OFFCURVE",
"342 83 CURVE SMOOTH",
"218 83 OFFCURVE",
"160 157 OFFCURVE",
"160 240 CURVE",
"570 240 LINE",
"570 320 LINE",
"40 320 LINE",
"40 289 LINE SMOOTH",
"40 113 OFFCURVE",
"144 -10 OFFCURVE",
"343 -10 CURVE SMOOTH"
);
}
);
width = 682.5;
}
);
leftKerningGroup = O;
leftMetricsKey = O;
rightKerningGroup = O;
rightMetricsKey = O;
unicode = 018F;
userData = {
org.robofab.postScriptHintData = {
};
};
},
{
color = 3;
glyphname = T;
layers = (
{
anchors = (
{
name = bottom;
position = "{283, 0}";
},
{
name = mid;
position = "{284, 278}";
},
{
name = top;
position = "{283, 583}";
}
);
background = {
anchors = (
{
name = bottom;
position = "{283, 0}";
},
{
name = mid;
position = "{284, 278}";
},
{
name = top;
position = "{283, 583}";
}
);
paths = (
{
closed = 1;
nodes = (
"393 0 LINE",
"393 22 LINE",
"298 22 LINE",
"298 561 LINE",
"515 561 LINE",
"515 403 LINE",
"541 403 LINE",
"541 583 LINE",
"25 583 LINE",
"25 403 LINE",
"51 403 LINE",
"51 561 LINE",
"268 561 LINE",
"268 22 LINE",
"173 22 LINE",
"173 0 LINE"
);
}
);
};
layerId = "98C086B7-81AA-4491-8494-0C6A76849168";
paths = (
{
closed = 1;
nodes = (
"393 0 LINE",
"393 22 LINE",
"298 22 LINE",
"298 561 LINE",
"515 561 LINE",
"515 403 LINE",
"541 403 LINE",
"541 583 LINE",
"25 583 LINE",
"25 403 LINE",
"51 403 LINE",
"51 561 LINE",
"268 561 LINE",
"268 22 LINE",
"173 22 LINE",
"173 0 LINE"
);
}
);
width = 566;
},
{
anchors = (
{
name = bottom;
position = "{325, 0}";
},
{
name = mid;
position = "{325, 259}";
},
{
name = top;
position = "{325, 583}";
}
);
background = {
anchors = (
{
name = bottom;
position = "{325, 0}";
},
{
name = mid;
position = "{325, 279}";
},
{
name = top;
position = "{325, 583}";
}
);
paths = (
{
closed = 1;
nodes = (
"495 0 LINE",
"495 120 LINE",
"425 120 LINE",
"425 463 LINE",
"505 463 LINE",
"505 343 LINE",
"635 343 LINE",
"635 583 LINE",
"15 583 LINE",
"15 343 LINE",
"145 343 LINE",
"145 463 LINE",
"225 463 LINE",
"225 120 LINE",
"155 120 LINE",
"155 0 LINE"
);
}
);
};
layerId = "EFCDB4D9-E20B-4A8D-9DB5-150AD166B0AE";
paths = (
{
closed = 1;
nodes = (
"495 0 LINE",
"495 120 LINE",
"425 120 LINE",
"425 463 LINE",
"505 463 LINE",
"505 343 LINE",
"635 343 LINE",
"635 583 LINE",
"15 583 LINE",
"15 343 LINE",
"145 343 LINE",
"145 463 LINE",
"225 463 LINE",
"225 120 LINE",
"155 120 LINE",
"155 0 LINE"
);
}
);
width = 650;
},
{
anchors = (
{
name = bottom;
position = "{281, 0}";
},
{
name = mid;
position = "{279, 285}";
},
{
name = top;
position = "{278, 563}";
}
);
associatedMasterId = "98C086B7-81AA-4491-8494-0C6A76849168";
layerId = "597E85D2-51C0-46BD-B39F-3CA6E86F6FCC";
name = "Original Regular";
paths = (
{
closed = 1;
nodes = (
"399 0 LINE",
"399 53 LINE",
"321 53 LINE",
"321 510 LINE",
"472 510 LINE",
"472 367 LINE",
"533 367 LINE",
"533 563 LINE",
"25 563 LINE",
"25 367 LINE",
"86 367 LINE",
"86 510 LINE",
"240 510 LINE",
"240 53 LINE",
"162 53 LINE",
"162 0 LINE"
);
}
);
width = 559;
},
{
anchors = (
{
name = bottom;
position = "{303, 0}";
},
{
name = mid;
position = "{304, 266}";
},
{
name = top;
position = "{303, 583}";
}
);
background = {
anchors = (
{
name = bottom;
position = "{303, 0}";
},
{
name = mid;
position = "{304, 269}";
},
{
name = top;
position = "{303, 583}";
}
);
paths = (
{
closed = 1;
nodes = (
"443 0 LINE",
"443 71 LINE",
"361 71 LINE",
"361 512 LINE",
"509 512 LINE",
"509 373 LINE",
"587 373 LINE",
"587 583 LINE",
"19 583 LINE",
"19 373 LINE",
"97 373 LINE",
"97 512 LINE",
"246 512 LINE",
"246 71 LINE",
"163 71 LINE",
"163 0 LINE"
);
}
);
};
layerId = "086393EE-48A8-42B6-AE05-10B6A30445E6";
paths = (
{
closed = 1;
nodes = (
"443 0 LINE",
"443 83 LINE",
"361 83 LINE",
"361 500 LINE",
"506 500 LINE",
"506 366 LINE",
"587 366 LINE",
"587 583 LINE",
"20 583 LINE",
"20 366 LINE",
"101 366 LINE",
"101 500 LINE",
"246 500 LINE",
"246 83 LINE",
"164 83 LINE",
"164 0 LINE"
);
}
);
width = 607;
}
);
leftKerningGroup = T;
rightKerningGroup = T;
rightMetricsKey = "=|";
unicode = 0054;
userData = {
com.typemytype.robofont.layerData = {
b = {
anchors = (
);
components = (
);
contours = (
);
lib = {
};
name = T;
unicodes = (
);
width = 1147;
};
};
org.robofab.postScriptHintData = {
};
};
},
{
color = 3;
glyphname = U;
layers = (
{
anchors = (
{
name = bottom;
position = "{347, 0}";
},
{
name = ogonek;
position = "{384, 0}";
},
{
name = top;
position = "{348, 583}";
},
{
name = topright;
position = "{649, 583}";
}
);
background = {
anchors = (
{
name = bottom;
position = "{347, 0}";
},
{
name = ogonek;
position = "{344, 0}";
},
{
name = top;
position = "{348, 583}";
},
{
name = topright;
position = "{649, 583}";
}
);
paths = (
{
closed = 1;
nodes = (
"484 -11 OFFCURVE",
"574 54 OFFCURVE",
"574 218 CURVE SMOOTH",
"574 561 LINE",
"659 561 LINE",
"659 583 LINE",
"461 583 LINE",
"461 561 LINE",
"546 561 LINE",
"546 218 LINE SMOOTH",
"546 69 OFFCURVE",
"465 13 OFFCURVE",
"347 13 CURVE SMOOTH",
"229 13 OFFCURVE",
"150 69 OFFCURVE",
"150 218 CURVE SMOOTH",
"150 561 LINE",
"235 561 LINE",
"235 583 LINE",
"35 583 LINE",
"35 561 LINE",
"120 561 LINE",
"120 218 LINE SMOOTH",
"120 54 OFFCURVE",
"210 -11 OFFCURVE",
"347 -11 CURVE SMOOTH"
);
}
);
};
layerId = "98C086B7-81AA-4491-8494-0C6A76849168";
paths = (
{
closed = 1;
nodes = (
"484 -11 OFFCURVE",
"574 54 OFFCURVE",
"574 218 CURVE SMOOTH",
"574 561 LINE",
"659 561 LINE",
"659 583 LINE",
"461 583 LINE",
"461 561 LINE",
"546 561 LINE",
"546 218 LINE SMOOTH",
"546 69 OFFCURVE",
"465 13 OFFCURVE",
"347 13 CURVE SMOOTH",
"229 13 OFFCURVE",
"150 69 OFFCURVE",
"150 218 CURVE SMOOTH",
"150 561 LINE",
"235 561 LINE",
"235 583 LINE",
"35 583 LINE",
"35 561 LINE",
"120 561 LINE",
"120 218 LINE SMOOTH",
"120 54 OFFCURVE",
"210 -11 OFFCURVE",
"347 -11 CURVE SMOOTH"
);
}
);
width = 694;
},
{
anchors = (
{
name = bottom;
position = "{369, 0}";
},
{
name = ogonek;
position = "{424, 0}";
},
{
name = top;
position = "{369, 583}";
},
{
name = topright;
position = "{648, 583}";
}
);
background = {
anchors = (
{
name = bottom;
position = "{369, 0}";
},
{
name = ogonek;
position = "{384, 0}";
},
{
name = top;
position = "{369, 583}";
},
{
name = topright;
position = "{648, 583}";
}
);
paths = (
{
closed = 1;
nodes = (
"533 -10 OFFCURVE",
"636 77 OFFCURVE",
"636 246 CURVE SMOOTH",
"636 463 LINE",
"686 463 LINE",
"686 583 LINE",
"416 583 LINE",
"416 463 LINE",
"466 463 LINE",
"466 241 LINE SMOOTH",
"466 169 OFFCURVE",
"434 130 OFFCURVE",
"369 130 CURVE SMOOTH",
"304 130 OFFCURVE",
"272 169 OFFCURVE",
"272 241 CURVE SMOOTH",
"272 463 LINE",
"322 463 LINE",
"322 583 LINE",
"22 583 LINE",
"22 463 LINE",
"72 463 LINE",
"72 246 LINE SMOOTH",
"72 77 OFFCURVE",
"173 -10 OFFCURVE",
"352 -10 CURVE SMOOTH"
);
}
);
};
layerId = "EFCDB4D9-E20B-4A8D-9DB5-150AD166B0AE";
paths = (
{
closed = 1;
nodes = (
"533 -10 OFFCURVE",
"636 82 OFFCURVE",
"636 246 CURVE SMOOTH",
"636 463 LINE",
"686 463 LINE",
"686 583 LINE",
"416 583 LINE",
"416 463 LINE",
"466 463 LINE",
"466 236 LINE SMOOTH",
"466 169 OFFCURVE",
"434 130 OFFCURVE",
"369 130 CURVE SMOOTH",
"304 130 OFFCURVE",
"272 169 OFFCURVE",
"272 236 CURVE SMOOTH",
"272 463 LINE",
"322 463 LINE",
"322 583 LINE",
"22 583 LINE",
"22 463 LINE",
"72 463 LINE",
"72 246 LINE SMOOTH",
"72 82 OFFCURVE",
"173 -10 OFFCURVE",
"354 -10 CURVE SMOOTH"
);
}
);
width = 708;
},
{
anchors = (
{
name = bottom;
position = "{338, 0}";
},
{
name = ogonek;
position = "{363, 0}";
},
{
name = top;
position = "{344, 563}";
},
{
name = topright;
position = "{540, 563}";
}
);
associatedMasterId = "98C086B7-81AA-4491-8494-0C6A76849168";
layerId = "560BA3EF-9A8E-410C-8D3D-CDBA5F59A304";
name = "Original Regular";
paths = (
{
closed = 1;
nodes = (
"476 -10 OFFCURVE",
"574 58 OFFCURVE",
"574 197 CURVE SMOOTH",
"574 510 LINE",
"650 510 LINE",
"650 563 LINE",
"431 563 LINE",
"431 510 LINE",
"505 510 LINE",
"505 194 LINE SMOOTH",
"505 104 OFFCURVE",
"444 50 OFFCURVE",
"339 50 CURVE SMOOTH",
"241 50 OFFCURVE",
"183 104 OFFCURVE",
"183 193 CURVE SMOOTH",
"183 510 LINE",
"258 510 LINE",
"258 563 LINE",
"27 563 LINE",
"27 510 LINE",
"102 510 LINE",
"102 204 LINE SMOOTH",
"102 82 OFFCURVE",
"169 -10 OFFCURVE",
"337 -10 CURVE SMOOTH"
);
}
);
width = 670;
},
{
anchors = (
{
name = bottom;
position = "{358, 0}";
},
{
name = ogonek;
position = "{404, 0}";
},
{
name = top;
position = "{359, 583}";
},
{
name = topright;
position = "{649, 583}";
}
);
background = {
anchors = (
{
name = bottom;
position = "{358, 0}";
},
{
name = ogonek;
position = "{404, 0}";
},
{
name = top;
position = "{359, 583}";
},
{
name = topright;
position = "{649, 583}";
}
);
paths = (
{
closed = 1;
nodes = (
"509 -10 OFFCURVE",
"605 68 OFFCURVE",
"605 232 CURVE SMOOTH",
"605 512 LINE",
"673 512 LINE",
"673 583 LINE",
"439 583 LINE",
"439 512 LINE",
"506 512 LINE",
"506 227 LINE SMOOTH",
"506 119 OFFCURVE",
"450 72 OFFCURVE",
"358 72 CURVE SMOOTH",
"267 72 OFFCURVE",
"211 119 OFFCURVE",
"211 227 CURVE SMOOTH",
"211 512 LINE",
"279 512 LINE",
"279 583 LINE",
"29 583 LINE",
"29 512 LINE",
"96 512 LINE",
"96 232 LINE SMOOTH",
"96 68 OFFCURVE",
"192 -10 OFFCURVE",
"351 -10 CURVE SMOOTH"
);
}
);
};
layerId = "086393EE-48A8-42B6-AE05-10B6A30445E6";
paths = (
{
closed = 1;
nodes = (
"509 -10 OFFCURVE",
"605 72 OFFCURVE",
"605 236 CURVE SMOOTH",
"605 500 LINE",
"672 500 LINE",
"672 583 LINE",
"439 583 LINE",
"439 500 LINE",
"506 500 LINE",
"506 241 LINE SMOOTH",
"506 134 OFFCURVE",
"450 88 OFFCURVE",
"358 88 CURVE SMOOTH",
"267 88 OFFCURVE",
"211 134 OFFCURVE",
"211 241 CURVE SMOOTH",
"211 500 LINE",
"278 500 LINE",
"278 583 LINE",
"29 583 LINE",
"29 500 LINE",
"96 500 LINE",
"96 236 LINE SMOOTH",
"96 82 OFFCURVE",
"192 -10 OFFCURVE",
"351 -10 CURVE SMOOTH"
);
}
);
width = 701;
}
);
leftKerningGroup = U;
rightKerningGroup = U;
rightMetricsKey = "=|";
unicode = 0055;
userData = {
com.typemytype.robofont.layerData = {
b = {
anchors = (
);
components = (
);
contours = (
);
lib = {
};
name = U;
unicodes = (
);
width = 1514;
};
};
org.robofab.postScriptHintData = {
};
};
},
{
color = 3;
glyphname = Uhorn;
layers = (
{
anchors = (
{
name = bottom;
position = "{347, 0}";
},
{
name = top;
position = "{348, 583}";
}
);
background = {
anchors = (
{
name = bottom;
position = "{347, 0}";
},
{
name = top;
position = "{348, 583}";
}
);
paths = (
{
closed = 1;
nodes = (
"484 -11 OFFCURVE",
"574 54 OFFCURVE",
"574 218 CURVE SMOOTH",
"574 561 LINE",
"648 563 OFFCURVE",
"676 610 OFFCURVE",
"676 673 CURVE",
"651 673 LINE",
"651 616 OFFCURVE",
"629 583 OFFCURVE",
"572 583 CURVE SMOOTH",
"461 583 LINE",
"461 561 LINE",
"546 561 LINE",
"546 218 LINE SMOOTH",
"546 69 OFFCURVE",
"465 13 OFFCURVE",
"347 13 CURVE SMOOTH",
"229 13 OFFCURVE",
"150 69 OFFCURVE",
"150 218 CURVE SMOOTH",
"150 561 LINE",
"235 561 LINE",
"235 583 LINE",
"35 583 LINE",
"35 561 LINE",
"120 561 LINE",
"120 218 LINE SMOOTH",
"120 54 OFFCURVE",
"210 -11 OFFCURVE",
"347 -11 CURVE SMOOTH"
);
}
);
};
layerId = "98C086B7-81AA-4491-8494-0C6A76849168";
paths = (
{
closed = 1;
nodes = (
"484 -11 OFFCURVE",
"574 54 OFFCURVE",
"574 218 CURVE SMOOTH",
"574 561 LINE",
"648 563 OFFCURVE",
"676 610 OFFCURVE",
"676 673 CURVE",
"651 673 LINE",
"651 616 OFFCURVE",
"629 583 OFFCURVE",
"572 583 CURVE SMOOTH",
"461 583 LINE",
"461 561 LINE",
"546 561 LINE",
"546 218 LINE SMOOTH",
"546 69 OFFCURVE",
"465 13 OFFCURVE",
"347 13 CURVE SMOOTH",
"229 13 OFFCURVE",
"150 69 OFFCURVE",
"150 218 CURVE SMOOTH",
"150 561 LINE",
"235 561 LINE",
"235 583 LINE",
"35 583 LINE",
"35 561 LINE",
"120 561 LINE",
"120 218 LINE SMOOTH",
"120 54 OFFCURVE",
"210 -11 OFFCURVE",
"347 -11 CURVE SMOOTH"
);
}
);
width = 694;
},
{
anchors = (
{
name = bottom;
position = "{369, 0}";
},
{
name = top;
position = "{369, 583}";
}
);
background = {
anchors = (
{
name = bottom;
position = "{369, 0}";
},
{
name = top;
position = "{369, 583}";
}
);
paths = (
{
closed = 1;
nodes = (
"533 -10 OFFCURVE",
"636 82 OFFCURVE",
"636 246 CURVE SMOOTH",
"636 463 LINE",
"686 463 LINE",
"686 583 LINE",
"416 583 LINE",
"416 463 LINE",
"466 463 LINE",
"466 236 LINE SMOOTH",
"466 169 OFFCURVE",
"434 130 OFFCURVE",
"369 130 CURVE SMOOTH",
"304 130 OFFCURVE",
"272 169 OFFCURVE",
"272 236 CURVE SMOOTH",
"272 463 LINE",
"322 463 LINE",
"322 583 LINE",
"22 583 LINE",
"22 463 LINE",
"72 463 LINE",
"72 246 LINE SMOOTH",
"72 82 OFFCURVE",
"173 -10 OFFCURVE",
"354 -10 CURVE SMOOTH"
);
}
);
};
layerId = "EFCDB4D9-E20B-4A8D-9DB5-150AD166B0AE";
widthMetricsKey = "=U+40";
paths = (
{
closed = 1;
nodes = (
"533 -10 OFFCURVE",
"636 82 OFFCURVE",
"636 246 CURVE SMOOTH",
"636 463 LINE",
"737 468 OFFCURVE",
"789 540 OFFCURVE",
"789 683 CURVE",
"655 683 LINE",
"655 607 OFFCURVE",
"626 583 OFFCURVE",
"573 583 CURVE SMOOTH",
"416 583 LINE",
"416 463 LINE",
"466 463 LINE",
"466 236 LINE SMOOTH",
"466 169 OFFCURVE",
"434 130 OFFCURVE",
"369 130 CURVE SMOOTH",
"304 130 OFFCURVE",
"272 169 OFFCURVE",
"272 236 CURVE SMOOTH",
"272 463 LINE",
"322 463 LINE",
"322 583 LINE",
"22 583 LINE",
"22 463 LINE",
"72 463 LINE",
"72 246 LINE SMOOTH",
"72 82 OFFCURVE",
"173 -10 OFFCURVE",
"354 -10 CURVE SMOOTH"
);
}
);
width = 748;
},
{
anchors = (
{
name = bottom;
position = "{338, 0}";
},
{
name = top;
position = "{344, 563}";
}
);
associatedMasterId = "98C086B7-81AA-4491-8494-0C6A76849168";
layerId = "65C35B1C-ACB2-4D53-989F-A55F6717DD0F";
name = "Original Regular";
paths = (
{
closed = 1;
nodes = (
"476 -10 OFFCURVE",
"574 58 OFFCURVE",
"574 197 CURVE SMOOTH",
"574 563 LINE",
"431 563 LINE",
"431 510 LINE",
"505 510 LINE",
"505 194 LINE SMOOTH",
"505 104 OFFCURVE",
"444 50 OFFCURVE",
"339 50 CURVE SMOOTH",
"241 50 OFFCURVE",
"183 104 OFFCURVE",
"183 193 CURVE SMOOTH",
"183 510 LINE",
"258 510 LINE",
"258 563 LINE",
"27 563 LINE",
"27 510 LINE",
"102 510 LINE",
"102 204 LINE SMOOTH",
"102 82 OFFCURVE",
"169 -10 OFFCURVE",
"337 -10 CURVE SMOOTH"
);
},
{
closed = 1;
nodes = (
"532 516 LINE SMOOTH",
"607 516 OFFCURVE",
"658 561 OFFCURVE",
"667 632 CURVE",
"586 632 LINE",
"582 582 OFFCURVE",
"552 563 OFFCURVE",
"515 563 CURVE SMOOTH",
"503 563 LINE",
"503 516 LINE"
);
}
);
width = 670;
},
{
anchors = (
{
name = bottom;
position = "{358, 0}";
},
{
name = top;
position = "{359, 583}";
}
);
background = {
anchors = (
{
name = bottom;
position = "{358, 0}";
},
{
name = top;
position = "{359, 583}";
}
);
paths = (
{
closed = 1;
nodes = (
"509 -10 OFFCURVE",
"605 72 OFFCURVE",
"605 236 CURVE SMOOTH",
"605 500 LINE",
"672 500 LINE",
"672 583 LINE",
"439 583 LINE",
"439 500 LINE",
"506 500 LINE",
"506 241 LINE SMOOTH",
"506 134 OFFCURVE",
"450 88 OFFCURVE",
"358 88 CURVE SMOOTH",
"267 88 OFFCURVE",
"211 134 OFFCURVE",
"211 241 CURVE SMOOTH",
"211 500 LINE",
"279 500 LINE",
"279 583 LINE",
"29 583 LINE",
"29 500 LINE",
"96 500 LINE",
"96 236 LINE SMOOTH",
"96 82 OFFCURVE",
"192 -10 OFFCURVE",
"351 -10 CURVE SMOOTH"
);
}
);
};
layerId = "086393EE-48A8-42B6-AE05-10B6A30445E6";
paths = (
{
closed = 1;
nodes = (
"509 -10 OFFCURVE",
"605 72 OFFCURVE",
"605 236 CURVE SMOOTH",
"605 500 LINE",
"693 504 OFFCURVE",
"733 566 OFFCURVE",
"733 679 CURVE",
"653 679 LINE",
"653 610 OFFCURVE",
"628 583 OFFCURVE",
"573 583 CURVE SMOOTH",
"439 583 LINE",
"439 500 LINE",
"506 500 LINE",
"506 241 LINE SMOOTH",
"506 134 OFFCURVE",
"450 88 OFFCURVE",
"358 88 CURVE SMOOTH",
"267 88 OFFCURVE",
"211 134 OFFCURVE",
"211 241 CURVE SMOOTH",
"211 500 LINE",
"279 500 LINE",
"279 583 LINE",
"29 583 LINE",
"29 500 LINE",
"96 500 LINE",
"96 236 LINE SMOOTH",
"96 82 OFFCURVE",
"192 -10 OFFCURVE",
"351 -10 CURVE SMOOTH"
);
}
);
width = 701;
}
);
leftKerningGroup = U;
leftMetricsKey = U;
widthMetricsKey = U;
rightKerningGroup = Uhorn;
unicode = 01AF;
},
{
color = 3;
glyphname = V;
layers = (
{
background = {
paths = (
{
closed = 1;
nodes = (
"314 0 LINE",
"520 561 LINE",
"595 561 LINE",
"595 583 LINE",
"411 583 LINE",
"411 561 LINE",
"491 561 LINE",
"294 18 LINE",
"309 18 LINE",
"112 561 LINE",
"192 561 LINE",
"192 583 LINE",
"6 583 LINE",
"6 561 LINE",
"81 561 LINE",
"287 0 LINE"
);
}
);
};
layerId = "98C086B7-81AA-4491-8494-0C6A76849168";
paths = (
{
closed = 1;
nodes = (
"314 0 LINE",
"520 561 LINE",
"595 561 LINE",
"595 583 LINE",
"411 583 LINE",
"411 561 LINE",
"491 561 LINE",
"294 18 LINE",
"309 18 LINE",
"112 561 LINE",
"192 561 LINE",
"192 583 LINE",
"6 583 LINE",
"6 561 LINE",
"81 561 LINE",
"287 0 LINE"
);
}
);
width = 601;
},
{
background = {
paths = (
{
closed = 1;
nodes = (
"456 0 LINE",
"627 463 LINE",
"677 463 LINE",
"677 583 LINE",
"375 583 LINE",
"375 463 LINE",
"430 463 LINE",
"332 149 LINE",
"358 149 LINE",
"260 463 LINE",
"315 463 LINE",
"315 583 LINE",
"0 583 LINE",
"0 463 LINE",
"50 463 LINE",
"221 0 LINE"
);
}
);
};
layerId = "EFCDB4D9-E20B-4A8D-9DB5-150AD166B0AE";
paths = (
{
closed = 1;
nodes = (
"456 0 LINE",
"627 463 LINE",
"677 463 LINE",
"677 583 LINE",
"375 583 LINE",
"375 463 LINE",
"430 463 LINE",
"332 149 LINE",
"358 149 LINE",
"260 463 LINE",
"315 463 LINE",
"315 583 LINE",
"0 583 LINE",
"0 463 LINE",
"50 463 LINE",
"221 0 LINE"
);
}
);
width = 677;
},
{
associatedMasterId = "98C086B7-81AA-4491-8494-0C6A76849168";
layerId = "95FE4527-3059-4F20-8FF8-05C2BF1E944A";
name = "Original Regular";
paths = (
{
closed = 1;
nodes = (
"360 0 LINE",
"560 510 LINE",
"629 510 LINE",
"629 563 LINE",
"415 563 LINE",
"415 510 LINE",
"487 510 LINE",
"330 89 LINE",
"171 510 LINE",
"245 510 LINE",
"245 563 LINE",
"16 563 LINE",
"16 510 LINE",
"87 510 LINE",
"289 0 LINE"
);
}
);
width = 646;
},
{
background = {
paths = (
{
closed = 1;
nodes = (
"385 0 LINE",
"574 512 LINE",
"636 512 LINE",
"636 583 LINE",
"393 583 LINE",
"393 512 LINE",
"461 512 LINE",
"313 84 LINE",
"334 84 LINE",
"186 512 LINE",
"254 512 LINE",
"254 583 LINE",
"3 583 LINE",
"3 512 LINE",
"66 512 LINE",
"254 0 LINE"
);
}
);
};
layerId = "086393EE-48A8-42B6-AE05-10B6A30445E6";
paths = (
{
closed = 1;
nodes = (
"385 0 LINE",
"574 500 LINE",
"637 500 LINE",
"637 583 LINE",
"393 583 LINE",
"393 500 LINE",
"461 500 LINE",
"313 100 LINE",
"334 100 LINE",
"186 500 LINE",
"254 500 LINE",
"254 583 LINE",
"3 583 LINE",
"3 500 LINE",
"66 500 LINE",
"254 0 LINE"
);
}
);
width = 640;
}
);
leftKerningGroup = V;
rightKerningGroup = V;
rightMetricsKey = "=|";
unicode = 0056;
userData = {
com.typemytype.robofont.layerData = {
b = {
anchors = (
);
components = (
);
contours = (
);
lib = {
};
name = V;
unicodes = (
);
width = 1228;
};
};
org.robofab.postScriptHintData = {
};
};
},
{
color = 3;
glyphname = W;
layers = (
{
anchors = (
{
name = top;
position = "{485, 583}";
}
);
background = {
anchors = (
{
name = top;
position = "{485, 583}";
}
);
paths = (
{
closed = 1;
nodes = (
"296 0 LINE",
"490 501 LINE",
"477 501 LINE",
"671 0 LINE",
"697 0 LINE",
"873 561 LINE",
"948 561 LINE",
"948 583 LINE",
"764 583 LINE",
"764 561 LINE",
"844 561 LINE",
"678 18 LINE",
"692 18 LINE",
"495 534 LINE",
"473 534 LINE",
"276 18 LINE",
"291 18 LINE",
"124 561 LINE",
"204 561 LINE",
"204 583 LINE",
"18 583 LINE",
"18 561 LINE",
"93 561 LINE",
"269 0 LINE"
);
}
);
};
layerId = "98C086B7-81AA-4491-8494-0C6A76849168";
paths = (
{
closed = 1;
nodes = (
"296 0 LINE",
"490 501 LINE",
"477 501 LINE",
"671 0 LINE",
"697 0 LINE",
"873 561 LINE",
"948 561 LINE",
"948 583 LINE",
"764 583 LINE",
"764 561 LINE",
"844 561 LINE",
"678 18 LINE",
"692 18 LINE",
"495 534 LINE",
"473 534 LINE",
"276 18 LINE",
"291 18 LINE",
"124 561 LINE",
"204 561 LINE",
"204 583 LINE",
"18 583 LINE",
"18 561 LINE",
"93 561 LINE",
"269 0 LINE"
);
}
);
width = 966;
},
{
anchors = (
{
name = top;
position = "{482, 583}";
}
);
background = {
anchors = (
{
name = top;
position = "{482, 583}";
}
);
paths = (
{
closed = 1;
nodes = (
"405 0 LINE",
"497 311 LINE",
"462 311 LINE",
"564 0 LINE",
"775 0 LINE",
"899 463 LINE",
"950 463 LINE",
"950 583 LINE",
"653 583 LINE",
"653 463 LINE",
"708 463 LINE",
"651 149 LINE",
"677 149 LINE",
"566 533 LINE",
"397 533 LINE",
"285 149 LINE",
"311 149 LINE",
"255 463 LINE",
"310 463 LINE",
"310 583 LINE",
"0 583 LINE",
"0 463 LINE",
"50 463 LINE",
"174 0 LINE"
);
}
);
};
layerId = "EFCDB4D9-E20B-4A8D-9DB5-150AD166B0AE";
paths = (
{
closed = 1;
nodes = (
"405 0 LINE",
"497 311 LINE",
"462 311 LINE",
"564 0 LINE",
"775 0 LINE",
"899 463 LINE",
"950 463 LINE",
"950 583 LINE",
"653 583 LINE",
"653 463 LINE",
"708 463 LINE",
"651 149 LINE",
"677 149 LINE",
"566 533 LINE",
"397 533 LINE",
"285 149 LINE",
"311 149 LINE",
"255 463 LINE",
"310 463 LINE",
"310 583 LINE",
"0 583 LINE",
"0 463 LINE",
"50 463 LINE",
"174 0 LINE"
);
}
);
width = 950;
},
{
anchors = (
{
name = top;
position = "{468, 553}";
}
);
associatedMasterId = "98C086B7-81AA-4491-8494-0C6A76849168";
layerId = "D075F43E-E816-42D3-8DB4-466F5CE8113E";
name = "Original Regular";
paths = (
{
closed = 1;
nodes = (
"323 0 LINE",
"463 426 LINE",
"604 0 LINE",
"674 0 LINE",
"829 510 LINE",
"899 510 LINE",
"899 563 LINE",
"689 563 LINE",
"689 510 LINE",
"762 510 LINE",
"643 104 LINE",
"497 553 LINE",
"438 553 LINE",
"293 104 LINE",
"171 510 LINE",
"244 510 LINE",
"244 563 LINE",
"24 563 LINE",
"24 510 LINE",
"93 510 LINE",
"253 0 LINE"
);
}
);
width = 922;
},
{
anchors = (
{
name = top;
position = "{484, 583}";
}
);
background = {
anchors = (
{
name = top;
position = "{484, 583}";
}
);
paths = (
{
closed = 1;
nodes = (
"351 0 LINE",
"494 406 LINE",
"470 406 LINE",
"618 0 LINE",
"736 0 LINE",
"886 512 LINE",
"949 512 LINE",
"949 583 LINE",
"709 583 LINE",
"709 512 LINE",
"776 512 LINE",
"665 84 LINE",
"685 84 LINE",
"531 534 LINE",
"435 534 LINE",
"281 84 LINE",
"301 84 LINE",
"190 512 LINE",
"257 512 LINE",
"257 583 LINE",
"9 583 LINE",
"9 512 LINE",
"72 512 LINE",
"222 0 LINE"
);
}
);
};
layerId = "086393EE-48A8-42B6-AE05-10B6A30445E6";
paths = (
{
closed = 1;
nodes = (
"351 0 LINE",
"494 389 LINE",
"470 389 LINE",
"618 0 LINE",
"736 0 LINE",
"886 500 LINE",
"949 500 LINE",
"949 583 LINE",
"709 583 LINE",
"709 500 LINE",
"776 500 LINE",
"665 100 LINE",
"685 100 LINE",
"531 533 LINE",
"435 533 LINE",
"281 100 LINE",
"301 100 LINE",
"190 500 LINE",
"257 500 LINE",
"257 583 LINE",
"9 583 LINE",
"9 500 LINE",
"72 500 LINE",
"222 0 LINE"
);
}
);
width = 958;
}
);
leftKerningGroup = V;
rightKerningGroup = V;
rightMetricsKey = "=|";
unicode = 0057;
userData = {
com.typemytype.robofont.layerData = {
b = {
anchors = (
);
components = (
);
contours = (
);
lib = {
};
name = W;
unicodes = (
);
width = 1962;
};
};
org.robofab.postScriptHintData = {
};
};
},
{
color = 3;
glyphname = X;
layers = (
{
background = {
paths = (
{
closed = 1;
nodes = (
"215 0 LINE",
"215 22 LINE",
"135 22 LINE",
"305 289 LINE",
"294 286 LINE",
"464 22 LINE",
"384 22 LINE",
"384 0 LINE",
"569 0 LINE",
"569 22 LINE",
"494 22 LINE",
"309 309 LINE",
"307 286 LINE",
"483 561 LINE",
"558 561 LINE",
"558 583 LINE",
"372 583 LINE",
"372 561 LINE",
"452 561 LINE",
"293 311 LINE",
"306 314 LINE",
"146 561 LINE",
"226 561 LINE",
"226 583 LINE",
"41 583 LINE",
"41 561 LINE",
"116 561 LINE",
"289 294 LINE",
"288 310 LINE",
"104 22 LINE",
"29 22 LINE",
"29 0 LINE"
);
}
);
};
guideLines = (
{
angle = 122.8479;
position = "{290, 292}";
},
{
angle = 122.8479;
position = "{318, 292}";
},
{
angle = 57.1521;
position = "{279, 292}";
},
{
angle = 237.1521;
position = "{309, 292}";
}
);
layerId = "98C086B7-81AA-4491-8494-0C6A76849168";
paths = (
{
closed = 1;
nodes = (
"215 0 LINE",
"215 22 LINE",
"135 22 LINE",
"305 289 LINE",
"294 286 LINE",
"464 22 LINE",
"384 22 LINE",
"384 0 LINE",
"569 0 LINE",
"569 22 LINE",
"494 22 LINE",
"309 309 LINE",
"307 286 LINE",
"483 561 LINE",
"558 561 LINE",
"558 583 LINE",
"372 583 LINE",
"372 561 LINE",
"452 561 LINE",
"293 311 LINE",
"306 314 LINE",
"146 561 LINE",
"226 561 LINE",
"226 583 LINE",
"41 583 LINE",
"41 561 LINE",
"116 561 LINE",
"289 294 LINE",
"288 310 LINE",
"104 22 LINE",
"29 22 LINE",
"29 0 LINE"
);
}
);
width = 596;
},
{
background = {
paths = (
{
closed = 1;
nodes = (
"301 0 LINE",
"301 120 LINE",
"256 120 LINE",
"374 271 LINE",
"318 227 LINE",
"420 120 LINE",
"375 120 LINE",
"375 0 LINE",
"708 0 LINE",
"708 120 LINE",
"668 120 LINE",
"484 304 LINE",
"464 228 LINE",
"658 463 LINE",
"698 463 LINE",
"698 583 LINE",
"405 583 LINE",
"405 463 LINE",
"450 463 LINE",
"332 312 LINE",
"427 341 LINE",
"307 463 LINE",
"352 463 LINE",
"352 583 LINE",
"19 583 LINE",
"19 463 LINE",
"59 463 LINE",
"246 279 LINE",
"242 355 LINE",
"47 120 LINE",
"7 120 LINE",
"7 0 LINE"
);
}
);
};
guideLines = (
{
angle = 135.1617;
position = "{467, 292}";
},
{
angle = 135.1666;
position = "{249, 292}";
}
);
layerId = "EFCDB4D9-E20B-4A8D-9DB5-150AD166B0AE";
paths = (
{
closed = 1;
nodes = (
"301 0 LINE",
"301 120 LINE",
"256 120 LINE",
"374 271 LINE",
"318 227 LINE",
"420 120 LINE",
"375 120 LINE",
"375 0 LINE",
"708 0 LINE",
"708 120 LINE",
"668 120 LINE",
"484 304 LINE",
"464 228 LINE",
"658 463 LINE",
"698 463 LINE",
"698 583 LINE",
"405 583 LINE",
"405 463 LINE",
"450 463 LINE",
"332 312 LINE",
"427 341 LINE",
"307 463 LINE",
"352 463 LINE",
"352 583 LINE",
"19 583 LINE",
"19 463 LINE",
"59 463 LINE",
"246 279 LINE",
"242 355 LINE",
"47 120 LINE",
"7 120 LINE",
"7 0 LINE"
);
}
);
width = 715;
},
{
associatedMasterId = "98C086B7-81AA-4491-8494-0C6A76849168";
layerId = "918D79ED-BED8-4B54-AA0F-64B2DA1CCB92";
name = "Original Regular";
paths = (
{
closed = 1;
nodes = (
"253 0 LINE",
"253 50 LINE",
"182 50 LINE",
"311 243 LINE",
"441 50 LINE",
"371 50 LINE",
"371 0 LINE",
"607 0 LINE",
"607 50 LINE",
"528 50 LINE",
"359 289 LINE",
"517 512 LINE",
"594 512 LINE",
"594 563 LINE",
"375 563 LINE",
"375 512 LINE",
"444 512 LINE",
"323 334 LINE",
"200 512 LINE",
"268 512 LINE",
"268 563 LINE",
"37 563 LINE",
"37 512 LINE",
"114 512 LINE",
"273 288 LINE",
"108 50 LINE",
"30 50 LINE",
"30 0 LINE"
);
}
);
width = 637;
},
{
background = {
paths = (
{
closed = 1;
nodes = (
"258 0 LINE",
"258 83 LINE",
"196 83 LINE",
"337 278 LINE",
"303 249 LINE",
"437 83 LINE",
"375 83 LINE",
"375 0 LINE",
"634 0 LINE",
"634 83 LINE",
"576 83 LINE",
"394 306 LINE",
"386 250 LINE",
"571 500 LINE",
"629 500 LINE",
"629 583 LINE",
"389 583 LINE",
"389 500 LINE",
"451 500 LINE",
"316 312 LINE",
"370 331 LINE",
"233 500 LINE",
"295 500 LINE",
"295 583 LINE",
"36 583 LINE",
"36 500 LINE",
"94 500 LINE",
"271 285 LINE",
"265 338 LINE",
"76 83 LINE",
"18 83 LINE",
"18 0 LINE"
);
}
);
};
guideLines = (
{
angle = -50.673;
position = "{369, 166}";
},
{
angle = 48.0356;
position = "{264, 292}";
},
{
angle = 228.0356;
position = "{384, 292}";
},
{
angle = 129.4387;
position = "{405, 292}";
}
);
layerId = "086393EE-48A8-42B6-AE05-10B6A30445E6";
paths = (
{
closed = 1;
nodes = (
"258 0 LINE",
"258 83 LINE",
"196 83 LINE",
"337 250 LINE",
"301 249 LINE",
"437 83 LINE",
"375 83 LINE",
"375 0 LINE",
"634 0 LINE",
"634 83 LINE",
"576 83 LINE",
"378 325 LINE",
"386 284 LINE",
"571 500 LINE",
"629 500 LINE",
"629 583 LINE",
"389 583 LINE",
"389 500 LINE",
"451 500 LINE",
"319 343 LINE",
"355 353 LINE",
"233 500 LINE",
"295 500 LINE",
"295 583 LINE",
"36 583 LINE",
"36 500 LINE",
"94 500 LINE",
"271 285 LINE",
"277 316 LINE",
"76 83 LINE",
"18 83 LINE",
"18 0 LINE"
);
}
);
width = 655.5;
}
);
leftKerningGroup = X;
rightKerningGroup = X;
unicode = 0058;
userData = {
com.typemytype.robofont.layerData = {
b = {
anchors = (
);
components = (
);
contours = (
);
lib = {
};
name = X;
unicodes = (
);
width = 1293;
};
};
org.robofab.postScriptHintData = {
};
};
},
{
color = 3;
glyphname = Y;
layers = (
{
anchors = (
{
name = bottom;
position = "{299, 0}";
},
{
name = top;
position = "{299, 583}";
}
);
background = {
anchors = (
{
name = bottom;
position = "{299, 0}";
},
{
name = top;
position = "{299, 583}";
}
);
paths = (
{
closed = 1;
nodes = (
"409 0 LINE",
"409 22 LINE",
"314 22 LINE",
"314 247 LINE",
"523 561 LINE",
"598 561 LINE",
"598 583 LINE",
"412 583 LINE",
"412 561 LINE",
"492 561 LINE",
"293 260 LINE",
"308 260 LINE",
"107 561 LINE",
"187 561 LINE",
"187 583 LINE",
"0 583 LINE",
"0 561 LINE",
"75 561 LINE",
"284 247 LINE",
"284 22 LINE",
"189 22 LINE",
"189 0 LINE"
);
}
);
};
layerId = "98C086B7-81AA-4491-8494-0C6A76849168";
paths = (
{
closed = 1;
nodes = (
"409 0 LINE",
"409 22 LINE",
"314 22 LINE",
"314 247 LINE",
"523 561 LINE",
"598 561 LINE",
"598 583 LINE",
"412 583 LINE",
"412 561 LINE",
"492 561 LINE",
"293 260 LINE",
"308 260 LINE",
"107 561 LINE",
"187 561 LINE",
"187 583 LINE",
"0 583 LINE",
"0 561 LINE",
"75 561 LINE",
"284 247 LINE",
"284 22 LINE",
"189 22 LINE",
"189 0 LINE"
);
}
);
width = 598;
},
{
anchors = (
{
name = bottom;
position = "{334, 0}";
},
{
name = top;
position = "{334, 583}";
}
);
background = {
anchors = (
{
name = bottom;
position = "{334, 0}";
},
{
name = top;
position = "{334, 583}";
}
);
paths = (
{
closed = 1;
nodes = (
"494 0 LINE",
"494 120 LINE",
"434 120 LINE",
"434 217 LINE",
"618 463 LINE",
"668 463 LINE",
"668 583 LINE",
"366 583 LINE",
"366 463 LINE",
"425 463 LINE",
"309 307 LINE",
"364 307 LINE",
"253 463 LINE",
"312 463 LINE",
"312 583 LINE",
"0 583 LINE",
"0 463 LINE",
"50 463 LINE",
"234 217 LINE",
"234 120 LINE",
"174 120 LINE",
"174 0 LINE"
);
}
);
};
layerId = "EFCDB4D9-E20B-4A8D-9DB5-150AD166B0AE";
paths = (
{
closed = 1;
nodes = (
"494 0 LINE",
"494 120 LINE",
"434 120 LINE",
"434 217 LINE",
"618 463 LINE",
"668 463 LINE",
"668 583 LINE",
"366 583 LINE",
"366 463 LINE",
"425 463 LINE",
"309 307 LINE",
"364 307 LINE",
"253 463 LINE",
"312 463 LINE",
"312 583 LINE",
"0 583 LINE",
"0 463 LINE",
"50 463 LINE",
"234 217 LINE",
"234 120 LINE",
"174 120 LINE",
"174 0 LINE"
);
}
);
width = 668;
},
{
anchors = (
{
name = bottom;
position = "{318, 0}";
},
{
name = top;
position = "{322, 563}";
}
);
associatedMasterId = "98C086B7-81AA-4491-8494-0C6A76849168";
layerId = "D31B310C-B1F6-4C8F-A68A-811299BD3144";
name = "Original Regular";
paths = (
{
closed = 1;
nodes = (
"441 0 LINE",
"441 53 LINE",
"358 53 LINE",
"358 242 LINE",
"541 510 LINE",
"618 510 LINE",
"618 563 LINE",
"396 563 LINE",
"396 510 LINE",
"468 510 LINE",
"325 294 LINE",
"177 510 LINE",
"248 510 LINE",
"248 563 LINE",
"14 563 LINE",
"14 510 LINE",
"89 510 LINE",
"277 241 LINE",
"277 53 LINE",
"195 53 LINE",
"195 0 LINE"
);
}
);
width = 632;
},
{
anchors = (
{
name = bottom;
position = "{317, 0}";
},
{
name = top;
position = "{317, 583}";
}
);
background = {
anchors = (
{
name = bottom;
position = "{317, 0}";
},
{
name = top;
position = "{317, 583}";
}
);
paths = (
{
closed = 1;
nodes = (
"452 0 LINE",
"452 71 LINE",
"374 71 LINE",
"374 232 LINE",
"571 512 LINE",
"633 512 LINE",
"633 583 LINE",
"389 583 LINE",
"389 512 LINE",
"459 512 LINE",
"301 284 LINE",
"336 284 LINE",
"180 512 LINE",
"250 512 LINE",
"250 583 LINE",
"0 583 LINE",
"0 512 LINE",
"63 512 LINE",
"259 232 LINE",
"259 71 LINE",
"182 71 LINE",
"182 0 LINE"
);
}
);
};
layerId = "086393EE-48A8-42B6-AE05-10B6A30445E6";
paths = (
{
closed = 1;
nodes = (
"451 0 LINE",
"451 83 LINE",
"374 83 LINE",
"374 228 LINE",
"571 500 LINE",
"634 500 LINE",
"634 583 LINE",
"386 583 LINE",
"386 500 LINE",
"456 500 LINE",
"305 289 LINE",
"332 289 LINE",
"183 500 LINE",
"253 500 LINE",
"253 583 LINE",
"0 583 LINE",
"0 500 LINE",
"63 500 LINE",
"259 228 LINE",
"259 83 LINE",
"182 83 LINE",
"182 0 LINE"
);
}
);
width = 634;
}
);
leftKerningGroup = Y;
rightKerningGroup = Y;
rightMetricsKey = "=|";
unicode = 0059;
userData = {
com.typemytype.robofont.layerData = {
b = {
anchors = (
);
components = (
);
contours = (
);
lib = {
};
name = Y;
unicodes = (
);
width = 1254;
};
};
org.robofab.postScriptHintData = {
};
};
},
